<svg width="445" height="421" viewBox="0 0 445 421" fill="none" xmlns="http://www.w3.org/2000/svg">
<g filter="url(#filter0_i)">
<path d="M62 163C62 149.745 72.7452 139 86 139H362C375.255 139 386 149.745 386 163V323C386 336.255 375.255 347 362 347H86C72.7452 347 62 336.255 62 323V163Z" fill="#FF5252"/>
</g>
<path d="M62 163C62 149.745 72.7452 139 86 139H362C375.255 139 386 149.745 386 163V323C386 336.255 375.255 347 362 347H86C72.7452 347 62 336.255 62 323V163Z" stroke="#1F2024" stroke-width="8"/>
<g filter="url(#filter1_ii)">
<path fill-rule="evenodd" clip-rule="evenodd" d="M86 139C72.7452 139 62 149.745 62 163V323C62 336.255 72.7452 347 86 347H112C98.7452 347 88 336.255 88 323V163C88 149.745 98.7452 139 112 139H86Z" fill="#0022D3" fill-opacity="0.8"/>
</g>
<path d="M66 163C66 151.954 74.9543 143 86 143V135C70.536 135 58 147.536 58 163H66ZM66 323V163H58V323H66ZM86 343C74.9543 343 66 334.046 66 323H58C58 338.464 70.536 351 86 351V343ZM112 343H86V351H112V343ZM112 343C100.954 343 92 334.046 92 323H84C84 338.464 96.536 351 112 351V343ZM92 323V163H84V323H92ZM92 163C92 151.954 100.954 143 112 143V135C96.536 135 84 147.536 84 163H92ZM86 143H112V135H86V143Z" fill="#1F2024"/>
<g filter="url(#filter2_ii)">
<path fill-rule="evenodd" clip-rule="evenodd" d="M112.667 139C99.4119 139 88.6667 149.745 88.6667 163V323C88.6667 336.255 99.4119 347 112.667 347H138.667C125.412 347 114.667 336.255 114.667 323V163C114.667 149.745 125.412 139 138.667 139H112.667Z" fill="#0022D3" fill-opacity="0.7"/>
</g>
<path d="M92.6667 163C92.6667 151.954 101.621 143 112.667 143V135C97.2028 135 84.6667 147.536 84.6667 163H92.6667ZM92.6667 323V163H84.6667V323H92.6667ZM112.667 343C101.621 343 92.6667 334.046 92.6667 323H84.6667C84.6667 338.464 97.2028 351 112.667 351V343ZM138.667 343H112.667V351H138.667V343ZM138.667 343C127.621 343 118.667 334.046 118.667 323H110.667C110.667 338.464 123.203 351 138.667 351V343ZM118.667 323V163H110.667V323H118.667ZM118.667 163C118.667 151.954 127.621 143 138.667 143V135C123.203 135 110.667 147.536 110.667 163H118.667ZM112.667 143H138.667V135H112.667V143Z" fill="#1F2024"/>
<g filter="url(#filter3_ii)">
<path fill-rule="evenodd" clip-rule="evenodd" d="M139.333 139C126.078 139 115.333 149.745 115.333 163V323C115.333 336.255 126.078 347 139.333 347H165.333C152.078 347 141.333 336.255 141.333 323V163C141.333 149.745 152.078 139 165.333 139H139.333Z" fill="#0022D3" fill-opacity="0.5"/>
</g>
<path d="M119.333 163C119.333 151.954 128.288 143 139.333 143V135C123.869 135 111.333 147.536 111.333 163H119.333ZM119.333 323V163H111.333V323H119.333ZM139.333 343C128.288 343 119.333 334.046 119.333 323H111.333C111.333 338.464 123.869 351 139.333 351V343ZM165.333 343H139.333V351H165.333V343ZM165.333 343C154.288 343 145.333 334.046 145.333 323H137.333C137.333 338.464 149.869 351 165.333 351V343ZM145.333 323V163H137.333V323H145.333ZM145.333 163C145.333 151.954 154.288 143 165.333 143V135C149.869 135 137.333 147.536 137.333 163H145.333ZM139.333 143H165.333V135H139.333V143Z" fill="#1F2024"/>
<g filter="url(#filter4_ii)">
<path fill-rule="evenodd" clip-rule="evenodd" d="M166 139C152.745 139 142 149.745 142 163V323C142 336.255 152.745 347 166 347H192C178.745 347 168 336.255 168 323V163C168 149.745 178.745 139 192 139H166Z" fill="#0022D3" fill-opacity="0.3"/>
</g>
<path d="M146 163C146 151.954 154.954 143 166 143V135C150.536 135 138 147.536 138 163H146ZM146 323V163H138V323H146ZM166 343C154.954 343 146 334.046 146 323H138C138 338.464 150.536 351 166 351V343ZM192 343H166V351H192V343ZM192 343C180.954 343 172 334.046 172 323H164C164 338.464 176.536 351 192 351V343ZM172 323V163H164V323H172ZM172 163C172 151.954 180.954 143 192 143V135C176.536 135 164 147.536 164 163H172ZM166 143H192V135H166V143Z" fill="#1F2024"/>
<g filter="url(#filter5_d)">
<rect x="47" y="193" width="136" height="12" fill="#1F2024"/>
</g>
<g filter="url(#filter6_d)">
<path fill-rule="evenodd" clip-rule="evenodd" d="M224.908 264.122C208.059 252.401 171.392 214.608 144.366 178.701C142.352 176.026 144.36 172.287 147.7 172.523C188.19 175.384 255.1 186.427 276.149 198.873C276.513 199.07 276.899 199.31 277.323 199.574C279.437 200.889 282.5 202.794 288.5 202.895C294.957 202.787 298.778 200.614 301.075 199.307L301.075 199.307C301.352 199.149 301.607 199.005 301.841 198.877C322.882 186.43 389.803 175.385 430.298 172.523C433.638 172.287 435.646 176.026 433.632 178.701C406.607 214.608 369.94 252.401 353.09 264.122C350.199 266.134 346.545 266.608 343.381 265.062C330.171 258.606 309.263 238.389 299.986 220.948L299.985 220.948C297.768 216.739 291.561 215.087 288.562 214.895C286.155 215.094 281.479 216.824 278.62 219.776C269.679 237.473 248.124 258.461 234.617 265.062C231.453 266.608 227.799 266.134 224.908 264.122Z" fill="#1F2024"/>
</g>
<path fill-rule="evenodd" clip-rule="evenodd" d="M174.88 192.634C178.993 181.875 264.324 199.699 268.378 210.11C271.672 218.57 244.756 252.635 230.341 252.635C218.809 252.635 170.767 203.393 174.88 192.634ZM402.774 192.634C398.661 181.875 313.331 199.699 309.277 210.11C305.982 218.57 332.899 252.635 347.313 252.635C358.845 252.635 406.887 203.393 402.774 192.634Z" fill="#4A4A4E"/>
<mask id="mask0" mask-type="alpha" maskUnits="userSpaceOnUse" x="174" y="189" width="230" height="64">
<path fill-rule="evenodd" clip-rule="evenodd" d="M174.88 192.634C178.993 181.875 264.324 199.699 268.378 210.11C271.672 218.57 244.756 252.635 230.341 252.635C218.809 252.635 170.767 203.393 174.88 192.634ZM402.774 192.634C398.661 181.875 313.331 199.699 309.277 210.11C305.982 218.57 332.899 252.635 347.313 252.635C358.845 252.635 406.887 203.393 402.774 192.634Z" fill="#4A4A4E"/>
</mask>
<g mask="url(#mask0)">
<path d="M415.872 181H438L400.128 261H378L415.872 181Z" fill="white"/>
</g>
<g filter="url(#filter7_ii)">
<path fill-rule="evenodd" clip-rule="evenodd" d="M262 265C248.745 265 238 275.745 238 289V292.25C238 308.75 224.014 331 197.787 324.5C186.56 321.717 181.685 309.757 176.643 297.385C169.908 280.858 162.873 263.596 139.992 266.5C104.538 271 132.707 334.5 145.82 362.75C173.237 421.815 293.969 430.887 347.375 398.231C382.971 376.465 396.806 317.425 393.514 278.5C393.26 275.5 386.714 275 385.743 278.5C385.722 278.577 385.691 278.689 385.652 278.833C384.483 283.167 375.42 316.758 357.088 324.5C338.147 332.5 326 317.5 326 292.25V289C326 275.745 315.255 265 302 265H262Z" fill="#2477D5"/>
</g>
<path d="M197.787 324.5L198.749 320.617L197.787 324.5ZM176.643 297.385L180.347 295.876H180.347L176.643 297.385ZM139.992 266.5L139.488 262.532L139.992 266.5ZM145.82 362.75L149.448 361.066L145.82 362.75ZM347.375 398.231L345.288 394.819L347.375 398.231ZM393.514 278.5L389.528 278.837V278.837L393.514 278.5ZM385.743 278.5L389.597 279.57L389.597 279.57L385.743 278.5ZM385.652 278.833L389.514 279.875L389.514 279.875L385.652 278.833ZM357.088 324.5L358.645 328.185L357.088 324.5ZM242 289C242 277.954 250.954 269 262 269V261C246.536 261 234 273.536 234 289H242ZM242 292.25V289H234V292.25H242ZM234 292.25C234 299.507 230.878 308.161 224.892 314.179C219.083 320.021 210.463 323.52 198.749 320.617L196.825 328.382C211.338 331.979 222.824 327.604 230.565 319.821C238.129 312.214 242 301.493 242 292.25H234ZM198.749 320.617C194.439 319.549 191.15 316.714 188.225 312.322C185.239 307.837 182.908 302.158 180.347 295.876L172.939 298.895C175.421 304.984 178.048 311.471 181.566 316.755C185.146 322.132 189.908 326.668 196.825 328.382L198.749 320.617ZM180.347 295.876C177.049 287.783 173.362 278.611 167.334 271.968C160.994 264.98 152.22 260.916 139.488 262.532L140.495 270.468C150.645 269.18 156.829 272.295 161.41 277.344C166.304 282.737 169.501 290.46 172.939 298.895L180.347 295.876ZM139.488 262.532C134.424 263.175 130.215 264.914 126.925 267.73C123.639 270.541 121.521 274.208 120.275 278.3C117.833 286.319 118.616 296.379 120.781 306.551C125.138 327.025 135.655 350.352 142.192 364.434L149.448 361.066C142.872 346.898 132.748 324.35 128.605 304.886C126.521 295.09 126.09 286.666 127.928 280.63C128.822 277.694 130.217 275.442 132.126 273.808C134.03 272.179 136.697 270.95 140.495 270.468L139.488 262.532ZM142.192 364.434C156.787 395.877 195.63 413.225 236.304 418.848C277.138 424.493 321.703 418.617 349.461 401.644L345.288 394.819C319.64 410.502 277.137 416.417 237.399 410.924C197.501 405.408 162.27 388.688 149.448 361.066L142.192 364.434ZM349.461 401.644C368.392 390.068 381.176 368.858 388.82 346.072C396.486 323.22 399.193 298.181 397.5 278.163L389.528 278.837C391.127 297.743 388.562 321.687 381.235 343.528C373.886 365.435 361.954 384.628 345.288 394.819L349.461 401.644ZM397.5 278.163C397.301 275.818 395.856 274.227 394.445 273.347C393.069 272.49 391.48 272.115 390.037 272.065C387.483 271.976 383.109 273.032 381.889 277.43L389.597 279.57C389.556 279.719 389.475 279.868 389.373 279.987C389.278 280.096 389.203 280.137 389.2 280.138C389.199 280.139 389.25 280.113 389.362 280.09C389.472 280.068 389.609 280.055 389.758 280.06C389.908 280.065 390.037 280.087 390.133 280.114C390.233 280.141 390.254 280.162 390.214 280.137C390.175 280.113 390.025 280.012 389.867 279.784C389.695 279.538 389.559 279.207 389.528 278.837L397.5 278.163ZM381.889 277.43C381.862 277.525 381.828 277.654 381.791 277.791L389.514 279.875C389.555 279.724 389.581 279.63 389.597 279.57L381.889 277.43ZM381.791 277.791C381.22 279.907 378.736 289.103 374.193 298.673C369.531 308.492 363.221 317.568 355.532 320.815L358.645 328.185C369.287 323.69 376.674 312.099 381.42 302.104C386.283 291.859 388.916 282.093 389.514 279.875L381.791 277.791ZM355.532 320.815C351.348 322.582 347.826 322.961 344.94 322.448C342.084 321.941 339.559 320.511 337.392 318.143C332.945 313.283 330 304.393 330 292.25H322C322 305.357 325.128 316.591 331.49 323.544C334.728 327.083 338.791 329.481 343.54 330.325C348.259 331.164 353.359 330.417 358.645 328.185L355.532 320.815ZM322 289V292.25H330V289H322ZM302 269C313.046 269 322 277.954 322 289H330C330 273.536 317.464 261 302 261V269ZM262 269H302V261H262V269Z" fill="#1F2024"/>
<path d="M298 293C298 294.576 297.69 296.136 297.087 297.592C296.483 299.048 295.6 300.371 294.485 301.485C293.371 302.6 292.048 303.483 290.592 304.087C289.136 304.69 287.576 305 286 305C284.424 305 282.864 304.69 281.408 304.087C279.952 303.483 278.629 302.6 277.515 301.485C276.4 300.371 275.517 299.048 274.913 297.592C274.31 296.136 274 294.576 274 293" stroke="#1F2024" stroke-width="12" stroke-linecap="round"/>
<g filter="url(#filter8_i)">
<circle cx="139" cy="291" r="10" fill="white"/>
</g>
<circle cx="139" cy="291" r="10" stroke="#1F2024" stroke-width="8"/>
<path d="M168.974 135.243C168.006 126.377 175.293 119 184.212 119H329C337.837 119 345.087 126.238 344.322 135.041C332.965 265.668 182.62 260.21 168.974 135.243Z" fill="black" fill-opacity="0.16"/>
<g filter="url(#filter9_ii)">
<ellipse cx="329" cy="104" rx="71" ry="68.5" fill="#75D1C1"/>
</g>
<ellipse cx="329" cy="104" rx="71" ry="68.5" stroke="#1F2024" stroke-width="8" stroke-linecap="round" stroke-linejoin="round"/>
<path d="M334 61.5862C292 54.5864 311.5 112.586 274 112.586" stroke="#1F2024" stroke-width="8" stroke-linecap="round" stroke-linejoin="round"/>
<path d="M330.999 123.5C346.199 114.7 353.5 73.5 328.499 59.5C320.833 62.8333 306.82 67.678 302.999 84C297.499 107.5 283.999 112.5 275.499 113C290.166 119.833 315.799 132.3 330.999 123.5Z" fill="black" fill-opacity="0.16"/>
<g filter="url(#filter10_ii)">
<rect x="395" y="154" width="32" height="49" rx="8" fill="white"/>
</g>
<rect x="395" y="154" width="32" height="49" rx="8" stroke="#1F2024" stroke-width="8" stroke-linecap="round" stroke-linejoin="round"/>
<g filter="url(#filter11_ii)">
<rect x="372" y="154" width="33" height="49" rx="8" fill="white"/>
</g>
<rect x="372" y="154" width="33" height="49" rx="8" stroke="#1F2024" stroke-width="8" stroke-linecap="round" stroke-linejoin="round"/>
<g filter="url(#filter12_dii)">
<path fill-rule="evenodd" clip-rule="evenodd" d="M159.826 36.2867C174.587 27.1312 187.241 16.9646 193.5 4C196.518 10.9163 198.5 16.5 198.5 23.5C205.5 21.5 215 16 224 4C228.951 11.5913 231.882 19.3365 232.047 29.3759C241.576 30.939 250.916 33.4705 259.897 36.9389C276.033 43.1705 290.695 52.3043 303.045 63.8188C315.395 75.3332 325.192 89.0029 331.876 104.047C334.116 109.088 335.991 114.251 337.495 119.5H387C395.837 119.5 403.216 126.813 401.28 135.435C382.62 218.518 217.619 220.904 176.989 151.5H126.157C113.241 164.445 95.0954 172.5 75 172.5C35.7878 172.5 4 141.832 4 104C4 66.1685 35.7878 35.5 75 35.5C94.5007 35.5 112.165 43.0849 124.997 55.3637C134.995 47.7696 146.144 41.5573 158.103 36.9389C158.676 36.7177 159.25 36.5003 159.826 36.2867Z" fill="#91DCCC"/>
<path d="M193.5 4L197.166 2.4001C196.541 0.967767 195.139 0.0306344 193.577 0.000732183C192.014 -0.02917 190.577 0.853635 189.898 2.261L193.5 4ZM159.826 36.2867L161.217 40.037C161.467 39.9442 161.708 39.8266 161.934 39.686L159.826 36.2867ZM198.5 23.5H194.5C194.5 24.7552 195.089 25.9375 196.091 26.6934C197.093 27.4492 198.392 27.6909 199.599 27.3461L198.5 23.5ZM224 4L227.35 1.81493C226.637 0.721604 225.436 0.0449567 224.131 0.00215149C222.827 -0.0406537 221.583 0.555768 220.8 1.6L224 4ZM232.047 29.3759L228.047 29.4416C228.079 31.3757 229.49 33.01 231.399 33.3231L232.047 29.3759ZM259.897 36.9389L261.338 33.2075V33.2075L259.897 36.9389ZM331.876 104.047L328.22 105.671L331.876 104.047ZM337.495 119.5L333.65 120.602C334.141 122.317 335.71 123.5 337.495 123.5V119.5ZM401.28 135.435L405.183 136.312L401.28 135.435ZM176.989 151.5L180.441 149.479C179.723 148.253 178.409 147.5 176.989 147.5V151.5ZM126.157 151.5V147.5C125.095 147.5 124.076 147.923 123.326 148.675L126.157 151.5ZM124.997 55.3637L122.231 58.2537C123.652 59.6132 125.85 59.7384 127.416 58.549L124.997 55.3637ZM158.103 36.9389L159.544 40.6704L158.103 36.9389ZM189.898 2.261C184.163 14.1403 172.362 23.8041 157.718 32.8875L161.934 39.686C176.812 30.4583 190.319 19.7889 197.102 5.739L189.898 2.261ZM202.5 23.5C202.5 15.648 200.239 9.44149 197.166 2.4001L189.834 5.5999C192.798 12.3912 194.5 17.352 194.5 23.5H202.5ZM220.8 1.6C212.263 12.9822 203.47 17.92 197.401 19.6539L199.599 27.3461C207.53 25.08 217.737 19.0178 227.2 6.4L220.8 1.6ZM236.046 29.3102C235.867 18.3954 232.641 9.92691 227.35 1.81493L220.65 6.18507C225.261 13.2558 227.897 20.2776 228.047 29.4416L236.046 29.3102ZM261.338 33.2075C252.098 29.6391 242.491 27.0358 232.694 25.4286L231.399 33.3231C240.66 34.8422 249.734 37.302 258.456 40.6704L261.338 33.2075ZM305.773 60.8931C293.04 49.0218 277.939 39.6185 261.338 33.2075L258.456 40.6704C274.128 46.7226 288.35 55.5868 300.318 66.7444L305.773 60.8931ZM335.531 102.423C328.623 86.8742 318.506 72.7649 305.773 60.8931L300.318 66.7444C312.284 77.9015 321.761 91.1316 328.22 105.671L335.531 102.423ZM341.34 118.398C339.785 112.97 337.846 107.633 335.531 102.423L328.22 105.671C330.385 110.544 332.197 115.532 333.65 120.602L341.34 118.398ZM387 115.5H337.495V123.5H387V115.5ZM405.183 136.312C407.817 124.583 397.739 115.5 387 115.5V123.5C393.934 123.5 398.616 129.043 397.377 134.558L405.183 136.312ZM173.537 153.521C184.295 171.897 203.101 185.241 225.119 193.688C247.165 202.145 272.742 205.822 297.563 204.646C322.369 203.47 346.672 197.434 366.077 186.219C385.526 174.98 400.217 158.422 405.183 136.312L397.377 134.558C393.013 153.99 380.082 168.886 362.075 179.292C344.025 189.723 321.039 195.524 297.184 196.655C273.343 197.784 248.885 194.237 227.984 186.219C207.053 178.189 189.998 165.805 180.441 149.479L173.537 153.521ZM126.157 155.5H176.989V147.5H126.157V155.5ZM75 176.5C96.1792 176.5 115.337 168.008 128.989 154.325L123.326 148.675C111.144 160.883 94.0116 168.5 75 168.5V176.5ZM0 104C0 144.175 33.715 176.5 75 176.5V168.5C37.8606 168.5 8 139.488 8 104H0ZM75 31.5C33.715 31.5 0 63.8254 0 104H8C8 68.5116 37.8606 39.5 75 39.5V31.5ZM127.762 52.4737C114.202 39.4973 95.5523 31.5 75 31.5V39.5C93.4492 39.5 110.129 46.6725 122.231 58.2537L127.762 52.4737ZM156.662 33.2075C144.359 37.9589 132.879 44.3537 122.578 52.1783L127.416 58.549C137.111 51.1855 147.93 45.1556 159.544 40.6704L156.662 33.2075ZM158.435 32.5365C157.842 32.7563 157.251 32.9799 156.662 33.2075L159.544 40.6704C160.1 40.4555 160.658 40.2444 161.217 40.037L158.435 32.5365Z" fill="#1F2024"/>
</g>
<circle cx="159" cy="116" r="22" fill="#E36776" fill-opacity="0.5"/>
<path d="M65 65.5862C107 58.5864 87.5 116.586 125 116.586" stroke="#1F2024" stroke-width="8" stroke-linecap="round" stroke-linejoin="round"/>
<path d="M68.0006 127.5C52.8006 118.7 45.5 77.5 70.5005 63.5C78.1672 66.8333 92.1805 71.678 96.0005 88C101.501 111.5 115.001 116.5 123.501 117C108.834 123.833 83.2006 136.3 68.0006 127.5Z" fill="black" fill-opacity="0.16"/>
<rect x="41" y="90" width="60" height="8" fill="#1F2024"/>
<g filter="url(#filter13_ii)">
<circle cx="47" cy="94" r="16" fill="#9BCEF1"/>
</g>
<circle cx="47" cy="94" r="16" stroke="#1F2024" stroke-width="8"/>
<path d="M339 140.667C339 130.357 347.357 122 357.667 122H418.333C428.643 122 437 130.357 437 140.667C437 161.285 420.285 178 399.667 178H376.333C355.715 178 339 161.285 339 140.667Z" fill="black" fill-opacity="0.16"/>
<path d="M347 139.167C347 126.096 357.596 115.5 370.667 115.5H421.333C434.404 115.5 445 126.096 445 139.167C445 165.308 423.808 186.5 397.667 186.5H394.333C368.192 186.5 347 165.308 347 139.167Z" fill="#1F2024"/>
<path d="M428.722 148.881C429.395 146.545 429.756 144.087 429.756 141.549C429.756 133.893 423.333 127.687 415.411 127.687H409.067" stroke="white" stroke-width="8" stroke-linecap="round"/>
<circle cx="210" cy="98" r="12" fill="#1F2024"/>
<circle r="12" transform="matrix(-1 0 0 1 282 98)" fill="#1F2024"/>
<g filter="url(#filter14_ii)">
<circle cx="369" cy="94" r="16" fill="#9BCEF1"/>
</g>
<circle cx="369" cy="94" r="16" stroke="#1F2024" stroke-width="8"/>
<rect x="326" y="90" width="38" height="8" rx="4" fill="#1F2024"/>
<defs>
<filter id="filter0_i" x="58" y="135" width="332" height="216" filterUnits="userSpaceOnUse" color-interpolation-filters="sRGB">
<feFlood flood-opacity="0" result="BackgroundImageFix"/>
<feBlend mode="normal" in="SourceGraphic" in2="BackgroundImageFix" result="shape"/>
<feColorMatrix in="SourceAlpha" type="matrix" values="0 0 0 0 0 0 0 0 0 0 0 0 0 0 0 0 0 0 127 0" result="hardAlpha"/>
<feOffset dx="-24" dy="8"/>
<feComposite in2="hardAlpha" operator="arithmetic" k2="-1" k3="1"/>
<feColorMatrix type="matrix" values="0 0 0 0 1 0 0 0 0 1 0 0 0 0 1 0 0 0 0.25 0"/>
<feBlend mode="normal" in2="shape" result="effect1_innerShadow"/>
</filter>
<filter id="filter1_ii" x="58" y="135" width="54" height="216" filterUnits="userSpaceOnUse" color-interpolation-filters="sRGB">
<feFlood flood-opacity="0" result="BackgroundImageFix"/>
<feBlend mode="normal" in="SourceGraphic" in2="BackgroundImageFix" result="shape"/>
<feColorMatrix in="SourceAlpha" type="matrix" values="0 0 0 0 0 0 0 0 0 0 0 0 0 0 0 0 0 0 127 0" result="hardAlpha"/>
<feOffset dy="-16"/>
<feComposite in2="hardAlpha" operator="arithmetic" k2="-1" k3="1"/>
<feColorMatrix type="matrix" values="0 0 0 0 0 0 0 0 0 0 0 0 0 0 0 0 0 0 0.25 0"/>
<feBlend mode="normal" in2="shape" result="effect1_innerShadow"/>
<feColorMatrix in="SourceAlpha" type="matrix" values="0 0 0 0 0 0 0 0 0 0 0 0 0 0 0 0 0 0 127 0" result="hardAlpha"/>
<feOffset dy="16"/>
<feComposite in2="hardAlpha" operator="arithmetic" k2="-1" k3="1"/>
<feColorMatrix type="matrix" values="0 0 0 0 1 0 0 0 0 1 0 0 0 0 1 0 0 0 0.25 0"/>
<feBlend mode="normal" in2="effect1_innerShadow" result="effect2_innerShadow"/>
</filter>
<filter id="filter2_ii" x="84.6667" y="135" width="54" height="216" filterUnits="userSpaceOnUse" color-interpolation-filters="sRGB">
<feFlood flood-opacity="0" result="BackgroundImageFix"/>
<feBlend mode="normal" in="SourceGraphic" in2="BackgroundImageFix" result="shape"/>
<feColorMatrix in="SourceAlpha" type="matrix" values="0 0 0 0 0 0 0 0 0 0 0 0 0 0 0 0 0 0 127 0" result="hardAlpha"/>
<feOffset dy="-16"/>
<feComposite in2="hardAlpha" operator="arithmetic" k2="-1" k3="1"/>
<feColorMatrix type="matrix" values="0 0 0 0 0 0 0 0 0 0 0 0 0 0 0 0 0 0 0.25 0"/>
<feBlend mode="normal" in2="shape" result="effect1_innerShadow"/>
<feColorMatrix in="SourceAlpha" type="matrix" values="0 0 0 0 0 0 0 0 0 0 0 0 0 0 0 0 0 0 127 0" result="hardAlpha"/>
<feOffset dy="16"/>
<feComposite in2="hardAlpha" operator="arithmetic" k2="-1" k3="1"/>
<feColorMatrix type="matrix" values="0 0 0 0 1 0 0 0 0 1 0 0 0 0 1 0 0 0 0.25 0"/>
<feBlend mode="normal" in2="effect1_innerShadow" result="effect2_innerShadow"/>
</filter>
<filter id="filter3_ii" x="111.333" y="135" width="54" height="216" filterUnits="userSpaceOnUse" color-interpolation-filters="sRGB">
<feFlood flood-opacity="0" result="BackgroundImageFix"/>
<feBlend mode="normal" in="SourceGraphic" in2="BackgroundImageFix" result="shape"/>
<feColorMatrix in="SourceAlpha" type="matrix" values="0 0 0 0 0 0 0 0 0 0 0 0 0 0 0 0 0 0 127 0" result="hardAlpha"/>
<feOffset dy="-16"/>
<feComposite in2="hardAlpha" operator="arithmetic" k2="-1" k3="1"/>
<feColorMatrix type="matrix" values="0 0 0 0 0 0 0 0 0 0 0 0 0 0 0 0 0 0 0.25 0"/>
<feBlend mode="normal" in2="shape" result="effect1_innerShadow"/>
<feColorMatrix in="SourceAlpha" type="matrix" values="0 0 0 0 0 0 0 0 0 0 0 0 0 0 0 0 0 0 127 0" result="hardAlpha"/>
<feOffset dy="16"/>
<feComposite in2="hardAlpha" operator="arithmetic" k2="-1" k3="1"/>
<feColorMatrix type="matrix" values="0 0 0 0 1 0 0 0 0 1 0 0 0 0 1 0 0 0 0.25 0"/>
<feBlend mode="normal" in2="effect1_innerShadow" result="effect2_innerShadow"/>
</filter>
<filter id="filter4_ii" x="138" y="135" width="54" height="216" filterUnits="userSpaceOnUse" color-interpolation-filters="sRGB">
<feFlood flood-opacity="0" result="BackgroundImageFix"/>
<feBlend mode="normal" in="SourceGraphic" in2="BackgroundImageFix" result="shape"/>
<feColorMatrix in="SourceAlpha" type="matrix" values="0 0 0 0 0 0 0 0 0 0 0 0 0 0 0 0 0 0 127 0" result="hardAlpha"/>
<feOffset dy="-16"/>
<feComposite in2="hardAlpha" operator="arithmetic" k2="-1" k3="1"/>
<feColorMatrix type="matrix" values="0 0 0 0 0 0 0 0 0 0 0 0 0 0 0 0 0 0 0.25 0"/>
<feBlend mode="normal" in2="shape" result="effect1_innerShadow"/>
<feColorMatrix in="SourceAlpha" type="matrix" values="0 0 0 0 0 0 0 0 0 0 0 0 0 0 0 0 0 0 127 0" result="hardAlpha"/>
<feOffset dy="16"/>
<feComposite in2="hardAlpha" operator="arithmetic" k2="-1" k3="1"/>
<feColorMatrix type="matrix" values="0 0 0 0 1 0 0 0 0 1 0 0 0 0 1 0 0 0 0.25 0"/>
<feBlend mode="normal" in2="effect1_innerShadow" result="effect2_innerShadow"/>
</filter>
<filter id="filter5_d" x="43" y="193" width="140" height="16" filterUnits="userSpaceOnUse" color-interpolation-filters="sRGB">
<feFlood flood-opacity="0" result="BackgroundImageFix"/>
<feColorMatrix in="SourceAlpha" type="matrix" values="0 0 0 0 0 0 0 0 0 0 0 0 0 0 0 0 0 0 127 0" result="hardAlpha"/>
<feOffset dx="-4" dy="4"/>
<feColorMatrix type="matrix" values="0 0 0 0 0 0 0 0 0 0 0 0 0 0 0 0 0 0 0.25 0"/>
<feBlend mode="normal" in2="BackgroundImageFix" result="effect1_dropShadow"/>
<feBlend mode="normal" in="SourceGraphic" in2="effect1_dropShadow" result="shape"/>
</filter>
<filter id="filter6_d" x="139.561" y="172.512" width="294.876" height="97.4661" filterUnits="userSpaceOnUse" color-interpolation-filters="sRGB">
<feFlood flood-opacity="0" result="BackgroundImageFix"/>
<feColorMatrix in="SourceAlpha" type="matrix" values="0 0 0 0 0 0 0 0 0 0 0 0 0 0 0 0 0 0 127 0" result="hardAlpha"/>
<feOffset dx="-4" dy="4"/>
<feColorMatrix type="matrix" values="0 0 0 0 0 0 0 0 0 0 0 0 0 0 0 0 0 0 0.25 0"/>
<feBlend mode="normal" in2="BackgroundImageFix" result="effect1_dropShadow"/>
<feBlend mode="normal" in="SourceGraphic" in2="effect1_dropShadow" result="shape"/>
</filter>
<filter id="filter7_ii" x="118.767" y="261" width="279.217" height="159.929" filterUnits="userSpaceOnUse" color-interpolation-filters="sRGB">
<feFlood flood-opacity="0" result="BackgroundImageFix"/>
<feBlend mode="normal" in="SourceGraphic" in2="BackgroundImageFix" result="shape"/>
<feColorMatrix in="SourceAlpha" type="matrix" values="0 0 0 0 0 0 0 0 0 0 0 0 0 0 0 0 0 0 127 0" result="hardAlpha"/>
<feOffset dx="16"/>
<feComposite in2="hardAlpha" operator="arithmetic" k2="-1" k3="1"/>
<feColorMatrix type="matrix" values="0 0 0 0 0 0 0 0 0 0 0 0 0 0 0 0 0 0 0.25 0"/>
<feBlend mode="normal" in2="shape" result="effect1_innerShadow"/>
<feColorMatrix in="SourceAlpha" type="matrix" values="0 0 0 0 0 0 0 0 0 0 0 0 0 0 0 0 0 0 127 0" result="hardAlpha"/>
<feOffset dx="-24" dy="8"/>
<feComposite in2="hardAlpha" operator="arithmetic" k2="-1" k3="1"/>
<feColorMatrix type="matrix" values="0 0 0 0 1 0 0 0 0 1 0 0 0 0 1 0 0 0 0.25 0"/>
<feBlend mode="normal" in2="effect1_innerShadow" result="effect2_innerShadow"/>
</filter>
<filter id="filter8_i" x="125" y="277" width="28" height="28" filterUnits="userSpaceOnUse" color-interpolation-filters="sRGB">
<feFlood flood-opacity="0" result="BackgroundImageFix"/>
<feBlend mode="normal" in="SourceGraphic" in2="BackgroundImageFix" result="shape"/>
<feColorMatrix in="SourceAlpha" type="matrix" values="0 0 0 0 0 0 0 0 0 0 0 0 0 0 0 0 0 0 127 0" result="hardAlpha"/>
<feOffset dx="-24" dy="8"/>
<feComposite in2="hardAlpha" operator="arithmetic" k2="-1" k3="1"/>
<feColorMatrix type="matrix" values="0 0 0 0 1 0 0 0 0 1 0 0 0 0 1 0 0 0 0.25 0"/>
<feBlend mode="normal" in2="shape" result="effect1_innerShadow"/>
</filter>
<filter id="filter9_ii" x="254" y="31.5" width="150" height="145" filterUnits="userSpaceOnUse" color-interpolation-filters="sRGB">
<feFlood flood-opacity="0" result="BackgroundImageFix"/>
<feBlend mode="normal" in="SourceGraphic" in2="BackgroundImageFix" result="shape"/>
<feColorMatrix in="SourceAlpha" type="matrix" values="0 0 0 0 0 0 0 0 0 0 0 0 0 0 0 0 0 0 127 0" result="hardAlpha"/>
<feOffset dx="16"/>
<feComposite in2="hardAlpha" operator="arithmetic" k2="-1" k3="1"/>
<feColorMatrix type="matrix" values="0 0 0 0 0 0 0 0 0 0 0 0 0 0 0 0 0 0 0.25 0"/>
<feBlend mode="normal" in2="shape" result="effect1_innerShadow"/>
<feColorMatrix in="SourceAlpha" type="matrix" values="0 0 0 0 0 0 0 0 0 0 0 0 0 0 0 0 0 0 127 0" result="hardAlpha"/>
<feOffset dx="-24" dy="8"/>
<feComposite in2="hardAlpha" operator="arithmetic" k2="-1" k3="1"/>
<feColorMatrix type="matrix" values="0 0 0 0 1 0 0 0 0 1 0 0 0 0 1 0 0 0 0.25 0"/>
<feBlend mode="normal" in2="effect1_innerShadow" result="effect2_innerShadow"/>
</filter>
<filter id="filter10_ii" x="391" y="150" width="40" height="57" filterUnits="userSpaceOnUse" color-interpolation-filters="sRGB">
<feFlood flood-opacity="0" result="BackgroundImageFix"/>
<feBlend mode="normal" in="SourceGraphic" in2="BackgroundImageFix" result="shape"/>
<feColorMatrix in="SourceAlpha" type="matrix" values="0 0 0 0 0 0 0 0 0 0 0 0 0 0 0 0 0 0 127 0" result="hardAlpha"/>
<feOffset dx="16"/>
<feComposite in2="hardAlpha" operator="arithmetic" k2="-1" k3="1"/>
<feColorMatrix type="matrix" values="0 0 0 0 0 0 0 0 0 0 0 0 0 0 0 0 0 0 0.25 0"/>
<feBlend mode="normal" in2="shape" result="effect1_innerShadow"/>
<feColorMatrix in="SourceAlpha" type="matrix" values="0 0 0 0 0 0 0 0 0 0 0 0 0 0 0 0 0 0 127 0" result="hardAlpha"/>
<feOffset dx="-24" dy="8"/>
<feComposite in2="hardAlpha" operator="arithmetic" k2="-1" k3="1"/>
<feColorMatrix type="matrix" values="0 0 0 0 1 0 0 0 0 1 0 0 0 0 1 0 0 0 0.25 0"/>
<feBlend mode="normal" in2="effect1_innerShadow" result="effect2_innerShadow"/>
</filter>
<filter id="filter11_ii" x="368" y="150" width="41" height="57" filterUnits="userSpaceOnUse" color-interpolation-filters="sRGB">
<feFlood flood-opacity="0" result="BackgroundImageFix"/>
<feBlend mode="normal" in="SourceGraphic" in2="BackgroundImageFix" result="shape"/>
<feColorMatrix in="SourceAlpha" type="matrix" values="0 0 0 0 0 0 0 0 0 0 0 0 0 0 0 0 0 0 127 0" result="hardAlpha"/>
<feOffset dx="16"/>
<feComposite in2="hardAlpha" operator="arithmetic" k2="-1" k3="1"/>
<feColorMatrix type="matrix" values="0 0 0 0 0 0 0 0 0 0 0 0 0 0 0 0 0 0 0.25 0"/>
<feBlend mode="normal" in2="shape" result="effect1_innerShadow"/>
<feColorMatrix in="SourceAlpha" type="matrix" values="0 0 0 0 0 0 0 0 0 0 0 0 0 0 0 0 0 0 127 0" result="hardAlpha"/>
<feOffset dx="-24" dy="8"/>
<feComposite in2="hardAlpha" operator="arithmetic" k2="-1" k3="1"/>
<feColorMatrix type="matrix" values="0 0 0 0 1 0 0 0 0 1 0 0 0 0 1 0 0 0 0.25 0"/>
<feBlend mode="normal" in2="effect1_innerShadow" result="effect2_innerShadow"/>
</filter>
<filter id="filter12_dii" x="0" y="0" width="405.607" height="208.86" filterUnits="userSpaceOnUse" color-interpolation-filters="sRGB">
<feFlood flood-opacity="0" result="BackgroundImageFix"/>
<feColorMatrix in="SourceAlpha" type="matrix" values="0 0 0 0 0 0 0 0 0 0 0 0 0 0 0 0 0 0 127 0" result="hardAlpha"/>
<feOffset dy="4"/>
<feColorMatrix type="matrix" values="0 0 0 0 0 0 0 0 0 0 0 0 0 0 0 0 0 0 0.25 0"/>
<feBlend mode="normal" in2="BackgroundImageFix" result="effect1_dropShadow"/>
<feBlend mode="normal" in="SourceGraphic" in2="effect1_dropShadow" result="shape"/>
<feColorMatrix in="SourceAlpha" type="matrix" values="0 0 0 0 0 0 0 0 0 0 0 0 0 0 0 0 0 0 127 0" result="hardAlpha"/>
<feOffset dx="16"/>
<feComposite in2="hardAlpha" operator="arithmetic" k2="-1" k3="1"/>
<feColorMatrix type="matrix" values="0 0 0 0 0 0 0 0 0 0 0 0 0 0 0 0 0 0 0.25 0"/>
<feBlend mode="normal" in2="shape" result="effect2_innerShadow"/>
<feColorMatrix in="SourceAlpha" type="matrix" values="0 0 0 0 0 0 0 0 0 0 0 0 0 0 0 0 0 0 127 0" result="hardAlpha"/>
<feOffset dx="-16" dy="8"/>
<feComposite in2="hardAlpha" operator="arithmetic" k2="-1" k3="1"/>
<feColorMatrix type="matrix" values="0 0 0 0 1 0 0 0 0 1 0 0 0 0 1 0 0 0 0.55 0"/>
<feBlend mode="normal" in2="effect2_innerShadow" result="effect3_innerShadow"/>
</filter>
<filter id="filter13_ii" x="27" y="74" width="40" height="40" filterUnits="userSpaceOnUse" color-interpolation-filters="sRGB">
<feFlood flood-opacity="0" result="BackgroundImageFix"/>
<feBlend mode="normal" in="SourceGraphic" in2="BackgroundImageFix" result="shape"/>
<feColorMatrix in="SourceAlpha" type="matrix" values="0 0 0 0 0 0 0 0 0 0 0 0 0 0 0 0 0 0 127 0" result="hardAlpha"/>
<feOffset dx="16"/>
<feComposite in2="hardAlpha" operator="arithmetic" k2="-1" k3="1"/>
<feColorMatrix type="matrix" values="0 0 0 0 0 0 0 0 0 0 0 0 0 0 0 0 0 0 0.25 0"/>
<feBlend mode="normal" in2="shape" result="effect1_innerShadow"/>
<feColorMatrix in="SourceAlpha" type="matrix" values="0 0 0 0 0 0 0 0 0 0 0 0 0 0 0 0 0 0 127 0" result="hardAlpha"/>
<feOffset dx="-24" dy="8"/>
<feComposite in2="hardAlpha" operator="arithmetic" k2="-1" k3="1"/>
<feColorMatrix type="matrix" values="0 0 0 0 1 0 0 0 0 1 0 0 0 0 1 0 0 0 0.25 0"/>
<feBlend mode="normal" in2="effect1_innerShadow" result="effect2_innerShadow"/>
</filter>
<filter id="filter14_ii" x="349" y="74" width="40" height="40" filterUnits="userSpaceOnUse" color-interpolation-filters="sRGB">
<feFlood flood-opacity="0" result="BackgroundImageFix"/>
<feBlend mode="normal" in="SourceGraphic" in2="BackgroundImageFix" result="shape"/>
<feColorMatrix in="SourceAlpha" type="matrix" values="0 0 0 0 0 0 0 0 0 0 0 0 0 0 0 0 0 0 127 0" result="hardAlpha"/>
<feOffset dx="16"/>
<feComposite in2="hardAlpha" operator="arithmetic" k2="-1" k3="1"/>
<feColorMatrix type="matrix" values="0 0 0 0 0 0 0 0 0 0 0 0 0 0 0 0 0 0 0.25 0"/>
<feBlend mode="normal" in2="shape" result="effect1_innerShadow"/>
<feColorMatrix in="SourceAlpha" type="matrix" values="0 0 0 0 0 0 0 0 0 0 0 0 0 0 0 0 0 0 127 0" result="hardAlpha"/>
<feOffset dx="-24" dy="8"/>
<feComposite in2="hardAlpha" operator="arithmetic" k2="-1" k3="1"/>
<feColorMatrix type="matrix" values="0 0 0 0 1 0 0 0 0 1 0 0 0 0 1 0 0 0 0.25 0"/>
<feBlend mode="normal" in2="effect1_innerShadow" result="effect2_innerShadow"/>
</filter>
</defs>
</svg>
