<svg width="435" height="366" viewBox="0 0 435 366" fill="none" xmlns="http://www.w3.org/2000/svg">
<g filter="url(#filter0_ii)">
<path d="M46 170C46 156.745 56.7452 146 70 146H262C275.255 146 286 156.745 286 170V330C286 343.255 275.255 354 262 354H86C63.9086 354 46 336.091 46 314V170Z" fill="#E2E2E2"/>
</g>
<path d="M46 170C46 156.745 56.7452 146 70 146H262C275.255 146 286 156.745 286 170V330C286 343.255 275.255 354 262 354H86C63.9086 354 46 336.091 46 314V170Z" stroke="#1F2024" stroke-width="8"/>
<g filter="url(#filter1_i)">
<path d="M46 312H286V314C286 336.091 268.091 354 246 354H86C63.9086 354 46 336.091 46 314V312Z" fill="#ACACAE"/>
</g>
<path d="M46 312H286V314C286 336.091 268.091 354 246 354H86C63.9086 354 46 336.091 46 314V312Z" stroke="#1F2024" stroke-width="8"/>
<g filter="url(#filter2_i)">
<path d="M146 170C146 156.745 156.745 146 170 146H346C359.255 146 370 156.745 370 170V314C370 336.091 352.091 354 330 354H186C163.909 354 146 336.091 146 314V170Z" fill="white"/>
</g>
<path d="M146 170C146 156.745 156.745 146 170 146H346C359.255 146 370 156.745 370 170V314C370 336.091 352.091 354 330 354H186C163.909 354 146 336.091 146 314V170Z" stroke="#1F2024" stroke-width="8"/>
<g filter="url(#filter3_i)">
<path d="M146 312H370V314C370 336.091 352.091 354 330 354H186C163.909 354 146 336.091 146 314V312Z" fill="#E2E2E2"/>
</g>
<path d="M146 312H370V314C370 336.091 352.091 354 330 354H186C163.909 354 146 336.091 146 314V312Z" stroke="#1F2024" stroke-width="8"/>
<g filter="url(#filter4_ddi)">
<path fill-rule="evenodd" clip-rule="evenodd" d="M260.68 191C319.055 191 343.001 217.939 343 238.792C342.999 259.644 310.09 265 260.68 265C211.881 265 175 259.644 175 238.792C175 217.939 200.392 191 260.68 191Z" fill="#1F2024"/>
<path fill-rule="evenodd" clip-rule="evenodd" d="M219.364 235.849C208.66 235.249 200.939 233.04 202.119 230.914C203.299 228.789 212.932 227.552 223.636 228.151C234.34 228.751 242.061 230.96 240.881 233.086C239.701 235.211 230.068 236.448 219.364 235.849Z" fill="#9BCEF1"/>
<path fill-rule="evenodd" clip-rule="evenodd" d="M296.636 235.849C285.932 236.448 276.299 235.211 275.119 233.086C273.939 230.96 281.66 228.751 292.364 228.151C303.068 227.552 312.701 228.789 313.881 230.914C315.061 233.04 307.34 235.249 296.636 235.849Z" fill="#9BCEF1"/>
</g>
<path d="M286 280C290.418 280 294.092 283.627 293.122 287.938C289.507 304.001 275.155 316 258 316C240.845 316 226.493 304.001 222.878 287.938C221.908 283.627 225.582 280 230 280H286Z" fill="#EB0D18" stroke="#1F2024" stroke-width="8"/>
<path d="M258.393 292.061C265.189 299.855 278.41 316 258.393 316C242.542 316 229.068 305.997 224.146 292.061C221.662 273.979 251.598 284.267 258.393 292.061Z" fill="#FF3979" stroke="#1F2024" stroke-width="8"/>
<g filter="url(#filter5_ii)">
<path d="M128.25 63H98L120.89 9.27435C123.653 2.78863 132.847 2.78863 135.61 9.27435L158.5 63H128.25Z" fill="#FE204F"/>
</g>
<path d="M128.25 63H98L120.89 9.27435C123.653 2.78863 132.847 2.78863 135.61 9.27435L158.5 63H128.25Z" stroke="#1F2024" stroke-width="8"/>
<g filter="url(#filter6_ii)">
<path d="M77.5946 74.5946L56.2046 95.9846L34.4006 41.8091C31.7684 35.269 38.269 28.7685 44.809 31.4007L98.9845 53.2047L77.5946 74.5946Z" fill="#FE204F"/>
</g>
<path d="M77.5946 74.5946L56.2046 95.9846L34.4006 41.8091C31.7684 35.269 38.269 28.7685 44.809 31.4007L98.9845 53.2047L77.5946 74.5946Z" stroke="#1F2024" stroke-width="8"/>
<g filter="url(#filter7_ii)">
<path d="M63 117.25V147.5L9.27435 124.61C2.78863 121.847 2.78863 112.653 9.27435 109.89L63 87V117.25Z" fill="#FE204F"/>
</g>
<path d="M63 117.25V147.5L9.27435 124.61C2.78863 121.847 2.78863 112.653 9.27435 109.89L63 87V117.25Z" stroke="#1F2024" stroke-width="8"/>
<g filter="url(#filter8_ii)">
<path d="M63 181.25V211.5L9.27435 188.61C2.78863 185.847 2.78863 176.653 9.27435 173.89L63 151V181.25Z" fill="#FE204F"/>
</g>
<path d="M63 181.25V211.5L9.27435 188.61C2.78863 185.847 2.78863 176.653 9.27435 173.89L63 151V181.25Z" stroke="#1F2024" stroke-width="8"/>
<g filter="url(#filter9_ii)">
<path d="M63 245.25V275.5L9.27435 252.61C2.78863 249.847 2.78863 240.653 9.27435 237.89L63 215V245.25Z" fill="#FE204F"/>
</g>
<path d="M63 245.25V275.5L9.27435 252.61C2.78863 249.847 2.78863 240.653 9.27435 237.89L63 215V245.25Z" stroke="#1F2024" stroke-width="8"/>
<g filter="url(#filter10_dii)">
<path d="M171.744 167.081C169.804 157.196 177.371 148 187.444 148H192.556C202.629 148 210.196 157.196 208.256 167.081L205.472 181.268C204.021 188.665 197.538 194 190 194C182.462 194 175.979 188.665 174.528 181.268L171.744 167.081Z" fill="white"/>
<path d="M171.744 167.081C169.804 157.196 177.371 148 187.444 148H192.556C202.629 148 210.196 157.196 208.256 167.081L205.472 181.268C204.021 188.665 197.538 194 190 194C182.462 194 175.979 188.665 174.528 181.268L171.744 167.081Z" stroke="#1F2024" stroke-width="8"/>
</g>
<g filter="url(#filter11_dii)">
<path d="M219.744 167.081C217.804 157.196 225.371 148 235.444 148H240.556C250.629 148 258.196 157.196 256.256 167.081L253.472 181.268C252.021 188.665 245.538 194 238 194C230.462 194 223.979 188.665 222.528 181.268L219.744 167.081Z" fill="white"/>
<path d="M219.744 167.081C217.804 157.196 225.371 148 235.444 148H240.556C250.629 148 258.196 157.196 256.256 167.081L253.472 181.268C252.021 188.665 245.538 194 238 194C230.462 194 223.979 188.665 222.528 181.268L219.744 167.081Z" stroke="#1F2024" stroke-width="8"/>
</g>
<g filter="url(#filter12_dii)">
<path d="M267.744 167.081C265.804 157.196 273.371 148 283.444 148H288.556C298.629 148 306.196 157.196 304.256 167.081L301.472 181.268C300.021 188.665 293.538 194 286 194C278.462 194 271.979 188.665 270.528 181.268L267.744 167.081Z" fill="white"/>
<path d="M267.744 167.081C265.804 157.196 273.371 148 283.444 148H288.556C298.629 148 306.196 157.196 304.256 167.081L301.472 181.268C300.021 188.665 293.538 194 286 194C278.462 194 271.979 188.665 270.528 181.268L267.744 167.081Z" stroke="#1F2024" stroke-width="8"/>
</g>
<g filter="url(#filter13_dii)">
<path d="M315.744 167.081C313.804 157.196 321.371 148 331.444 148H336.556C346.629 148 354.196 157.196 352.256 167.081L349.472 181.268C348.021 188.665 341.538 194 334 194C326.462 194 319.979 188.665 318.528 181.268L315.744 167.081Z" fill="white"/>
<path d="M315.744 167.081C313.804 157.196 321.371 148 331.444 148H336.556C346.629 148 354.196 157.196 352.256 167.081L349.472 181.268C348.021 188.665 341.538 194 334 194C326.462 194 319.979 188.665 318.528 181.268L315.744 167.081Z" stroke="#1F2024" stroke-width="8"/>
</g>
<g filter="url(#filter14_dii)">
<path d="M363.744 167.081C361.804 157.196 369.371 148 379.444 148H384.556C394.629 148 402.196 157.196 400.256 167.081L397.472 181.268C396.021 188.665 389.538 194 382 194C374.462 194 367.979 188.665 366.528 181.268L363.744 167.081Z" fill="white"/>
<path d="M363.744 167.081C361.804 157.196 369.371 148 379.444 148H384.556C394.629 148 402.196 157.196 400.256 167.081L397.472 181.268C396.021 188.665 389.538 194 382 194C374.462 194 367.979 188.665 366.528 181.268L363.744 167.081Z" stroke="#1F2024" stroke-width="8"/>
</g>
<g filter="url(#filter15_dii)">
<path d="M171.744 334.919C169.804 344.804 177.371 354 187.444 354H192.556C202.629 354 210.196 344.804 208.256 334.919L205.472 320.732C204.021 313.335 197.538 308 190 308C182.462 308 175.979 313.335 174.528 320.732L171.744 334.919Z" fill="white"/>
<path d="M171.744 334.919C169.804 344.804 177.371 354 187.444 354H192.556C202.629 354 210.196 344.804 208.256 334.919L205.472 320.732C204.021 313.335 197.538 308 190 308C182.462 308 175.979 313.335 174.528 320.732L171.744 334.919Z" stroke="#1F2024" stroke-width="8"/>
</g>
<g filter="url(#filter16_dii)">
<path d="M223.744 334.919C221.804 344.804 229.371 354 239.444 354H244.556C254.629 354 262.196 344.804 260.256 334.919L257.472 320.732C256.021 313.335 249.538 308 242 308C234.462 308 227.979 313.335 226.528 320.732L223.744 334.919Z" fill="white"/>
<path d="M223.744 334.919C221.804 344.804 229.371 354 239.444 354H244.556C254.629 354 262.196 344.804 260.256 334.919L257.472 320.732C256.021 313.335 249.538 308 242 308C234.462 308 227.979 313.335 226.528 320.732L223.744 334.919Z" stroke="#1F2024" stroke-width="8"/>
</g>
<g filter="url(#filter17_dii)">
<path d="M275.744 334.919C273.804 344.804 281.371 354 291.444 354H296.556C306.629 354 314.196 344.804 312.256 334.919L309.472 320.732C308.021 313.335 301.538 308 294 308C286.462 308 279.979 313.335 278.528 320.732L275.744 334.919Z" fill="white"/>
<path d="M275.744 334.919C273.804 344.804 281.371 354 291.444 354H296.556C306.629 354 314.196 344.804 312.256 334.919L309.472 320.732C308.021 313.335 301.538 308 294 308C286.462 308 279.979 313.335 278.528 320.732L275.744 334.919Z" stroke="#1F2024" stroke-width="8"/>
</g>
<g filter="url(#filter18_dii)">
<path d="M327.744 334.919C325.804 344.804 333.371 354 343.444 354H348.556C358.629 354 366.196 344.804 364.256 334.919L361.472 320.732C360.021 313.335 353.538 308 346 308C338.462 308 331.979 313.335 330.528 320.732L327.744 334.919Z" fill="white"/>
<path d="M327.744 334.919C325.804 344.804 333.371 354 343.444 354H348.556C358.629 354 366.196 344.804 364.256 334.919L361.472 320.732C360.021 313.335 353.538 308 346 308C338.462 308 331.979 313.335 330.528 320.732L327.744 334.919Z" stroke="#1F2024" stroke-width="8"/>
</g>
<g filter="url(#filter19_ii)">
<path fill-rule="evenodd" clip-rule="evenodd" d="M123 113C87.6538 113 59 141.654 59 177V330C59 343.255 69.7452 354 83 354H343C353.45 354 362.34 347.322 365.634 338H179C156.909 338 139 320.091 139 298V202C139 179.909 156.909 162 179 162H365.232C358.482 133.89 333.18 113 303 113H123Z" fill="#DE7E25"/>
</g>
<path d="M365.634 338L369.406 339.333L371.291 334H365.634V338ZM365.232 162V166H370.307L369.122 161.066L365.232 162ZM63 177C63 143.863 89.8629 117 123 117V109C85.4446 109 55 139.445 55 177H63ZM63 330V177H55V330H63ZM83 350C71.9543 350 63 341.046 63 330H55C55 345.464 67.536 358 83 358V350ZM343 350H83V358H343V350ZM361.863 336.667C359.115 344.44 351.702 350 343 350V358C355.198 358 365.564 350.203 369.406 339.333L361.863 336.667ZM365.634 334H179V342H365.634V334ZM179 334C159.118 334 143 317.882 143 298H135C135 322.301 154.699 342 179 342V334ZM143 298V202H135V298H143ZM143 202C143 182.118 159.118 166 179 166V158C154.699 158 135 177.699 135 202H143ZM179 166H365.232V158H179V166ZM303 117C331.289 117 355.014 136.581 361.343 162.934L369.122 161.066C361.949 131.199 335.072 109 303 109V117ZM123 117H303V109H123V117Z" fill="#1F2024"/>
<g filter="url(#filter20_ii)">
<path fill-rule="evenodd" clip-rule="evenodd" d="M107 53C71.6538 53 43 81.6538 43 117V146V147V275V314C43 340.51 64.4903 362 91 362H375C386.898 362 396.774 353.342 398.671 341.983C399.035 339.804 397.209 338 395 338H163C140.909 338 123 320.091 123 298V202C123 179.909 140.909 162 163 162H427C429.209 162 431 160.209 431 158V146C431 144.826 430.949 143.663 430.85 142.514C430.791 141.832 430.805 141.146 430.875 140.465C430.958 139.654 431 138.832 431 138V134C431 111.909 413.091 94 391 94H309.909C301.371 94 293.642 97.4616 288.048 103.058C286.299 104.808 284.008 106 281.534 106H248.058C242.843 75.8952 216.595 53 185 53H107Z" fill="#EDB146"/>
</g>
<path d="M398.671 341.983L394.726 341.324V341.324L398.671 341.983ZM430.85 142.514L434.835 142.17V142.17L430.85 142.514ZM430.875 140.465L434.854 140.871V140.871L430.875 140.465ZM288.048 103.058L290.877 105.886L288.048 103.058ZM248.058 106L244.117 106.683L244.692 110H248.058V106ZM47 117C47 83.8629 73.8629 57 107 57V49C69.4446 49 39 79.4446 39 117H47ZM47 146V117H39V146H47ZM39 146V147H47V146H39ZM39 147V275H47V147H39ZM39 275V314H47V275H39ZM39 314C39 342.719 62.2812 366 91 366V358C66.6995 358 47 338.301 47 314H39ZM91 366H375V358H91V366ZM375 366C388.885 366 400.402 355.898 402.616 342.642L394.726 341.324C393.145 350.787 384.911 358 375 358V366ZM402.616 342.642C403.463 337.572 399.2 334 395 334V342C395.021 342 394.977 342.01 394.9 341.929C394.857 341.883 394.797 341.801 394.757 341.678C394.715 341.546 394.71 341.418 394.726 341.324L402.616 342.642ZM395 334H163V342H395V334ZM163 334C143.118 334 127 317.882 127 298H119C119 322.301 138.699 342 163 342V334ZM127 298V202H119V298H127ZM127 202C127 182.118 143.118 166 163 166V158C138.699 158 119 177.699 119 202H127ZM163 166H427V158H163V166ZM427 166C431.418 166 435 162.418 435 158H427V166ZM435 158V146H427V158H435ZM435 146C435 144.711 434.944 143.433 434.835 142.17L426.865 142.858C426.954 143.893 427 144.941 427 146H435ZM434.835 142.17C434.801 141.771 434.807 141.338 434.854 140.871L426.896 140.059C426.804 140.954 426.782 141.893 426.865 142.858L434.835 142.17ZM434.854 140.871C434.951 139.926 435 138.968 435 138H427C427 138.696 426.965 139.383 426.896 140.059L434.854 140.871ZM435 138V134H427V138H435ZM435 134C435 109.699 415.301 90 391 90V98C410.882 98 427 114.118 427 134H435ZM391 90H309.909V98H391V90ZM309.909 90C300.268 90 291.533 93.914 285.219 100.23L290.877 105.886C295.752 101.009 302.475 98 309.909 98V90ZM285.219 100.23C284.021 101.429 282.696 102 281.534 102V110C285.321 110 288.576 108.188 290.877 105.886L285.219 100.23ZM281.534 102H248.058V110H281.534V102ZM185 57C214.617 57 239.229 78.4623 244.117 106.683L252 105.317C246.458 73.3281 218.574 49 185 49V57ZM107 57H185V49H107V57Z" fill="#1F2024"/>
<path d="M149 107.013C145 90.9957 121 90.9957 117 107.013" stroke="#1F2024" stroke-width="10" stroke-linecap="round" stroke-linejoin="round"/>
<path d="M116 106.255C107.614 101.764 104.048 98.2963 100.5 89.7549" stroke="#1F2024" stroke-width="8" stroke-linecap="round" stroke-linejoin="round"/>
<path d="M124.5 97.7549C118.379 93.989 115.307 89.5867 112.5 82.7549" stroke="#1F2024" stroke-width="8" stroke-linecap="round" stroke-linejoin="round"/>
<path d="M177 107.013C181 90.9957 205 90.9957 209 107.013" stroke="#1F2024" stroke-width="10" stroke-linecap="round" stroke-linejoin="round"/>
<path d="M210 106.255C218.386 101.764 221.952 98.2963 225.5 89.7549" stroke="#1F2024" stroke-width="8" stroke-linecap="round" stroke-linejoin="round"/>
<path d="M201.5 97.7549C207.621 93.989 210.693 89.5867 213.5 82.7549" stroke="#1F2024" stroke-width="8" stroke-linecap="round" stroke-linejoin="round"/>
<g filter="url(#filter21_di)">
<circle cx="381" cy="128" r="10" fill="#4A4A4E"/>
<circle cx="381" cy="128" r="10" stroke="#1F2024" stroke-width="8"/>
</g>
<g filter="url(#filter22_di)">
<circle cx="329" cy="128" r="10" fill="#4A4A4E"/>
<circle cx="329" cy="128" r="10" stroke="#1F2024" stroke-width="8"/>
</g>
<g filter="url(#filter23_d)">
<g filter="url(#filter24_i)">
<path d="M31 161C31 143.327 45.3269 129 63 129H79C96.6731 129 111 143.327 111 161C111 178.673 96.6731 193 79 193H63C45.3269 193 31 178.673 31 161Z" fill="#E2E2E2"/>
</g>
<path d="M31 161C31 143.327 45.3269 129 63 129H79C96.6731 129 111 143.327 111 161C111 178.673 96.6731 193 79 193H63C45.3269 193 31 178.673 31 161Z" stroke="#1F2024" stroke-width="8"/>
<g filter="url(#filter25_ii)">
<path d="M31 161C31 143.327 45.3269 129 63 129C80.6731 129 95 143.327 95 161C95 178.673 80.6731 193 63 193C45.3269 193 31 178.673 31 161Z" fill="#ACACAE"/>
</g>
<path d="M31 161C31 143.327 45.3269 129 63 129C80.6731 129 95 143.327 95 161C95 178.673 80.6731 193 63 193C45.3269 193 31 178.673 31 161Z" stroke="#1F2024" stroke-width="8"/>
<line x1="72" y1="191" x2="72" y2="231" stroke="#1F2024" stroke-width="8"/>
<g filter="url(#filter26_ii)">
<path d="M68 217L104 265L68 313L32 265L68 217Z" fill="#EB0D18"/>
</g>
<path d="M68 217L104 265L68 313L32 265L68 217Z" stroke="#1F2024" stroke-width="8"/>
</g>
<defs>
<filter id="filter0_ii" x="42" y="142" width="248" height="216" filterUnits="userSpaceOnUse" color-interpolation-filters="sRGB">
<feFlood flood-opacity="0" result="BackgroundImageFix"/>
<feBlend mode="normal" in="SourceGraphic" in2="BackgroundImageFix" result="shape"/>
<feColorMatrix in="SourceAlpha" type="matrix" values="0 0 0 0 0 0 0 0 0 0 0 0 0 0 0 0 0 0 127 0" result="hardAlpha"/>
<feOffset dy="-16"/>
<feComposite in2="hardAlpha" operator="arithmetic" k2="-1" k3="1"/>
<feColorMatrix type="matrix" values="0 0 0 0 0 0 0 0 0 0 0 0 0 0 0 0 0 0 0.25 0"/>
<feBlend mode="normal" in2="shape" result="effect1_innerShadow"/>
<feColorMatrix in="SourceAlpha" type="matrix" values="0 0 0 0 0 0 0 0 0 0 0 0 0 0 0 0 0 0 127 0" result="hardAlpha"/>
<feOffset dy="16"/>
<feComposite in2="hardAlpha" operator="arithmetic" k2="-1" k3="1"/>
<feColorMatrix type="matrix" values="0 0 0 0 1 0 0 0 0 1 0 0 0 0 1 0 0 0 0.25 0"/>
<feBlend mode="normal" in2="effect1_innerShadow" result="effect2_innerShadow"/>
</filter>
<filter id="filter1_i" x="42" y="308" width="248" height="50" filterUnits="userSpaceOnUse" color-interpolation-filters="sRGB">
<feFlood flood-opacity="0" result="BackgroundImageFix"/>
<feBlend mode="normal" in="SourceGraphic" in2="BackgroundImageFix" result="shape"/>
<feColorMatrix in="SourceAlpha" type="matrix" values="0 0 0 0 0 0 0 0 0 0 0 0 0 0 0 0 0 0 127 0" result="hardAlpha"/>
<feOffset dy="-8"/>
<feComposite in2="hardAlpha" operator="arithmetic" k2="-1" k3="1"/>
<feColorMatrix type="matrix" values="0 0 0 0 0 0 0 0 0 0 0 0 0 0 0 0 0 0 0.25 0"/>
<feBlend mode="normal" in2="shape" result="effect1_innerShadow"/>
</filter>
<filter id="filter2_i" x="142" y="142" width="232" height="216" filterUnits="userSpaceOnUse" color-interpolation-filters="sRGB">
<feFlood flood-opacity="0" result="BackgroundImageFix"/>
<feBlend mode="normal" in="SourceGraphic" in2="BackgroundImageFix" result="shape"/>
<feColorMatrix in="SourceAlpha" type="matrix" values="0 0 0 0 0 0 0 0 0 0 0 0 0 0 0 0 0 0 127 0" result="hardAlpha"/>
<feOffset dx="-24" dy="8"/>
<feComposite in2="hardAlpha" operator="arithmetic" k2="-1" k3="1"/>
<feColorMatrix type="matrix" values="0 0 0 0 1 0 0 0 0 1 0 0 0 0 1 0 0 0 0.25 0"/>
<feBlend mode="normal" in2="shape" result="effect1_innerShadow"/>
</filter>
<filter id="filter3_i" x="142" y="308" width="232" height="50" filterUnits="userSpaceOnUse" color-interpolation-filters="sRGB">
<feFlood flood-opacity="0" result="BackgroundImageFix"/>
<feBlend mode="normal" in="SourceGraphic" in2="BackgroundImageFix" result="shape"/>
<feColorMatrix in="SourceAlpha" type="matrix" values="0 0 0 0 0 0 0 0 0 0 0 0 0 0 0 0 0 0 127 0" result="hardAlpha"/>
<feOffset dx="-24" dy="8"/>
<feComposite in2="hardAlpha" operator="arithmetic" k2="-1" k3="1"/>
<feColorMatrix type="matrix" values="0 0 0 0 1 0 0 0 0 1 0 0 0 0 1 0 0 0 0.25 0"/>
<feBlend mode="normal" in2="shape" result="effect1_innerShadow"/>
</filter>
<filter id="filter4_ddi" x="170" y="191" width="177" height="74" filterUnits="userSpaceOnUse" color-interpolation-filters="sRGB">
<feFlood flood-opacity="0" result="BackgroundImageFix"/>
<feColorMatrix in="SourceAlpha" type="matrix" values="0 0 0 0 0 0 0 0 0 0 0 0 0 0 0 0 0 0 127 0" result="hardAlpha"/>
<feOffset dx="-4"/>
<feColorMatrix type="matrix" values="0 0 0 0 1 0 0 0 0 1 0 0 0 0 1 0 0 0 0.25 0"/>
<feBlend mode="normal" in2="BackgroundImageFix" result="effect1_dropShadow"/>
<feColorMatrix in="SourceAlpha" type="matrix" values="0 0 0 0 0 0 0 0 0 0 0 0 0 0 0 0 0 0 127 0" result="hardAlpha"/>
<feOffset dx="4"/>
<feColorMatrix type="matrix" values="0 0 0 0 0 0 0 0 0 0 0 0 0 0 0 0 0 0 0.25 0"/>
<feBlend mode="normal" in2="effect1_dropShadow" result="effect2_dropShadow"/>
<feBlend mode="normal" in="SourceGraphic" in2="effect2_dropShadow" result="shape"/>
<feColorMatrix in="SourceAlpha" type="matrix" values="0 0 0 0 0 0 0 0 0 0 0 0 0 0 0 0 0 0 127 0" result="hardAlpha"/>
<feOffset dx="-4"/>
<feComposite in2="hardAlpha" operator="arithmetic" k2="-1" k3="1"/>
<feColorMatrix type="matrix" values="0 0 0 0 0 0 0 0 0 0 0 0 0 0 0 0 0 0 0.25 0"/>
<feBlend mode="normal" in2="shape" result="effect3_innerShadow"/>
</filter>
<filter id="filter5_ii" x="91.9478" y="0.410156" width="72.6043" height="66.5899" filterUnits="userSpaceOnUse" color-interpolation-filters="sRGB">
<feFlood flood-opacity="0" result="BackgroundImageFix"/>
<feBlend mode="normal" in="SourceGraphic" in2="BackgroundImageFix" result="shape"/>
<feColorMatrix in="SourceAlpha" type="matrix" values="0 0 0 0 0 0 0 0 0 0 0 0 0 0 0 0 0 0 127 0" result="hardAlpha"/>
<feOffset dx="16"/>
<feComposite in2="hardAlpha" operator="arithmetic" k2="-1" k3="1"/>
<feColorMatrix type="matrix" values="0 0 0 0 0 0 0 0 0 0 0 0 0 0 0 0 0 0 0.25 0"/>
<feBlend mode="normal" in2="shape" result="effect1_innerShadow"/>
<feColorMatrix in="SourceAlpha" type="matrix" values="0 0 0 0 0 0 0 0 0 0 0 0 0 0 0 0 0 0 127 0" result="hardAlpha"/>
<feOffset dx="-24" dy="8"/>
<feComposite in2="hardAlpha" operator="arithmetic" k2="-1" k3="1"/>
<feColorMatrix type="matrix" values="0 0 0 0 1 0 0 0 0 1 0 0 0 0 1 0 0 0 0.25 0"/>
<feBlend mode="normal" in2="effect1_innerShadow" result="effect2_innerShadow"/>
</filter>
<filter id="filter6_ii" x="29.7905" y="26.7905" width="76.302" height="76.302" filterUnits="userSpaceOnUse" color-interpolation-filters="sRGB">
<feFlood flood-opacity="0" result="BackgroundImageFix"/>
<feBlend mode="normal" in="SourceGraphic" in2="BackgroundImageFix" result="shape"/>
<feColorMatrix in="SourceAlpha" type="matrix" values="0 0 0 0 0 0 0 0 0 0 0 0 0 0 0 0 0 0 127 0" result="hardAlpha"/>
<feOffset dx="16"/>
<feComposite in2="hardAlpha" operator="arithmetic" k2="-1" k3="1"/>
<feColorMatrix type="matrix" values="0 0 0 0 0 0 0 0 0 0 0 0 0 0 0 0 0 0 0.25 0"/>
<feBlend mode="normal" in2="shape" result="effect1_innerShadow"/>
<feColorMatrix in="SourceAlpha" type="matrix" values="0 0 0 0 0 0 0 0 0 0 0 0 0 0 0 0 0 0 127 0" result="hardAlpha"/>
<feOffset dx="-24" dy="8"/>
<feComposite in2="hardAlpha" operator="arithmetic" k2="-1" k3="1"/>
<feColorMatrix type="matrix" values="0 0 0 0 1 0 0 0 0 1 0 0 0 0 1 0 0 0 0.25 0"/>
<feBlend mode="normal" in2="effect1_innerShadow" result="effect2_innerShadow"/>
</filter>
<filter id="filter7_ii" x="0.410156" y="80.9478" width="66.5899" height="72.6043" filterUnits="userSpaceOnUse" color-interpolation-filters="sRGB">
<feFlood flood-opacity="0" result="BackgroundImageFix"/>
<feBlend mode="normal" in="SourceGraphic" in2="BackgroundImageFix" result="shape"/>
<feColorMatrix in="SourceAlpha" type="matrix" values="0 0 0 0 0 0 0 0 0 0 0 0 0 0 0 0 0 0 127 0" result="hardAlpha"/>
<feOffset dx="16"/>
<feComposite in2="hardAlpha" operator="arithmetic" k2="-1" k3="1"/>
<feColorMatrix type="matrix" values="0 0 0 0 0 0 0 0 0 0 0 0 0 0 0 0 0 0 0.25 0"/>
<feBlend mode="normal" in2="shape" result="effect1_innerShadow"/>
<feColorMatrix in="SourceAlpha" type="matrix" values="0 0 0 0 0 0 0 0 0 0 0 0 0 0 0 0 0 0 127 0" result="hardAlpha"/>
<feOffset dx="-24" dy="8"/>
<feComposite in2="hardAlpha" operator="arithmetic" k2="-1" k3="1"/>
<feColorMatrix type="matrix" values="0 0 0 0 1 0 0 0 0 1 0 0 0 0 1 0 0 0 0.25 0"/>
<feBlend mode="normal" in2="effect1_innerShadow" result="effect2_innerShadow"/>
</filter>
<filter id="filter8_ii" x="0.410156" y="144.948" width="66.5899" height="72.6043" filterUnits="userSpaceOnUse" color-interpolation-filters="sRGB">
<feFlood flood-opacity="0" result="BackgroundImageFix"/>
<feBlend mode="normal" in="SourceGraphic" in2="BackgroundImageFix" result="shape"/>
<feColorMatrix in="SourceAlpha" type="matrix" values="0 0 0 0 0 0 0 0 0 0 0 0 0 0 0 0 0 0 127 0" result="hardAlpha"/>
<feOffset dx="16"/>
<feComposite in2="hardAlpha" operator="arithmetic" k2="-1" k3="1"/>
<feColorMatrix type="matrix" values="0 0 0 0 0 0 0 0 0 0 0 0 0 0 0 0 0 0 0.25 0"/>
<feBlend mode="normal" in2="shape" result="effect1_innerShadow"/>
<feColorMatrix in="SourceAlpha" type="matrix" values="0 0 0 0 0 0 0 0 0 0 0 0 0 0 0 0 0 0 127 0" result="hardAlpha"/>
<feOffset dx="-24" dy="8"/>
<feComposite in2="hardAlpha" operator="arithmetic" k2="-1" k3="1"/>
<feColorMatrix type="matrix" values="0 0 0 0 1 0 0 0 0 1 0 0 0 0 1 0 0 0 0.25 0"/>
<feBlend mode="normal" in2="effect1_innerShadow" result="effect2_innerShadow"/>
</filter>
<filter id="filter9_ii" x="0.410156" y="208.948" width="66.5899" height="72.6043" filterUnits="userSpaceOnUse" color-interpolation-filters="sRGB">
<feFlood flood-opacity="0" result="BackgroundImageFix"/>
<feBlend mode="normal" in="SourceGraphic" in2="BackgroundImageFix" result="shape"/>
<feColorMatrix in="SourceAlpha" type="matrix" values="0 0 0 0 0 0 0 0 0 0 0 0 0 0 0 0 0 0 127 0" result="hardAlpha"/>
<feOffset dx="16"/>
<feComposite in2="hardAlpha" operator="arithmetic" k2="-1" k3="1"/>
<feColorMatrix type="matrix" values="0 0 0 0 0 0 0 0 0 0 0 0 0 0 0 0 0 0 0.25 0"/>
<feBlend mode="normal" in2="shape" result="effect1_innerShadow"/>
<feColorMatrix in="SourceAlpha" type="matrix" values="0 0 0 0 0 0 0 0 0 0 0 0 0 0 0 0 0 0 127 0" result="hardAlpha"/>
<feOffset dx="-24" dy="8"/>
<feComposite in2="hardAlpha" operator="arithmetic" k2="-1" k3="1"/>
<feColorMatrix type="matrix" values="0 0 0 0 1 0 0 0 0 1 0 0 0 0 1 0 0 0 0.25 0"/>
<feBlend mode="normal" in2="effect1_innerShadow" result="effect2_innerShadow"/>
</filter>
<filter id="filter10_dii" x="163.438" y="144" width="49.1243" height="58" filterUnits="userSpaceOnUse" color-interpolation-filters="sRGB">
<feFlood flood-opacity="0" result="BackgroundImageFix"/>
<feColorMatrix in="SourceAlpha" type="matrix" values="0 0 0 0 0 0 0 0 0 0 0 0 0 0 0 0 0 0 127 0" result="hardAlpha"/>
<feOffset dx="-4" dy="4"/>
<feColorMatrix type="matrix" values="0 0 0 0 0 0 0 0 0 0 0 0 0 0 0 0 0 0 0.25 0"/>
<feBlend mode="normal" in2="BackgroundImageFix" result="effect1_dropShadow"/>
<feBlend mode="normal" in="SourceGraphic" in2="effect1_dropShadow" result="shape"/>
<feColorMatrix in="SourceAlpha" type="matrix" values="0 0 0 0 0 0 0 0 0 0 0 0 0 0 0 0 0 0 127 0" result="hardAlpha"/>
<feOffset dx="16"/>
<feComposite in2="hardAlpha" operator="arithmetic" k2="-1" k3="1"/>
<feColorMatrix type="matrix" values="0 0 0 0 0 0 0 0 0 0 0 0 0 0 0 0 0 0 0.25 0"/>
<feBlend mode="normal" in2="shape" result="effect2_innerShadow"/>
<feColorMatrix in="SourceAlpha" type="matrix" values="0 0 0 0 0 0 0 0 0 0 0 0 0 0 0 0 0 0 127 0" result="hardAlpha"/>
<feOffset dx="-16" dy="8"/>
<feComposite in2="hardAlpha" operator="arithmetic" k2="-1" k3="1"/>
<feColorMatrix type="matrix" values="0 0 0 0 1 0 0 0 0 1 0 0 0 0 1 0 0 0 0.25 0"/>
<feBlend mode="normal" in2="effect2_innerShadow" result="effect3_innerShadow"/>
</filter>
<filter id="filter11_dii" x="211.438" y="144" width="49.1243" height="58" filterUnits="userSpaceOnUse" color-interpolation-filters="sRGB">
<feFlood flood-opacity="0" result="BackgroundImageFix"/>
<feColorMatrix in="SourceAlpha" type="matrix" values="0 0 0 0 0 0 0 0 0 0 0 0 0 0 0 0 0 0 127 0" result="hardAlpha"/>
<feOffset dx="-4" dy="4"/>
<feColorMatrix type="matrix" values="0 0 0 0 0 0 0 0 0 0 0 0 0 0 0 0 0 0 0.25 0"/>
<feBlend mode="normal" in2="BackgroundImageFix" result="effect1_dropShadow"/>
<feBlend mode="normal" in="SourceGraphic" in2="effect1_dropShadow" result="shape"/>
<feColorMatrix in="SourceAlpha" type="matrix" values="0 0 0 0 0 0 0 0 0 0 0 0 0 0 0 0 0 0 127 0" result="hardAlpha"/>
<feOffset dx="16"/>
<feComposite in2="hardAlpha" operator="arithmetic" k2="-1" k3="1"/>
<feColorMatrix type="matrix" values="0 0 0 0 0 0 0 0 0 0 0 0 0 0 0 0 0 0 0.25 0"/>
<feBlend mode="normal" in2="shape" result="effect2_innerShadow"/>
<feColorMatrix in="SourceAlpha" type="matrix" values="0 0 0 0 0 0 0 0 0 0 0 0 0 0 0 0 0 0 127 0" result="hardAlpha"/>
<feOffset dx="-16" dy="8"/>
<feComposite in2="hardAlpha" operator="arithmetic" k2="-1" k3="1"/>
<feColorMatrix type="matrix" values="0 0 0 0 1 0 0 0 0 1 0 0 0 0 1 0 0 0 0.25 0"/>
<feBlend mode="normal" in2="effect2_innerShadow" result="effect3_innerShadow"/>
</filter>
<filter id="filter12_dii" x="259.438" y="144" width="49.1243" height="58" filterUnits="userSpaceOnUse" color-interpolation-filters="sRGB">
<feFlood flood-opacity="0" result="BackgroundImageFix"/>
<feColorMatrix in="SourceAlpha" type="matrix" values="0 0 0 0 0 0 0 0 0 0 0 0 0 0 0 0 0 0 127 0" result="hardAlpha"/>
<feOffset dx="-4" dy="4"/>
<feColorMatrix type="matrix" values="0 0 0 0 0 0 0 0 0 0 0 0 0 0 0 0 0 0 0.25 0"/>
<feBlend mode="normal" in2="BackgroundImageFix" result="effect1_dropShadow"/>
<feBlend mode="normal" in="SourceGraphic" in2="effect1_dropShadow" result="shape"/>
<feColorMatrix in="SourceAlpha" type="matrix" values="0 0 0 0 0 0 0 0 0 0 0 0 0 0 0 0 0 0 127 0" result="hardAlpha"/>
<feOffset dx="16"/>
<feComposite in2="hardAlpha" operator="arithmetic" k2="-1" k3="1"/>
<feColorMatrix type="matrix" values="0 0 0 0 0 0 0 0 0 0 0 0 0 0 0 0 0 0 0.25 0"/>
<feBlend mode="normal" in2="shape" result="effect2_innerShadow"/>
<feColorMatrix in="SourceAlpha" type="matrix" values="0 0 0 0 0 0 0 0 0 0 0 0 0 0 0 0 0 0 127 0" result="hardAlpha"/>
<feOffset dx="-16" dy="8"/>
<feComposite in2="hardAlpha" operator="arithmetic" k2="-1" k3="1"/>
<feColorMatrix type="matrix" values="0 0 0 0 1 0 0 0 0 1 0 0 0 0 1 0 0 0 0.25 0"/>
<feBlend mode="normal" in2="effect2_innerShadow" result="effect3_innerShadow"/>
</filter>
<filter id="filter13_dii" x="307.438" y="144" width="49.1243" height="58" filterUnits="userSpaceOnUse" color-interpolation-filters="sRGB">
<feFlood flood-opacity="0" result="BackgroundImageFix"/>
<feColorMatrix in="SourceAlpha" type="matrix" values="0 0 0 0 0 0 0 0 0 0 0 0 0 0 0 0 0 0 127 0" result="hardAlpha"/>
<feOffset dx="-4" dy="4"/>
<feColorMatrix type="matrix" values="0 0 0 0 0 0 0 0 0 0 0 0 0 0 0 0 0 0 0.25 0"/>
<feBlend mode="normal" in2="BackgroundImageFix" result="effect1_dropShadow"/>
<feBlend mode="normal" in="SourceGraphic" in2="effect1_dropShadow" result="shape"/>
<feColorMatrix in="SourceAlpha" type="matrix" values="0 0 0 0 0 0 0 0 0 0 0 0 0 0 0 0 0 0 127 0" result="hardAlpha"/>
<feOffset dx="16"/>
<feComposite in2="hardAlpha" operator="arithmetic" k2="-1" k3="1"/>
<feColorMatrix type="matrix" values="0 0 0 0 0 0 0 0 0 0 0 0 0 0 0 0 0 0 0.25 0"/>
<feBlend mode="normal" in2="shape" result="effect2_innerShadow"/>
<feColorMatrix in="SourceAlpha" type="matrix" values="0 0 0 0 0 0 0 0 0 0 0 0 0 0 0 0 0 0 127 0" result="hardAlpha"/>
<feOffset dx="-16" dy="8"/>
<feComposite in2="hardAlpha" operator="arithmetic" k2="-1" k3="1"/>
<feColorMatrix type="matrix" values="0 0 0 0 1 0 0 0 0 1 0 0 0 0 1 0 0 0 0.25 0"/>
<feBlend mode="normal" in2="effect2_innerShadow" result="effect3_innerShadow"/>
</filter>
<filter id="filter14_dii" x="355.438" y="144" width="49.1243" height="58" filterUnits="userSpaceOnUse" color-interpolation-filters="sRGB">
<feFlood flood-opacity="0" result="BackgroundImageFix"/>
<feColorMatrix in="SourceAlpha" type="matrix" values="0 0 0 0 0 0 0 0 0 0 0 0 0 0 0 0 0 0 127 0" result="hardAlpha"/>
<feOffset dx="-4" dy="4"/>
<feColorMatrix type="matrix" values="0 0 0 0 0 0 0 0 0 0 0 0 0 0 0 0 0 0 0.25 0"/>
<feBlend mode="normal" in2="BackgroundImageFix" result="effect1_dropShadow"/>
<feBlend mode="normal" in="SourceGraphic" in2="effect1_dropShadow" result="shape"/>
<feColorMatrix in="SourceAlpha" type="matrix" values="0 0 0 0 0 0 0 0 0 0 0 0 0 0 0 0 0 0 127 0" result="hardAlpha"/>
<feOffset dx="16"/>
<feComposite in2="hardAlpha" operator="arithmetic" k2="-1" k3="1"/>
<feColorMatrix type="matrix" values="0 0 0 0 0 0 0 0 0 0 0 0 0 0 0 0 0 0 0.25 0"/>
<feBlend mode="normal" in2="shape" result="effect2_innerShadow"/>
<feColorMatrix in="SourceAlpha" type="matrix" values="0 0 0 0 0 0 0 0 0 0 0 0 0 0 0 0 0 0 127 0" result="hardAlpha"/>
<feOffset dx="-16" dy="8"/>
<feComposite in2="hardAlpha" operator="arithmetic" k2="-1" k3="1"/>
<feColorMatrix type="matrix" values="0 0 0 0 1 0 0 0 0 1 0 0 0 0 1 0 0 0 0.25 0"/>
<feBlend mode="normal" in2="effect2_innerShadow" result="effect3_innerShadow"/>
</filter>
<filter id="filter15_dii" x="163.438" y="304" width="49.1243" height="58" filterUnits="userSpaceOnUse" color-interpolation-filters="sRGB">
<feFlood flood-opacity="0" result="BackgroundImageFix"/>
<feColorMatrix in="SourceAlpha" type="matrix" values="0 0 0 0 0 0 0 0 0 0 0 0 0 0 0 0 0 0 127 0" result="hardAlpha"/>
<feOffset dx="-4" dy="4"/>
<feColorMatrix type="matrix" values="0 0 0 0 0 0 0 0 0 0 0 0 0 0 0 0 0 0 0.25 0"/>
<feBlend mode="normal" in2="BackgroundImageFix" result="effect1_dropShadow"/>
<feBlend mode="normal" in="SourceGraphic" in2="effect1_dropShadow" result="shape"/>
<feColorMatrix in="SourceAlpha" type="matrix" values="0 0 0 0 0 0 0 0 0 0 0 0 0 0 0 0 0 0 127 0" result="hardAlpha"/>
<feOffset dx="16"/>
<feComposite in2="hardAlpha" operator="arithmetic" k2="-1" k3="1"/>
<feColorMatrix type="matrix" values="0 0 0 0 0 0 0 0 0 0 0 0 0 0 0 0 0 0 0.25 0"/>
<feBlend mode="normal" in2="shape" result="effect2_innerShadow"/>
<feColorMatrix in="SourceAlpha" type="matrix" values="0 0 0 0 0 0 0 0 0 0 0 0 0 0 0 0 0 0 127 0" result="hardAlpha"/>
<feOffset dx="-16" dy="8"/>
<feComposite in2="hardAlpha" operator="arithmetic" k2="-1" k3="1"/>
<feColorMatrix type="matrix" values="0 0 0 0 1 0 0 0 0 1 0 0 0 0 1 0 0 0 0.25 0"/>
<feBlend mode="normal" in2="effect2_innerShadow" result="effect3_innerShadow"/>
</filter>
<filter id="filter16_dii" x="215.438" y="304" width="49.1243" height="58" filterUnits="userSpaceOnUse" color-interpolation-filters="sRGB">
<feFlood flood-opacity="0" result="BackgroundImageFix"/>
<feColorMatrix in="SourceAlpha" type="matrix" values="0 0 0 0 0 0 0 0 0 0 0 0 0 0 0 0 0 0 127 0" result="hardAlpha"/>
<feOffset dx="-4" dy="4"/>
<feColorMatrix type="matrix" values="0 0 0 0 0 0 0 0 0 0 0 0 0 0 0 0 0 0 0.25 0"/>
<feBlend mode="normal" in2="BackgroundImageFix" result="effect1_dropShadow"/>
<feBlend mode="normal" in="SourceGraphic" in2="effect1_dropShadow" result="shape"/>
<feColorMatrix in="SourceAlpha" type="matrix" values="0 0 0 0 0 0 0 0 0 0 0 0 0 0 0 0 0 0 127 0" result="hardAlpha"/>
<feOffset dx="16"/>
<feComposite in2="hardAlpha" operator="arithmetic" k2="-1" k3="1"/>
<feColorMatrix type="matrix" values="0 0 0 0 0 0 0 0 0 0 0 0 0 0 0 0 0 0 0.25 0"/>
<feBlend mode="normal" in2="shape" result="effect2_innerShadow"/>
<feColorMatrix in="SourceAlpha" type="matrix" values="0 0 0 0 0 0 0 0 0 0 0 0 0 0 0 0 0 0 127 0" result="hardAlpha"/>
<feOffset dx="-16" dy="8"/>
<feComposite in2="hardAlpha" operator="arithmetic" k2="-1" k3="1"/>
<feColorMatrix type="matrix" values="0 0 0 0 1 0 0 0 0 1 0 0 0 0 1 0 0 0 0.25 0"/>
<feBlend mode="normal" in2="effect2_innerShadow" result="effect3_innerShadow"/>
</filter>
<filter id="filter17_dii" x="267.438" y="304" width="49.1243" height="58" filterUnits="userSpaceOnUse" color-interpolation-filters="sRGB">
<feFlood flood-opacity="0" result="BackgroundImageFix"/>
<feColorMatrix in="SourceAlpha" type="matrix" values="0 0 0 0 0 0 0 0 0 0 0 0 0 0 0 0 0 0 127 0" result="hardAlpha"/>
<feOffset dx="-4" dy="4"/>
<feColorMatrix type="matrix" values="0 0 0 0 0 0 0 0 0 0 0 0 0 0 0 0 0 0 0.25 0"/>
<feBlend mode="normal" in2="BackgroundImageFix" result="effect1_dropShadow"/>
<feBlend mode="normal" in="SourceGraphic" in2="effect1_dropShadow" result="shape"/>
<feColorMatrix in="SourceAlpha" type="matrix" values="0 0 0 0 0 0 0 0 0 0 0 0 0 0 0 0 0 0 127 0" result="hardAlpha"/>
<feOffset dx="16"/>
<feComposite in2="hardAlpha" operator="arithmetic" k2="-1" k3="1"/>
<feColorMatrix type="matrix" values="0 0 0 0 0 0 0 0 0 0 0 0 0 0 0 0 0 0 0.25 0"/>
<feBlend mode="normal" in2="shape" result="effect2_innerShadow"/>
<feColorMatrix in="SourceAlpha" type="matrix" values="0 0 0 0 0 0 0 0 0 0 0 0 0 0 0 0 0 0 127 0" result="hardAlpha"/>
<feOffset dx="-16" dy="8"/>
<feComposite in2="hardAlpha" operator="arithmetic" k2="-1" k3="1"/>
<feColorMatrix type="matrix" values="0 0 0 0 1 0 0 0 0 1 0 0 0 0 1 0 0 0 0.25 0"/>
<feBlend mode="normal" in2="effect2_innerShadow" result="effect3_innerShadow"/>
</filter>
<filter id="filter18_dii" x="319.438" y="304" width="49.1243" height="58" filterUnits="userSpaceOnUse" color-interpolation-filters="sRGB">
<feFlood flood-opacity="0" result="BackgroundImageFix"/>
<feColorMatrix in="SourceAlpha" type="matrix" values="0 0 0 0 0 0 0 0 0 0 0 0 0 0 0 0 0 0 127 0" result="hardAlpha"/>
<feOffset dx="-4" dy="4"/>
<feColorMatrix type="matrix" values="0 0 0 0 0 0 0 0 0 0 0 0 0 0 0 0 0 0 0.25 0"/>
<feBlend mode="normal" in2="BackgroundImageFix" result="effect1_dropShadow"/>
<feBlend mode="normal" in="SourceGraphic" in2="effect1_dropShadow" result="shape"/>
<feColorMatrix in="SourceAlpha" type="matrix" values="0 0 0 0 0 0 0 0 0 0 0 0 0 0 0 0 0 0 127 0" result="hardAlpha"/>
<feOffset dx="16"/>
<feComposite in2="hardAlpha" operator="arithmetic" k2="-1" k3="1"/>
<feColorMatrix type="matrix" values="0 0 0 0 0 0 0 0 0 0 0 0 0 0 0 0 0 0 0.25 0"/>
<feBlend mode="normal" in2="shape" result="effect2_innerShadow"/>
<feColorMatrix in="SourceAlpha" type="matrix" values="0 0 0 0 0 0 0 0 0 0 0 0 0 0 0 0 0 0 127 0" result="hardAlpha"/>
<feOffset dx="-16" dy="8"/>
<feComposite in2="hardAlpha" operator="arithmetic" k2="-1" k3="1"/>
<feColorMatrix type="matrix" values="0 0 0 0 1 0 0 0 0 1 0 0 0 0 1 0 0 0 0.25 0"/>
<feBlend mode="normal" in2="effect2_innerShadow" result="effect3_innerShadow"/>
</filter>
<filter id="filter19_ii" x="55" y="109" width="316.291" height="249" filterUnits="userSpaceOnUse" color-interpolation-filters="sRGB">
<feFlood flood-opacity="0" result="BackgroundImageFix"/>
<feBlend mode="normal" in="SourceGraphic" in2="BackgroundImageFix" result="shape"/>
<feColorMatrix in="SourceAlpha" type="matrix" values="0 0 0 0 0 0 0 0 0 0 0 0 0 0 0 0 0 0 127 0" result="hardAlpha"/>
<feOffset dx="16"/>
<feComposite in2="hardAlpha" operator="arithmetic" k2="-1" k3="1"/>
<feColorMatrix type="matrix" values="0 0 0 0 0 0 0 0 0 0 0 0 0 0 0 0 0 0 0.25 0"/>
<feBlend mode="normal" in2="shape" result="effect1_innerShadow"/>
<feColorMatrix in="SourceAlpha" type="matrix" values="0 0 0 0 0 0 0 0 0 0 0 0 0 0 0 0 0 0 127 0" result="hardAlpha"/>
<feOffset dx="-24" dy="8"/>
<feComposite in2="hardAlpha" operator="arithmetic" k2="-1" k3="1"/>
<feColorMatrix type="matrix" values="0 0 0 0 1 0 0 0 0 1 0 0 0 0 1 0 0 0 0.25 0"/>
<feBlend mode="normal" in2="effect1_innerShadow" result="effect2_innerShadow"/>
</filter>
<filter id="filter20_ii" x="39" y="49" width="396" height="317" filterUnits="userSpaceOnUse" color-interpolation-filters="sRGB">
<feFlood flood-opacity="0" result="BackgroundImageFix"/>
<feBlend mode="normal" in="SourceGraphic" in2="BackgroundImageFix" result="shape"/>
<feColorMatrix in="SourceAlpha" type="matrix" values="0 0 0 0 0 0 0 0 0 0 0 0 0 0 0 0 0 0 127 0" result="hardAlpha"/>
<feOffset dx="48"/>
<feComposite in2="hardAlpha" operator="arithmetic" k2="-1" k3="1"/>
<feColorMatrix type="matrix" values="0 0 0 0 0 0 0 0 0 0 0 0 0 0 0 0 0 0 0.25 0"/>
<feBlend mode="normal" in2="shape" result="effect1_innerShadow"/>
<feColorMatrix in="SourceAlpha" type="matrix" values="0 0 0 0 0 0 0 0 0 0 0 0 0 0 0 0 0 0 127 0" result="hardAlpha"/>
<feOffset dx="-16" dy="8"/>
<feComposite in2="hardAlpha" operator="arithmetic" k2="-1" k3="1"/>
<feColorMatrix type="matrix" values="0 0 0 0 1 0 0 0 0 1 0 0 0 0 1 0 0 0 0.25 0"/>
<feBlend mode="normal" in2="effect1_innerShadow" result="effect2_innerShadow"/>
</filter>
<filter id="filter21_di" x="367" y="114" width="32" height="28" filterUnits="userSpaceOnUse" color-interpolation-filters="sRGB">
<feFlood flood-opacity="0" result="BackgroundImageFix"/>
<feColorMatrix in="SourceAlpha" type="matrix" values="0 0 0 0 0 0 0 0 0 0 0 0 0 0 0 0 0 0 127 0" result="hardAlpha"/>
<feOffset dx="4"/>
<feColorMatrix type="matrix" values="0 0 0 0 0 0 0 0 0 0 0 0 0 0 0 0 0 0 0.25 0"/>
<feBlend mode="normal" in2="BackgroundImageFix" result="effect1_dropShadow"/>
<feBlend mode="normal" in="SourceGraphic" in2="effect1_dropShadow" result="shape"/>
<feColorMatrix in="SourceAlpha" type="matrix" values="0 0 0 0 0 0 0 0 0 0 0 0 0 0 0 0 0 0 127 0" result="hardAlpha"/>
<feOffset dx="16"/>
<feComposite in2="hardAlpha" operator="arithmetic" k2="-1" k3="1"/>
<feColorMatrix type="matrix" values="0 0 0 0 0 0 0 0 0 0 0 0 0 0 0 0 0 0 0.25 0"/>
<feBlend mode="normal" in2="shape" result="effect2_innerShadow"/>
</filter>
<filter id="filter22_di" x="315" y="114" width="32" height="28" filterUnits="userSpaceOnUse" color-interpolation-filters="sRGB">
<feFlood flood-opacity="0" result="BackgroundImageFix"/>
<feColorMatrix in="SourceAlpha" type="matrix" values="0 0 0 0 0 0 0 0 0 0 0 0 0 0 0 0 0 0 127 0" result="hardAlpha"/>
<feOffset dx="4"/>
<feColorMatrix type="matrix" values="0 0 0 0 0 0 0 0 0 0 0 0 0 0 0 0 0 0 0.25 0"/>
<feBlend mode="normal" in2="BackgroundImageFix" result="effect1_dropShadow"/>
<feBlend mode="normal" in="SourceGraphic" in2="effect1_dropShadow" result="shape"/>
<feColorMatrix in="SourceAlpha" type="matrix" values="0 0 0 0 0 0 0 0 0 0 0 0 0 0 0 0 0 0 127 0" result="hardAlpha"/>
<feOffset dx="16"/>
<feComposite in2="hardAlpha" operator="arithmetic" k2="-1" k3="1"/>
<feColorMatrix type="matrix" values="0 0 0 0 0 0 0 0 0 0 0 0 0 0 0 0 0 0 0.25 0"/>
<feBlend mode="normal" in2="shape" result="effect2_innerShadow"/>
</filter>
<filter id="filter23_d" x="12" y="121" width="114" height="202.667" filterUnits="userSpaceOnUse" color-interpolation-filters="sRGB">
<feFlood flood-opacity="0" result="BackgroundImageFix"/>
<feColorMatrix in="SourceAlpha" type="matrix" values="0 0 0 0 0 0 0 0 0 0 0 0 0 0 0 0 0 0 127 0" result="hardAlpha"/>
<feOffset dx="-4" dy="4"/>
<feColorMatrix type="matrix" values="0 0 0 0 0 0 0 0 0 0 0 0 0 0 0 0 0 0 0.25 0"/>
<feBlend mode="normal" in2="BackgroundImageFix" result="effect1_dropShadow"/>
<feBlend mode="normal" in="SourceGraphic" in2="effect1_dropShadow" result="shape"/>
</filter>
<filter id="filter24_i" x="27" y="125" width="88" height="72" filterUnits="userSpaceOnUse" color-interpolation-filters="sRGB">
<feFlood flood-opacity="0" result="BackgroundImageFix"/>
<feBlend mode="normal" in="SourceGraphic" in2="BackgroundImageFix" result="shape"/>
<feColorMatrix in="SourceAlpha" type="matrix" values="0 0 0 0 0 0 0 0 0 0 0 0 0 0 0 0 0 0 127 0" result="hardAlpha"/>
<feOffset dx="-24" dy="8"/>
<feComposite in2="hardAlpha" operator="arithmetic" k2="-1" k3="1"/>
<feColorMatrix type="matrix" values="0 0 0 0 1 0 0 0 0 1 0 0 0 0 1 0 0 0 0.25 0"/>
<feBlend mode="normal" in2="shape" result="effect1_innerShadow"/>
</filter>
<filter id="filter25_ii" x="27" y="125" width="72" height="72" filterUnits="userSpaceOnUse" color-interpolation-filters="sRGB">
<feFlood flood-opacity="0" result="BackgroundImageFix"/>
<feBlend mode="normal" in="SourceGraphic" in2="BackgroundImageFix" result="shape"/>
<feColorMatrix in="SourceAlpha" type="matrix" values="0 0 0 0 0 0 0 0 0 0 0 0 0 0 0 0 0 0 127 0" result="hardAlpha"/>
<feOffset dy="-16"/>
<feComposite in2="hardAlpha" operator="arithmetic" k2="-1" k3="1"/>
<feColorMatrix type="matrix" values="0 0 0 0 0 0 0 0 0 0 0 0 0 0 0 0 0 0 0.25 0"/>
<feBlend mode="normal" in2="shape" result="effect1_innerShadow"/>
<feColorMatrix in="SourceAlpha" type="matrix" values="0 0 0 0 0 0 0 0 0 0 0 0 0 0 0 0 0 0 127 0" result="hardAlpha"/>
<feOffset dy="16"/>
<feComposite in2="hardAlpha" operator="arithmetic" k2="-1" k3="1"/>
<feColorMatrix type="matrix" values="0 0 0 0 1 0 0 0 0 1 0 0 0 0 1 0 0 0 0.25 0"/>
<feBlend mode="normal" in2="effect1_innerShadow" result="effect2_innerShadow"/>
</filter>
<filter id="filter26_ii" x="27" y="210.333" width="82" height="109.333" filterUnits="userSpaceOnUse" color-interpolation-filters="sRGB">
<feFlood flood-opacity="0" result="BackgroundImageFix"/>
<feBlend mode="normal" in="SourceGraphic" in2="BackgroundImageFix" result="shape"/>
<feColorMatrix in="SourceAlpha" type="matrix" values="0 0 0 0 0 0 0 0 0 0 0 0 0 0 0 0 0 0 127 0" result="hardAlpha"/>
<feOffset dy="-16"/>
<feComposite in2="hardAlpha" operator="arithmetic" k2="-1" k3="1"/>
<feColorMatrix type="matrix" values="0 0 0 0 0 0 0 0 0 0 0 0 0 0 0 0 0 0 0.25 0"/>
<feBlend mode="normal" in2="shape" result="effect1_innerShadow"/>
<feColorMatrix in="SourceAlpha" type="matrix" values="0 0 0 0 0 0 0 0 0 0 0 0 0 0 0 0 0 0 127 0" result="hardAlpha"/>
<feOffset dy="16"/>
<feComposite in2="hardAlpha" operator="arithmetic" k2="-1" k3="1"/>
<feColorMatrix type="matrix" values="0 0 0 0 1 0 0 0 0 1 0 0 0 0 1 0 0 0 0.25 0"/>
<feBlend mode="normal" in2="effect1_innerShadow" result="effect2_innerShadow"/>
</filter>
</defs>
</svg>
