<svg width="468" height="373" viewBox="0 0 468 373" fill="none" xmlns="http://www.w3.org/2000/svg">
<g filter="url(#filter0_i)">
<path d="M88 181C88 167.745 98.7452 157 112 157H388C401.255 157 412 167.745 412 181V341C412 354.255 401.255 365 388 365H112C98.7452 365 88 354.255 88 341V181Z" fill="#EFA686"/>
</g>
<path d="M88 181C88 167.745 98.7452 157 112 157H388C401.255 157 412 167.745 412 181V341C412 354.255 401.255 365 388 365H112C98.7452 365 88 354.255 88 341V181Z" stroke="#1F2024" stroke-width="8"/>
<g filter="url(#filter1_ii)">
<path fill-rule="evenodd" clip-rule="evenodd" d="M112 157C98.7452 157 88 167.745 88 181V341C88 354.255 98.7452 365 112 365H138C124.745 365 114 354.255 114 341V181C114 167.745 124.745 157 138 157H112Z" fill="#0022D3" fill-opacity="0.8"/>
</g>
<path d="M92 181C92 169.954 100.954 161 112 161V153C96.536 153 84 165.536 84 181H92ZM92 341V181H84V341H92ZM112 361C100.954 361 92 352.046 92 341H84C84 356.464 96.536 369 112 369V361ZM138 361H112V369H138V361ZM138 361C126.954 361 118 352.046 118 341H110C110 356.464 122.536 369 138 369V361ZM118 341V181H110V341H118ZM118 181C118 169.954 126.954 161 138 161V153C122.536 153 110 165.536 110 181H118ZM112 161H138V153H112V161Z" fill="#1F2024"/>
<g filter="url(#filter2_ii)">
<path fill-rule="evenodd" clip-rule="evenodd" d="M138.667 157C125.412 157 114.667 167.745 114.667 181V341C114.667 354.255 125.412 365 138.667 365H164.667C151.412 365 140.667 354.255 140.667 341V181C140.667 167.745 151.412 157 164.667 157H138.667Z" fill="#0022D3" fill-opacity="0.7"/>
</g>
<path d="M118.667 181C118.667 169.954 127.621 161 138.667 161V153C123.203 153 110.667 165.536 110.667 181H118.667ZM118.667 341V181H110.667V341H118.667ZM138.667 361C127.621 361 118.667 352.046 118.667 341H110.667C110.667 356.464 123.203 369 138.667 369V361ZM164.667 361H138.667V369H164.667V361ZM164.667 361C153.621 361 144.667 352.046 144.667 341H136.667C136.667 356.464 149.203 369 164.667 369V361ZM144.667 341V181H136.667V341H144.667ZM144.667 181C144.667 169.954 153.621 161 164.667 161V153C149.203 153 136.667 165.536 136.667 181H144.667ZM138.667 161H164.667V153H138.667V161Z" fill="#1F2024"/>
<g filter="url(#filter3_ii)">
<path fill-rule="evenodd" clip-rule="evenodd" d="M165.333 157C152.078 157 141.333 167.745 141.333 181V341C141.333 354.255 152.078 365 165.333 365H191.333C178.078 365 167.333 354.255 167.333 341V181C167.333 167.745 178.078 157 191.333 157H165.333Z" fill="#0022D3" fill-opacity="0.5"/>
</g>
<path d="M145.333 181C145.333 169.954 154.288 161 165.333 161V153C149.869 153 137.333 165.536 137.333 181H145.333ZM145.333 341V181H137.333V341H145.333ZM165.333 361C154.288 361 145.333 352.046 145.333 341H137.333C137.333 356.464 149.869 369 165.333 369V361ZM191.333 361H165.333V369H191.333V361ZM191.333 361C180.288 361 171.333 352.046 171.333 341H163.333C163.333 356.464 175.869 369 191.333 369V361ZM171.333 341V181H163.333V341H171.333ZM171.333 181C171.333 169.954 180.288 161 191.333 161V153C175.869 153 163.333 165.536 163.333 181H171.333ZM165.333 161H191.333V153H165.333V161Z" fill="#1F2024"/>
<g filter="url(#filter4_ii)">
<path fill-rule="evenodd" clip-rule="evenodd" d="M192 157C178.745 157 168 167.745 168 181V341C168 354.255 178.745 365 192 365H218C204.745 365 194 354.255 194 341V181C194 167.745 204.745 157 218 157H192Z" fill="#0022D3" fill-opacity="0.3"/>
</g>
<path d="M172 181C172 169.954 180.954 161 192 161V153C176.536 153 164 165.536 164 181H172ZM172 341V181H164V341H172ZM192 361C180.954 361 172 352.046 172 341H164C164 356.464 176.536 369 192 369V361ZM218 361H192V369H218V361ZM218 361C206.954 361 198 352.046 198 341H190C190 356.464 202.536 369 218 369V361ZM198 341V181H190V341H198ZM198 181C198 169.954 206.954 161 218 161V153C202.536 153 190 165.536 190 181H198ZM192 161H218V153H192V161Z" fill="#1F2024"/>
<g filter="url(#filter5_d)">
<path d="M268.919 208.276C259.422 208.276 254.157 215.063 254.157 215.063C254.157 215.063 248.892 208.276 239.395 208.276C229.429 208.276 221.353 216.27 221.353 226.136C221.353 239.68 237.466 252.805 241.957 256.951C247.131 261.725 254.157 267.862 254.157 267.862C254.157 267.862 261.184 261.725 266.357 256.951C270.848 252.805 286.962 239.68 286.962 226.136C286.962 216.27 278.886 208.276 268.919 208.276Z" fill="#FE204F"/>
<path d="M268.919 208.276C259.422 208.276 254.157 215.063 254.157 215.063C254.157 215.063 248.892 208.276 239.395 208.276C229.429 208.276 221.353 216.27 221.353 226.136C221.353 239.68 237.466 252.805 241.957 256.951C247.131 261.725 254.157 267.862 254.157 267.862C254.157 267.862 261.184 261.725 266.357 256.951C270.848 252.805 286.962 239.68 286.962 226.136C286.962 216.27 278.886 208.276 268.919 208.276Z" stroke="#1F2024" stroke-width="8"/>
</g>
<g filter="url(#filter6_d)">
<path d="M369.419 208.276C359.922 208.276 354.657 215.063 354.657 215.063C354.657 215.063 349.392 208.276 339.895 208.276C329.929 208.276 321.853 216.27 321.853 226.136C321.853 239.68 337.966 252.805 342.457 256.951C347.631 261.725 354.657 267.862 354.657 267.862C354.657 267.862 361.684 261.725 366.857 256.951C371.348 252.805 387.462 239.68 387.462 226.136C387.462 216.27 379.386 208.276 369.419 208.276Z" fill="#FE204F"/>
<path d="M369.419 208.276C359.922 208.276 354.657 215.063 354.657 215.063C354.657 215.063 349.392 208.276 339.895 208.276C329.929 208.276 321.853 216.27 321.853 226.136C321.853 239.68 337.966 252.805 342.457 256.951C347.631 261.725 354.657 267.862 354.657 267.862C354.657 267.862 361.684 261.725 366.857 256.951C371.348 252.805 387.462 239.68 387.462 226.136C387.462 216.27 379.386 208.276 369.419 208.276Z" stroke="#1F2024" stroke-width="8"/>
</g>
<rect x="244" y="283" width="112" height="32" rx="16" fill="#1F2024"/>
<rect x="244" y="283" width="12" height="32" fill="#CAE9FA"/>
<rect x="264" y="283" width="12" height="32" fill="#CAE9FA"/>
<rect x="284" y="283" width="12" height="32" fill="#CAE9FA"/>
<rect x="304" y="283" width="12" height="32" fill="#CAE9FA"/>
<rect x="324" y="283" width="12" height="32" fill="#CAE9FA"/>
<rect x="344" y="283" width="12" height="32" fill="#CAE9FA"/>
<rect x="244" y="283" width="112" height="32" rx="16" stroke="#1F2024" stroke-width="6"/>
<path d="M198 183H414L309.096 211.421C271.978 221.478 232.289 212.485 203.13 187.412L198 183Z" fill="black" fill-opacity="0.16"/>
<g filter="url(#filter7_d)">
<circle cx="143" cy="167.755" r="54" fill="#E2E2E2" stroke="#1F2024" stroke-width="8" stroke-linejoin="round"/>
<g filter="url(#filter8_ii)">
<rect x="126" y="214" width="19" height="48" rx="8" fill="#E2E2E2"/>
</g>
<rect x="126" y="214" width="19" height="48" rx="8" stroke="#1F2024" stroke-width="8"/>
<g filter="url(#filter9_ii)">
<path d="M101 258C101 253.582 104.582 250 109 250H158C162.418 250 166 253.582 166 258V290C166 294.418 162.418 298 158 298H109C104.582 298 101 294.418 101 290V258Z" fill="#E2E2E2"/>
</g>
<path d="M101 258C101 253.582 104.582 250 109 250H158C162.418 250 166 253.582 166 258V290C166 294.418 162.418 298 158 298H109C104.582 298 101 294.418 101 290V258Z" stroke="#1F2024" stroke-width="8"/>
<g filter="url(#filter10_i)">
<path d="M142 258C142 253.582 145.582 250 150 250H158C162.418 250 166 253.582 166 258V290C166 294.418 162.418 298 158 298H150C145.582 298 142 294.418 142 290V258Z" fill="white"/>
</g>
<path d="M142 258C142 253.582 145.582 250 150 250H158C162.418 250 166 253.582 166 258V290C166 294.418 162.418 298 158 298H150C145.582 298 142 294.418 142 290V258Z" stroke="#1F2024" stroke-width="8"/>
<rect x="118" y="264" width="8" height="20" rx="4" fill="#1F2024"/>
<g filter="url(#filter11_ii)">
<path d="M334.959 112L310 51.7549C371.75 51.7549 434.832 92.9084 423.718 131.092C412.603 169.276 363.29 108.606 334.959 112Z" fill="white"/>
</g>
<path d="M391.931 80.41C371.928 66.7781 344.103 57.1205 316.042 55.8883L337.575 107.864C345.154 107.936 353.331 111.31 361.077 115.38C366.574 118.268 372.389 121.82 377.993 125.244C381.376 127.311 384.682 129.33 387.795 131.129C396.512 136.164 403.795 139.523 409.304 139.744C411.861 139.846 413.794 139.256 415.354 137.989C416.983 136.668 418.627 134.267 419.877 129.974C424.664 113.528 413.682 95.2339 391.931 80.41Z" stroke="#1F2024" stroke-width="8" stroke-linejoin="round"/>
<mask id="path-29-inside-1" fill="white">
<path fill-rule="evenodd" clip-rule="evenodd" d="M309.663 68.7496C311.036 69.8758 312.881 70.2405 314.58 69.721C335.549 63.3072 350.8 43.7996 350.8 20.7301C350.8 14.5578 349.708 8.64057 347.707 3.16084C345.798 -2.06754 338.597 -0.331306 336.634 4.8771C330.429 21.3408 315.988 33.7667 298.334 37.1318C294.811 37.8034 292.167 41.072 293.242 44.4937C296.265 54.1114 302.048 62.5063 309.663 68.7496Z"/>
</mask>
<path fill-rule="evenodd" clip-rule="evenodd" d="M309.663 68.7496C311.036 69.8758 312.881 70.2405 314.58 69.721C335.549 63.3072 350.8 43.7996 350.8 20.7301C350.8 14.5578 349.708 8.64057 347.707 3.16084C345.798 -2.06754 338.597 -0.331306 336.634 4.8771C330.429 21.3408 315.988 33.7667 298.334 37.1318C294.811 37.8034 292.167 41.072 293.242 44.4937C296.265 54.1114 302.048 62.5063 309.663 68.7496Z" fill="#EDB146"/>
<path d="M293.242 44.4937L300.874 42.0952L293.242 44.4937ZM314.58 69.721L316.92 77.3711L314.58 69.721ZM309.663 68.7496L304.59 74.9361L309.663 68.7496ZM358.8 20.7301C358.8 47.4146 341.158 69.9576 316.92 77.3711L312.24 62.0708C329.941 56.6568 342.8 40.1847 342.8 20.7301H358.8ZM355.222 0.416992C357.539 6.76306 358.8 13.6083 358.8 20.7301H342.8C342.8 15.5074 341.877 10.5181 340.193 5.90468L355.222 0.416992ZM296.836 29.2733C311.712 26.4379 323.911 15.9522 329.148 2.05588L344.12 7.69832C336.948 26.7293 320.265 41.0956 299.832 44.9903L296.836 29.2733ZM300.874 42.0952C303.421 50.1972 308.298 57.2859 314.735 62.5632L304.59 74.9361C295.797 67.7267 289.109 58.0255 285.61 46.8921L300.874 42.0952ZM299.832 44.9903C299.998 44.9588 300.262 44.8607 300.532 44.4888C300.684 44.2804 300.861 43.9471 300.948 43.4884C301.04 43.0077 301.006 42.5157 300.874 42.0952L285.61 46.8921C282.685 37.5827 290.088 30.5597 296.836 29.2733L299.832 44.9903ZM340.193 5.90468C340.36 6.36369 340.871 7.14295 341.847 7.63465C342.711 8.07006 343.41 8.0164 343.676 7.96613C344.059 7.89381 344.09 7.7767 344.12 7.69832L329.148 2.05588C331.14 -3.23091 335.754 -6.82033 340.706 -7.75578C343.256 -8.23762 346.236 -8.07054 349.049 -6.65296C351.973 -5.17908 354.1 -2.65621 355.222 0.416992L340.193 5.90468ZM316.92 77.3711C312.66 78.674 308.033 77.7588 304.59 74.9361L314.735 62.5632C314.039 61.9928 313.102 61.807 312.24 62.0708L316.92 77.3711Z" fill="#1F2024" mask="url(#path-29-inside-1)"/>
<mask id="path-31-inside-2" fill="white">
<path fill-rule="evenodd" clip-rule="evenodd" d="M331.262 60.9799C343.161 51.6001 350.8 37.0571 350.8 20.7301C350.8 14.5578 349.708 8.64057 347.707 3.16084C345.798 -2.06754 338.597 -0.331306 336.634 4.8771C331.748 17.842 321.754 28.303 309.106 33.807C313.087 45.2557 321.016 54.8566 331.262 60.9799Z"/>
</mask>
<path fill-rule="evenodd" clip-rule="evenodd" d="M331.262 60.9799C343.161 51.6001 350.8 37.0571 350.8 20.7301C350.8 14.5578 349.708 8.64057 347.707 3.16084C345.798 -2.06754 338.597 -0.331306 336.634 4.8771C331.748 17.842 321.754 28.303 309.106 33.807C313.087 45.2557 321.016 54.8566 331.262 60.9799Z" fill="#FDEFEE"/>
<path d="M331.262 60.9799L336.215 67.2625C333.609 69.3165 330.006 69.5491 327.159 67.8472L331.262 60.9799ZM347.707 3.16084L355.222 0.416992L347.707 3.16084ZM336.634 4.8771L329.148 2.05588L329.148 2.05588L336.634 4.8771ZM309.106 33.807L301.55 36.4343C300.176 32.4831 302.078 28.1406 305.914 26.4715L309.106 33.807ZM326.31 54.6973C336.367 46.7691 342.8 34.5032 342.8 20.7301H358.8C358.8 39.6111 349.955 56.431 336.215 67.2625L326.31 54.6973ZM342.8 20.7301C342.8 15.5074 341.877 10.5181 340.193 5.90468L355.222 0.416992C357.539 6.76306 358.8 13.6083 358.8 20.7301H342.8ZM340.193 5.90468C340.36 6.36369 340.871 7.14295 341.847 7.63465C342.711 8.07006 343.41 8.0164 343.676 7.96613C344.059 7.89381 344.09 7.7767 344.12 7.69832L329.148 2.05588C331.14 -3.23091 335.754 -6.82033 340.706 -7.75578C343.256 -8.23762 346.236 -8.07054 349.049 -6.65296C351.973 -5.17908 354.1 -2.65621 355.222 0.416992L340.193 5.90468ZM344.12 7.69832C338.468 22.6942 326.921 34.7791 312.298 41.1425L305.914 26.4715C316.587 21.8268 325.027 12.9898 329.148 2.05588L344.12 7.69832ZM316.662 31.1796C320.017 40.8289 326.71 48.9399 335.366 54.1127L327.159 67.8472C315.321 60.7733 306.156 49.6825 301.55 36.4343L316.662 31.1796Z" fill="#1F2024" mask="url(#path-31-inside-2)"/>
<path d="M373.172 97.3876C363.754 88.8597 344.419 82.6009 333.599 85.9457C337.422 87.4668 341.297 92.8335 338.422 101.252" stroke="black" stroke-width="8" stroke-linecap="round" stroke-linejoin="round"/>
<mask id="path-34-inside-3" fill="white">
<path fill-rule="evenodd" clip-rule="evenodd" d="M92.5593 121.78C78.7933 132.385 69.9238 149.034 69.9238 167.755C69.9238 199.787 95.8913 225.755 127.924 225.755C154.68 225.755 177.205 207.637 183.899 183H363.924V118V115C363.924 66.3989 324.525 27 275.924 27H190.924C168.253 27 147.418 34.8584 130.994 47.9997C61.5271 51.7497 -6.00179 97.9216 6.50544 140.89C14.2782 167.593 37.9651 153.113 62.878 137.883C72.8916 131.761 83.1033 125.518 92.5593 121.78Z"/>
</mask>
<g filter="url(#filter12_ii)">
<path fill-rule="evenodd" clip-rule="evenodd" d="M92.5593 121.78C78.7933 132.385 69.9238 149.034 69.9238 167.755C69.9238 199.787 95.8913 225.755 127.924 225.755C154.68 225.755 177.205 207.637 183.899 183H363.924V118V115C363.924 66.3989 324.525 27 275.924 27H190.924C168.253 27 147.418 34.8584 130.994 47.9997C61.5271 51.7497 -6.00179 97.9216 6.50544 140.89C14.2782 167.593 37.9651 153.113 62.878 137.883C72.8916 131.761 83.1033 125.518 92.5593 121.78Z" fill="white"/>
</g>
<path d="M92.5593 121.78L97.4415 128.118C100.6 125.684 101.485 121.297 99.516 117.83C97.5472 114.363 93.3261 112.875 89.6182 114.34L92.5593 121.78ZM183.899 183V175C180.289 175 177.126 177.418 176.179 180.902L183.899 183ZM363.924 183V191C368.342 191 371.924 187.418 371.924 183H363.924ZM130.994 47.9997L131.425 55.9881C133.091 55.8981 134.688 55.2891 135.992 54.2463L130.994 47.9997ZM6.50544 140.89L14.1867 138.654L6.50544 140.89ZM62.878 137.883L58.7053 131.057L62.878 137.883ZM77.9238 167.755C77.9238 151.621 85.5568 137.273 97.4415 128.118L87.6771 115.443C72.0298 127.497 61.9238 146.447 61.9238 167.755H77.9238ZM127.924 217.755C100.31 217.755 77.9238 195.369 77.9238 167.755H61.9238C61.9238 204.206 91.473 233.755 127.924 233.755V217.755ZM176.179 180.902C170.408 202.144 150.979 217.755 127.924 217.755V233.755C158.382 233.755 184.003 213.13 191.62 185.098L176.179 180.902ZM183.899 191H363.924V175H183.899V191ZM371.924 183V118H355.924V183H371.924ZM371.924 118V115H355.924V118H371.924ZM371.924 115C371.924 61.9807 328.943 19 275.924 19V35C320.107 35 355.924 70.8172 355.924 115H371.924ZM275.924 19H190.924V35H275.924V19ZM190.924 19C166.372 19 143.787 27.5178 125.996 41.7531L135.992 54.2463C151.049 42.1989 170.135 35 190.924 35V19ZM130.562 40.0113C94.3591 41.9657 58.6173 54.9357 33.317 73.2586C8.53841 91.2037 -8.90698 116.565 -1.17577 143.126L14.1867 138.654C9.41063 122.246 19.4761 103.038 42.7018 86.2172C65.4057 69.7746 98.1616 57.7837 131.425 55.9881L130.562 40.0113ZM-1.17577 143.126C1.102 150.951 4.96467 157.183 11.059 160.738C17.1357 164.282 23.8825 164.257 29.9714 162.927C36.0284 161.604 42.3201 158.806 48.3838 155.609C54.4964 152.387 60.8733 148.485 67.0507 144.708L58.7053 131.057C52.4261 134.896 46.4999 138.515 40.9215 141.456C35.2943 144.423 30.5073 146.433 26.5569 147.295C22.6384 148.151 20.449 147.692 19.1198 146.917C17.8082 146.152 15.7953 144.18 14.1867 138.654L-1.17577 143.126ZM67.0507 144.708C77.2323 138.484 86.8167 132.653 95.5003 129.22L89.6182 114.34C79.3899 118.384 68.5509 125.038 58.7053 131.057L67.0507 144.708Z" fill="#1F2024" mask="url(#path-34-inside-3)"/>
<path d="M280 35C280 40.7782 278.862 46.4997 276.651 51.8381C274.439 57.1764 271.198 62.0269 267.113 66.1127C263.027 70.1985 258.176 73.4395 252.838 75.6507C247.5 77.8619 241.778 79 236 79C230.222 79 224.5 77.8619 219.162 75.6507C213.824 73.4395 208.973 70.1985 204.887 66.1127C200.802 62.0269 197.561 57.1764 195.349 51.8381C193.138 46.4997 192 40.7782 192 35L236 35H280Z" fill="#EEC2BD"/>
<path d="M304.5 116C312.5 119.5 326.5 122 341 121" stroke="#E6ACA5" stroke-width="8" stroke-linecap="round" stroke-linejoin="round"/>
<mask id="path-38-inside-4" fill="white">
<path fill-rule="evenodd" clip-rule="evenodd" d="M137.061 68.7496C135.687 69.8758 133.843 70.2405 132.144 69.721C111.174 63.3072 95.9238 43.7996 95.9238 20.7301C95.9238 14.5578 97.0155 8.64057 99.0163 3.16084C100.925 -2.06754 108.127 -0.331306 110.09 4.8771C116.294 21.3408 130.735 33.7667 148.389 37.1318C151.912 37.8034 154.557 41.072 153.481 44.4937C150.459 54.1114 144.676 62.5063 137.061 68.7496Z"/>
</mask>
<path fill-rule="evenodd" clip-rule="evenodd" d="M137.061 68.7496C135.687 69.8758 133.843 70.2405 132.144 69.721C111.174 63.3072 95.9238 43.7996 95.9238 20.7301C95.9238 14.5578 97.0155 8.64057 99.0163 3.16084C100.925 -2.06754 108.127 -0.331306 110.09 4.8771C116.294 21.3408 130.735 33.7667 148.389 37.1318C151.912 37.8034 154.557 41.072 153.481 44.4937C150.459 54.1114 144.676 62.5063 137.061 68.7496Z" fill="#EDB146"/>
<path d="M153.481 44.4937L145.849 42.0952L153.481 44.4937ZM132.144 69.721L129.804 77.3711L132.144 69.721ZM137.061 68.7496L142.133 74.9361L137.061 68.7496ZM87.9238 20.7301C87.9238 47.4146 105.566 69.9576 129.804 77.3711L134.484 62.0708C116.783 56.6568 103.924 40.1847 103.924 20.7301H87.9238ZM91.5016 0.416992C89.1844 6.76306 87.9238 13.6083 87.9238 20.7301H103.924C103.924 15.5074 104.847 10.5181 106.531 5.90468L91.5016 0.416992ZM149.887 29.2733C135.012 26.4379 122.813 15.9522 117.576 2.05588L102.604 7.69832C109.776 26.7293 126.459 41.0956 146.891 44.9903L149.887 29.2733ZM145.849 42.0952C143.303 50.1972 138.425 57.2859 131.989 62.5632L142.133 74.9361C150.926 67.7267 157.614 58.0255 161.113 46.8921L145.849 42.0952ZM146.891 44.9903C146.726 44.9588 146.462 44.8607 146.191 44.4888C146.04 44.2804 145.863 43.9471 145.776 43.4884C145.684 43.0077 145.717 42.5157 145.849 42.0952L161.113 46.8921C164.039 37.5827 156.636 30.5597 149.887 29.2733L146.891 44.9903ZM106.531 5.90468C106.363 6.36369 105.852 7.14295 104.877 7.63465C104.013 8.07006 103.314 8.0164 103.048 7.96613C102.665 7.89381 102.633 7.7767 102.604 7.69832L117.576 2.05588C115.584 -3.23091 110.97 -6.82033 106.018 -7.75578C103.467 -8.23762 100.487 -8.07054 97.6751 -6.65296C94.751 -5.17908 92.6237 -2.65621 91.5016 0.416992L106.531 5.90468ZM129.804 77.3711C134.064 78.674 138.69 77.7588 142.133 74.9361L131.989 62.5632C132.684 61.9928 133.621 61.807 134.484 62.0708L129.804 77.3711Z" fill="#1F2024" mask="url(#path-38-inside-4)"/>
<mask id="path-40-inside-5" fill="white">
<path fill-rule="evenodd" clip-rule="evenodd" d="M115.461 60.9799C103.563 51.6001 95.9238 37.0571 95.9238 20.7301C95.9238 14.5578 97.0155 8.64057 99.0163 3.16084C100.925 -2.06754 108.127 -0.331306 110.09 4.8771C114.976 17.842 124.969 28.303 137.618 33.807C133.637 45.2557 125.708 54.8566 115.461 60.9799Z"/>
</mask>
<path fill-rule="evenodd" clip-rule="evenodd" d="M115.461 60.9799C103.563 51.6001 95.9238 37.0571 95.9238 20.7301C95.9238 14.5578 97.0155 8.64057 99.0163 3.16084C100.925 -2.06754 108.127 -0.331306 110.09 4.8771C114.976 17.842 124.969 28.303 137.618 33.807C133.637 45.2557 125.708 54.8566 115.461 60.9799Z" fill="#FDEFEE"/>
<path d="M115.461 60.9799L110.509 67.2625C113.114 69.3165 116.717 69.5491 119.565 67.8472L115.461 60.9799ZM99.0163 3.16084L91.5016 0.416992L99.0163 3.16084ZM110.09 4.8771L117.576 2.05588L117.576 2.05588L110.09 4.8771ZM137.618 33.807L145.174 36.4343C146.548 32.4831 144.646 28.1406 140.81 26.4715L137.618 33.807ZM120.414 54.6973C110.357 46.7691 103.924 34.5032 103.924 20.7301H87.9238C87.9238 39.6111 96.7685 56.431 110.509 67.2625L120.414 54.6973ZM103.924 20.7301C103.924 15.5074 104.847 10.5181 106.531 5.90468L91.5016 0.416992C89.1844 6.76306 87.9238 13.6083 87.9238 20.7301H103.924ZM106.531 5.90468C106.363 6.36369 105.852 7.14295 104.877 7.63465C104.013 8.07006 103.314 8.0164 103.048 7.96613C102.665 7.89381 102.633 7.7767 102.604 7.69832L117.576 2.05588C115.584 -3.23091 110.97 -6.82033 106.018 -7.75578C103.467 -8.23762 100.487 -8.07054 97.6751 -6.65296C94.751 -5.17908 92.6237 -2.65621 91.5016 0.416992L106.531 5.90468ZM102.604 7.69832C108.255 22.6942 119.802 34.7791 134.425 41.1425L140.81 26.4715C130.136 21.8268 121.697 12.9898 117.576 2.05588L102.604 7.69832ZM130.061 31.1796C126.706 40.8289 120.014 48.9399 111.358 54.1127L119.565 67.8472C131.403 60.7733 140.567 49.6825 145.174 36.4343L130.061 31.1796Z" fill="#1F2024" mask="url(#path-40-inside-5)"/>
<path d="M62.8878 98.3876C72.3056 89.8597 91.6412 83.6009 102.461 86.9457C98.6383 88.4668 94.7635 93.8335 97.6384 102.252" stroke="black" stroke-width="8" stroke-linecap="round" stroke-linejoin="round"/>
<path d="M319.083 166.665C307.108 145.334 322.524 119 346.987 119H421.606C446.069 119 461.485 145.334 449.51 166.665L448.854 167.833C446.022 172.877 440.688 176 434.902 176H329.007C326.115 176 323.447 174.439 322.031 171.916L319.083 166.665Z" fill="black" fill-opacity="0.16"/>
<mask id="path-44-inside-6" fill="white">
<path d="M320.322 155.996C310.917 134.835 326.407 111 349.564 111H435.029C458.186 111 473.675 134.835 464.271 155.996L456.492 173.498C453.924 179.276 448.194 183 441.871 183H347.921C338.436 183 329.841 177.414 325.989 168.747L320.322 155.996Z"/>
</mask>
<g filter="url(#filter13_ii)">
<path d="M320.322 155.996C310.917 134.835 326.407 111 349.564 111H435.029C458.186 111 473.675 134.835 464.271 155.996L456.492 173.498C453.924 179.276 448.194 183 441.871 183H347.921C338.436 183 329.841 177.414 325.989 168.747L320.322 155.996Z" fill="#CCBF92"/>
</g>
<path d="M325.989 168.747L318.679 171.996L325.989 168.747ZM456.492 173.498L463.802 176.747L456.492 173.498ZM464.271 155.996L456.96 152.747L464.271 155.996ZM320.322 155.996L327.633 152.747L320.322 155.996ZM349.564 119H435.029V103H349.564V119ZM456.96 152.747L449.181 170.249L463.802 176.747L471.581 159.246L456.96 152.747ZM441.871 175H347.921V191H441.871V175ZM333.3 165.498L327.633 152.747L313.012 159.246L318.679 171.996L333.3 165.498ZM347.921 175C341.598 175 335.868 171.276 333.3 165.498L318.679 171.996C323.815 183.553 335.275 191 347.921 191V175ZM449.181 170.249C447.897 173.138 445.032 175 441.871 175V191C451.355 191 459.95 185.414 463.802 176.747L449.181 170.249ZM435.029 119C452.396 119 464.014 136.876 456.96 152.747L471.581 159.246C483.337 132.794 463.975 103 435.029 103V119ZM349.564 103C320.618 103 301.256 132.794 313.012 159.246L327.633 152.747C320.579 136.876 332.197 119 349.564 119V103Z" fill="#1F2024" mask="url(#path-44-inside-6)"/>
<circle cx="365.5" cy="150.5" r="12.5" fill="#1F2024"/>
<circle cx="429.5" cy="150.5" r="12.5" fill="#1F2024"/>
</g>
<path d="M215.789 107C219.219 107 222.073 104.181 221.262 100.848C220.947 99.5549 220.532 98.2852 220.021 97.0502C218.714 93.8958 216.799 91.0295 214.385 88.6152C211.97 86.2009 209.104 84.2858 205.95 82.9791C202.795 81.6725 199.414 81 196 81C192.586 81 189.205 81.6725 186.05 82.9791C182.896 84.2858 180.03 86.2009 177.615 88.6152C175.201 91.0295 173.286 93.8958 171.979 97.0502C171.468 98.2852 171.053 99.5549 170.738 100.848C169.927 104.181 172.781 107 176.211 107H177.09C180.035 107 182.329 104.525 183.456 101.804C184.138 100.157 185.138 98.66 186.399 97.3991C187.66 96.1383 189.157 95.1382 190.804 94.4559C192.451 93.7735 194.217 93.4223 196 93.4223C197.783 93.4223 199.549 93.7735 201.196 94.4559C202.843 95.1382 204.34 96.1383 205.601 97.3991C206.862 98.6599 207.862 100.157 208.544 101.804C209.671 104.525 211.965 107 214.91 107H215.789Z" fill="#E36776" fill-opacity="0.5"/>
<path d="M212 107.013C208 90.9957 184 90.9957 180 107.013" stroke="#1F2024" stroke-width="10" stroke-linecap="round" stroke-linejoin="round"/>
<path d="M179 106.255C170.614 101.764 167.048 98.2963 163.5 89.7549" stroke="#1F2024" stroke-width="8" stroke-linecap="round" stroke-linejoin="round"/>
<path d="M187.5 97.7549C181.379 93.989 178.307 89.5867 175.5 82.7549" stroke="#1F2024" stroke-width="8" stroke-linecap="round" stroke-linejoin="round"/>
<path d="M293.211 107C289.781 107 286.927 104.181 287.738 100.848C288.053 99.5549 288.468 98.2852 288.979 97.0502C290.286 93.8958 292.201 91.0295 294.615 88.6152C297.03 86.2009 299.896 84.2858 303.05 82.9791C306.205 81.6725 309.586 81 313 81C316.414 81 319.795 81.6725 322.95 82.9791C326.104 84.2858 328.97 86.2009 331.385 88.6152C333.799 91.0295 335.714 93.8958 337.021 97.0502C337.532 98.2852 337.947 99.5549 338.262 100.848C339.073 104.181 336.219 107 332.789 107H331.91C328.965 107 326.671 104.525 325.544 101.804C324.862 100.157 323.862 98.66 322.601 97.3991C321.34 96.1383 319.843 95.1382 318.196 94.4559C316.549 93.7735 314.783 93.4223 313 93.4223C311.217 93.4223 309.451 93.7735 307.804 94.4559C306.157 95.1382 304.66 96.1383 303.399 97.3991C302.138 98.6599 301.138 100.157 300.456 101.804C299.329 104.525 297.035 107 294.09 107H293.211Z" fill="#E36776" fill-opacity="0.5"/>
<path d="M297 107.013C301 90.9957 325 90.9957 329 107.013" stroke="#1F2024" stroke-width="10" stroke-linecap="round" stroke-linejoin="round"/>
<path d="M330 106.255C338.386 101.764 341.952 98.2963 345.5 89.7549" stroke="#1F2024" stroke-width="8" stroke-linecap="round" stroke-linejoin="round"/>
<path d="M321.5 97.7549C327.621 93.989 330.693 89.5867 333.5 82.7549" stroke="#1F2024" stroke-width="8" stroke-linecap="round" stroke-linejoin="round"/>
<circle cx="140" cy="143" r="31" fill="#E36776" fill-opacity="0.5"/>
<path d="M47.6298 127.865C48.7516 124.468 52.4587 122.573 55.5818 124.317C59.687 126.611 63.2931 129.743 66.1517 133.536C70.3173 139.063 72.697 145.729 72.9729 152.645C73.2487 159.56 71.4075 166.395 67.6953 172.236C63.9831 178.078 58.5767 182.647 52.1985 185.333C45.8203 188.02 38.774 188.696 32.0012 187.272C25.2285 185.847 19.0517 182.389 14.2964 177.361C9.54108 172.332 6.43362 165.972 5.38925 159.13C0.897329 146.144 16.1129 145.134 17.181 152.923C16.8764 154.985 17.8778 155.092 18.1959 157.176C18.8424 161.41 20.7658 165.347 23.7092 168.46C26.6526 171.572 30.4758 173.712 34.6679 174.594C38.8601 175.476 43.2215 175.057 47.1694 173.394C51.1174 171.731 54.4638 168.903 56.7615 165.288C59.0593 161.672 60.1989 157.442 60.0282 153.161C59.8574 148.881 58.3844 144.754 55.806 141.333C54.5373 139.65 53.0307 138.177 51.3429 136.955C48.4454 134.856 46.5081 131.262 47.6298 127.865Z" fill="#EDB146"/>
<path fill-rule="evenodd" clip-rule="evenodd" d="M43.8316 126.611C45.5644 121.364 51.7493 117.595 57.5327 120.826C62.1208 123.389 66.1512 126.889 69.3461 131.128C74.0018 137.306 76.6615 144.756 76.9698 152.486C77.2781 160.215 75.2203 167.854 71.0713 174.382C66.9224 180.911 60.8799 186.017 53.7513 189.02C46.6227 192.023 38.7475 192.779 31.1779 191.186C23.6084 189.594 16.705 185.73 11.3902 180.109C6.07541 174.489 2.60236 167.381 1.43512 159.734C0.63413 154.487 0.0638047 153.339 1.43517 148.266C8.1993 123.241 21.7653 160.582 26.6156 165.711C28.9995 168.232 32.096 169.966 35.4914 170.68C38.8867 171.394 42.4192 171.055 45.6167 169.708C48.8143 168.361 51.5246 166.071 53.3857 163.142C55.2467 160.214 56.1697 156.788 56.0314 153.321C55.8931 149.854 54.7001 146.512 52.6118 143.741C51.5842 142.378 50.364 141.184 48.9969 140.195C45.2989 137.517 41.9593 132.281 43.8316 126.611ZM52.5476 127.788C52.1078 127.993 51.6501 128.448 51.4282 129.12C51.057 130.244 51.592 132.197 53.689 133.715C55.6976 135.169 57.4906 136.923 59.0004 138.926C62.0689 142.997 63.8219 147.908 64.0251 153.002C64.2282 158.096 62.872 163.131 60.1375 167.433C57.403 171.736 53.4206 175.102 48.7223 177.081C44.024 179.06 38.8336 179.558 33.8446 178.509C28.8557 177.459 24.3058 174.912 20.803 171.208C17.3001 167.504 15.0111 162.819 14.2418 157.779C14.0418 156.469 14.3519 154.39 14.2953 152.5C13 152 11 151 9.42076 149.239C8.66018 151.803 9.13119 157.136 9.34351 158.527C10.265 164.564 13.0069 170.176 17.2028 174.613C21.3987 179.05 26.8487 182.101 32.8247 183.358C38.8006 184.615 45.0179 184.018 50.6458 181.647C56.2736 179.277 61.044 175.245 64.3195 170.091C67.5949 164.937 69.2195 158.906 68.9762 152.804C68.7328 146.703 66.633 140.82 62.9574 135.943C60.4352 132.597 57.2534 129.833 53.631 127.81C53.2856 127.617 52.9406 127.604 52.5476 127.788Z" fill="#1F2024"/>
<defs>
<filter id="filter0_i" x="84" y="153" width="332" height="216" filterUnits="userSpaceOnUse" color-interpolation-filters="sRGB">
<feFlood flood-opacity="0" result="BackgroundImageFix"/>
<feBlend mode="normal" in="SourceGraphic" in2="BackgroundImageFix" result="shape"/>
<feColorMatrix in="SourceAlpha" type="matrix" values="0 0 0 0 0 0 0 0 0 0 0 0 0 0 0 0 0 0 127 0" result="hardAlpha"/>
<feOffset dx="-24" dy="8"/>
<feComposite in2="hardAlpha" operator="arithmetic" k2="-1" k3="1"/>
<feColorMatrix type="matrix" values="0 0 0 0 1 0 0 0 0 1 0 0 0 0 1 0 0 0 0.25 0"/>
<feBlend mode="normal" in2="shape" result="effect1_innerShadow"/>
</filter>
<filter id="filter1_ii" x="84" y="153" width="54" height="216" filterUnits="userSpaceOnUse" color-interpolation-filters="sRGB">
<feFlood flood-opacity="0" result="BackgroundImageFix"/>
<feBlend mode="normal" in="SourceGraphic" in2="BackgroundImageFix" result="shape"/>
<feColorMatrix in="SourceAlpha" type="matrix" values="0 0 0 0 0 0 0 0 0 0 0 0 0 0 0 0 0 0 127 0" result="hardAlpha"/>
<feOffset dy="-16"/>
<feComposite in2="hardAlpha" operator="arithmetic" k2="-1" k3="1"/>
<feColorMatrix type="matrix" values="0 0 0 0 0 0 0 0 0 0 0 0 0 0 0 0 0 0 0.25 0"/>
<feBlend mode="normal" in2="shape" result="effect1_innerShadow"/>
<feColorMatrix in="SourceAlpha" type="matrix" values="0 0 0 0 0 0 0 0 0 0 0 0 0 0 0 0 0 0 127 0" result="hardAlpha"/>
<feOffset dy="16"/>
<feComposite in2="hardAlpha" operator="arithmetic" k2="-1" k3="1"/>
<feColorMatrix type="matrix" values="0 0 0 0 1 0 0 0 0 1 0 0 0 0 1 0 0 0 0.25 0"/>
<feBlend mode="normal" in2="effect1_innerShadow" result="effect2_innerShadow"/>
</filter>
<filter id="filter2_ii" x="110.667" y="153" width="54" height="216" filterUnits="userSpaceOnUse" color-interpolation-filters="sRGB">
<feFlood flood-opacity="0" result="BackgroundImageFix"/>
<feBlend mode="normal" in="SourceGraphic" in2="BackgroundImageFix" result="shape"/>
<feColorMatrix in="SourceAlpha" type="matrix" values="0 0 0 0 0 0 0 0 0 0 0 0 0 0 0 0 0 0 127 0" result="hardAlpha"/>
<feOffset dy="-16"/>
<feComposite in2="hardAlpha" operator="arithmetic" k2="-1" k3="1"/>
<feColorMatrix type="matrix" values="0 0 0 0 0 0 0 0 0 0 0 0 0 0 0 0 0 0 0.25 0"/>
<feBlend mode="normal" in2="shape" result="effect1_innerShadow"/>
<feColorMatrix in="SourceAlpha" type="matrix" values="0 0 0 0 0 0 0 0 0 0 0 0 0 0 0 0 0 0 127 0" result="hardAlpha"/>
<feOffset dy="16"/>
<feComposite in2="hardAlpha" operator="arithmetic" k2="-1" k3="1"/>
<feColorMatrix type="matrix" values="0 0 0 0 1 0 0 0 0 1 0 0 0 0 1 0 0 0 0.25 0"/>
<feBlend mode="normal" in2="effect1_innerShadow" result="effect2_innerShadow"/>
</filter>
<filter id="filter3_ii" x="137.333" y="153" width="54" height="216" filterUnits="userSpaceOnUse" color-interpolation-filters="sRGB">
<feFlood flood-opacity="0" result="BackgroundImageFix"/>
<feBlend mode="normal" in="SourceGraphic" in2="BackgroundImageFix" result="shape"/>
<feColorMatrix in="SourceAlpha" type="matrix" values="0 0 0 0 0 0 0 0 0 0 0 0 0 0 0 0 0 0 127 0" result="hardAlpha"/>
<feOffset dy="-16"/>
<feComposite in2="hardAlpha" operator="arithmetic" k2="-1" k3="1"/>
<feColorMatrix type="matrix" values="0 0 0 0 0 0 0 0 0 0 0 0 0 0 0 0 0 0 0.25 0"/>
<feBlend mode="normal" in2="shape" result="effect1_innerShadow"/>
<feColorMatrix in="SourceAlpha" type="matrix" values="0 0 0 0 0 0 0 0 0 0 0 0 0 0 0 0 0 0 127 0" result="hardAlpha"/>
<feOffset dy="16"/>
<feComposite in2="hardAlpha" operator="arithmetic" k2="-1" k3="1"/>
<feColorMatrix type="matrix" values="0 0 0 0 1 0 0 0 0 1 0 0 0 0 1 0 0 0 0.25 0"/>
<feBlend mode="normal" in2="effect1_innerShadow" result="effect2_innerShadow"/>
</filter>
<filter id="filter4_ii" x="164" y="153" width="54" height="216" filterUnits="userSpaceOnUse" color-interpolation-filters="sRGB">
<feFlood flood-opacity="0" result="BackgroundImageFix"/>
<feBlend mode="normal" in="SourceGraphic" in2="BackgroundImageFix" result="shape"/>
<feColorMatrix in="SourceAlpha" type="matrix" values="0 0 0 0 0 0 0 0 0 0 0 0 0 0 0 0 0 0 127 0" result="hardAlpha"/>
<feOffset dy="-16"/>
<feComposite in2="hardAlpha" operator="arithmetic" k2="-1" k3="1"/>
<feColorMatrix type="matrix" values="0 0 0 0 0 0 0 0 0 0 0 0 0 0 0 0 0 0 0.25 0"/>
<feBlend mode="normal" in2="shape" result="effect1_innerShadow"/>
<feColorMatrix in="SourceAlpha" type="matrix" values="0 0 0 0 0 0 0 0 0 0 0 0 0 0 0 0 0 0 127 0" result="hardAlpha"/>
<feOffset dy="16"/>
<feComposite in2="hardAlpha" operator="arithmetic" k2="-1" k3="1"/>
<feColorMatrix type="matrix" values="0 0 0 0 1 0 0 0 0 1 0 0 0 0 1 0 0 0 0.25 0"/>
<feBlend mode="normal" in2="effect1_innerShadow" result="effect2_innerShadow"/>
</filter>
<filter id="filter5_d" x="213.353" y="204.276" width="77.6095" height="68.8971" filterUnits="userSpaceOnUse" color-interpolation-filters="sRGB">
<feFlood flood-opacity="0" result="BackgroundImageFix"/>
<feColorMatrix in="SourceAlpha" type="matrix" values="0 0 0 0 0 0 0 0 0 0 0 0 0 0 0 0 0 0 127 0" result="hardAlpha"/>
<feOffset dx="-4"/>
<feColorMatrix type="matrix" values="0 0 0 0 0.133333 0 0 0 0 0.133333 0 0 0 0 0.133333 0 0 0 1 0"/>
<feBlend mode="normal" in2="BackgroundImageFix" result="effect1_dropShadow"/>
<feBlend mode="normal" in="SourceGraphic" in2="effect1_dropShadow" result="shape"/>
</filter>
<filter id="filter6_d" x="313.853" y="204.276" width="77.6095" height="68.8971" filterUnits="userSpaceOnUse" color-interpolation-filters="sRGB">
<feFlood flood-opacity="0" result="BackgroundImageFix"/>
<feColorMatrix in="SourceAlpha" type="matrix" values="0 0 0 0 0 0 0 0 0 0 0 0 0 0 0 0 0 0 127 0" result="hardAlpha"/>
<feOffset dx="-4"/>
<feColorMatrix type="matrix" values="0 0 0 0 0.133333 0 0 0 0 0.133333 0 0 0 0 0.133333 0 0 0 1 0"/>
<feBlend mode="normal" in2="BackgroundImageFix" result="effect1_dropShadow"/>
<feBlend mode="normal" in="SourceGraphic" in2="effect1_dropShadow" result="shape"/>
</filter>
<filter id="filter7_d" x="5" y="0" width="462.065" height="306" filterUnits="userSpaceOnUse" color-interpolation-filters="sRGB">
<feFlood flood-opacity="0" result="BackgroundImageFix"/>
<feColorMatrix in="SourceAlpha" type="matrix" values="0 0 0 0 0 0 0 0 0 0 0 0 0 0 0 0 0 0 127 0" result="hardAlpha"/>
<feOffset dy="4"/>
<feColorMatrix type="matrix" values="0 0 0 0 0 0 0 0 0 0 0 0 0 0 0 0 0 0 0.25 0"/>
<feBlend mode="normal" in2="BackgroundImageFix" result="effect1_dropShadow"/>
<feBlend mode="normal" in="SourceGraphic" in2="effect1_dropShadow" result="shape"/>
</filter>
<filter id="filter8_ii" x="122" y="210" width="27" height="56" filterUnits="userSpaceOnUse" color-interpolation-filters="sRGB">
<feFlood flood-opacity="0" result="BackgroundImageFix"/>
<feBlend mode="normal" in="SourceGraphic" in2="BackgroundImageFix" result="shape"/>
<feColorMatrix in="SourceAlpha" type="matrix" values="0 0 0 0 0 0 0 0 0 0 0 0 0 0 0 0 0 0 127 0" result="hardAlpha"/>
<feOffset dx="16"/>
<feComposite in2="hardAlpha" operator="arithmetic" k2="-1" k3="1"/>
<feColorMatrix type="matrix" values="0 0 0 0 0 0 0 0 0 0 0 0 0 0 0 0 0 0 0.25 0"/>
<feBlend mode="normal" in2="shape" result="effect1_innerShadow"/>
<feColorMatrix in="SourceAlpha" type="matrix" values="0 0 0 0 0 0 0 0 0 0 0 0 0 0 0 0 0 0 127 0" result="hardAlpha"/>
<feOffset dx="-24" dy="8"/>
<feComposite in2="hardAlpha" operator="arithmetic" k2="-1" k3="1"/>
<feColorMatrix type="matrix" values="0 0 0 0 1 0 0 0 0 1 0 0 0 0 1 0 0 0 0.25 0"/>
<feBlend mode="normal" in2="effect1_innerShadow" result="effect2_innerShadow"/>
</filter>
<filter id="filter9_ii" x="97" y="246" width="73" height="56" filterUnits="userSpaceOnUse" color-interpolation-filters="sRGB">
<feFlood flood-opacity="0" result="BackgroundImageFix"/>
<feBlend mode="normal" in="SourceGraphic" in2="BackgroundImageFix" result="shape"/>
<feColorMatrix in="SourceAlpha" type="matrix" values="0 0 0 0 0 0 0 0 0 0 0 0 0 0 0 0 0 0 127 0" result="hardAlpha"/>
<feOffset dy="-16"/>
<feComposite in2="hardAlpha" operator="arithmetic" k2="-1" k3="1"/>
<feColorMatrix type="matrix" values="0 0 0 0 0 0 0 0 0 0 0 0 0 0 0 0 0 0 0.25 0"/>
<feBlend mode="normal" in2="shape" result="effect1_innerShadow"/>
<feColorMatrix in="SourceAlpha" type="matrix" values="0 0 0 0 0 0 0 0 0 0 0 0 0 0 0 0 0 0 127 0" result="hardAlpha"/>
<feOffset dy="16"/>
<feComposite in2="hardAlpha" operator="arithmetic" k2="-1" k3="1"/>
<feColorMatrix type="matrix" values="0 0 0 0 1 0 0 0 0 1 0 0 0 0 1 0 0 0 0.25 0"/>
<feBlend mode="normal" in2="effect1_innerShadow" result="effect2_innerShadow"/>
</filter>
<filter id="filter10_i" x="138" y="246" width="32" height="56" filterUnits="userSpaceOnUse" color-interpolation-filters="sRGB">
<feFlood flood-opacity="0" result="BackgroundImageFix"/>
<feBlend mode="normal" in="SourceGraphic" in2="BackgroundImageFix" result="shape"/>
<feColorMatrix in="SourceAlpha" type="matrix" values="0 0 0 0 0 0 0 0 0 0 0 0 0 0 0 0 0 0 127 0" result="hardAlpha"/>
<feOffset dx="-24" dy="8"/>
<feComposite in2="hardAlpha" operator="arithmetic" k2="-1" k3="1"/>
<feColorMatrix type="matrix" values="0 0 0 0 1 0 0 0 0 1 0 0 0 0 1 0 0 0 0.25 0"/>
<feBlend mode="normal" in2="shape" result="effect1_innerShadow"/>
</filter>
<filter id="filter11_ii" x="310" y="51.7549" width="115" height="92" filterUnits="userSpaceOnUse" color-interpolation-filters="sRGB">
<feFlood flood-opacity="0" result="BackgroundImageFix"/>
<feBlend mode="normal" in="SourceGraphic" in2="BackgroundImageFix" result="shape"/>
<feColorMatrix in="SourceAlpha" type="matrix" values="0 0 0 0 0 0 0 0 0 0 0 0 0 0 0 0 0 0 127 0" result="hardAlpha"/>
<feOffset dx="16"/>
<feComposite in2="hardAlpha" operator="arithmetic" k2="-1" k3="1"/>
<feColorMatrix type="matrix" values="0 0 0 0 0 0 0 0 0 0 0 0 0 0 0 0 0 0 0.25 0"/>
<feBlend mode="normal" in2="shape" result="effect1_innerShadow"/>
<feColorMatrix in="SourceAlpha" type="matrix" values="0 0 0 0 0 0 0 0 0 0 0 0 0 0 0 0 0 0 127 0" result="hardAlpha"/>
<feOffset dx="-24" dy="8"/>
<feComposite in2="hardAlpha" operator="arithmetic" k2="-1" k3="1"/>
<feColorMatrix type="matrix" values="0 0 0 0 1 0 0 0 0 1 0 0 0 0 1 0 0 0 0.25 0"/>
<feBlend mode="normal" in2="effect1_innerShadow" result="effect2_innerShadow"/>
</filter>
<filter id="filter12_ii" x="5" y="27" width="358.924" height="198.755" filterUnits="userSpaceOnUse" color-interpolation-filters="sRGB">
<feFlood flood-opacity="0" result="BackgroundImageFix"/>
<feBlend mode="normal" in="SourceGraphic" in2="BackgroundImageFix" result="shape"/>
<feColorMatrix in="SourceAlpha" type="matrix" values="0 0 0 0 0 0 0 0 0 0 0 0 0 0 0 0 0 0 127 0" result="hardAlpha"/>
<feOffset dx="16"/>
<feComposite in2="hardAlpha" operator="arithmetic" k2="-1" k3="1"/>
<feColorMatrix type="matrix" values="0 0 0 0 0 0 0 0 0 0 0 0 0 0 0 0 0 0 0.25 0"/>
<feBlend mode="normal" in2="shape" result="effect1_innerShadow"/>
<feColorMatrix in="SourceAlpha" type="matrix" values="0 0 0 0 0 0 0 0 0 0 0 0 0 0 0 0 0 0 127 0" result="hardAlpha"/>
<feOffset dx="-24" dy="8"/>
<feComposite in2="hardAlpha" operator="arithmetic" k2="-1" k3="1"/>
<feColorMatrix type="matrix" values="0 0 0 0 1 0 0 0 0 1 0 0 0 0 1 0 0 0 0.25 0"/>
<feBlend mode="normal" in2="effect1_innerShadow" result="effect2_innerShadow"/>
</filter>
<filter id="filter13_ii" x="317.528" y="111" width="149.536" height="72" filterUnits="userSpaceOnUse" color-interpolation-filters="sRGB">
<feFlood flood-opacity="0" result="BackgroundImageFix"/>
<feBlend mode="normal" in="SourceGraphic" in2="BackgroundImageFix" result="shape"/>
<feColorMatrix in="SourceAlpha" type="matrix" values="0 0 0 0 0 0 0 0 0 0 0 0 0 0 0 0 0 0 127 0" result="hardAlpha"/>
<feOffset dx="16"/>
<feComposite in2="hardAlpha" operator="arithmetic" k2="-1" k3="1"/>
<feColorMatrix type="matrix" values="0 0 0 0 0 0 0 0 0 0 0 0 0 0 0 0 0 0 0.25 0"/>
<feBlend mode="normal" in2="shape" result="effect1_innerShadow"/>
<feColorMatrix in="SourceAlpha" type="matrix" values="0 0 0 0 0 0 0 0 0 0 0 0 0 0 0 0 0 0 127 0" result="hardAlpha"/>
<feOffset dx="-24" dy="8"/>
<feComposite in2="hardAlpha" operator="arithmetic" k2="-1" k3="1"/>
<feColorMatrix type="matrix" values="0 0 0 0 1 0 0 0 0 1 0 0 0 0 1 0 0 0 0.25 0"/>
<feBlend mode="normal" in2="effect1_innerShadow" result="effect2_innerShadow"/>
</filter>
</defs>
</svg>
