<svg width="374" height="400" viewBox="0 0 374 400" fill="none" xmlns="http://www.w3.org/2000/svg">
<g filter="url(#filter0_i)">
<path d="M36 169C36 155.745 46.7452 145 60 145H336C349.255 145 360 155.745 360 169V329C360 342.255 349.255 353 336 353H60C46.7452 353 36 342.255 36 329V169Z" fill="#FF5252"/>
</g>
<path d="M36 169C36 155.745 46.7452 145 60 145H336C349.255 145 360 155.745 360 169V329C360 342.255 349.255 353 336 353H60C46.7452 353 36 342.255 36 329V169Z" stroke="#1F2024" stroke-width="8"/>
<g filter="url(#filter1_ii)">
<path fill-rule="evenodd" clip-rule="evenodd" d="M60 145C46.7452 145 36 155.745 36 169V329C36 342.255 46.7452 353 60 353H86C72.7452 353 62 342.255 62 329V169C62 155.745 72.7452 145 86 145H60Z" fill="#0022D3" fill-opacity="0.8"/>
</g>
<path d="M40 169C40 157.954 48.9543 149 60 149V141C44.536 141 32 153.536 32 169H40ZM40 329V169H32V329H40ZM60 349C48.9543 349 40 340.046 40 329H32C32 344.464 44.536 357 60 357V349ZM86 349H60V357H86V349ZM86 349C74.9543 349 66 340.046 66 329H58C58 344.464 70.536 357 86 357V349ZM66 329V169H58V329H66ZM66 169C66 157.954 74.9543 149 86 149V141C70.536 141 58 153.536 58 169H66ZM60 149H86V141H60V149Z" fill="#1F2024"/>
<g filter="url(#filter2_ii)">
<path fill-rule="evenodd" clip-rule="evenodd" d="M86.6667 145C73.4119 145 62.6667 155.745 62.6667 169V329C62.6667 342.255 73.4119 353 86.6667 353H112.667C99.4119 353 88.6667 342.255 88.6667 329V169C88.6667 155.745 99.4119 145 112.667 145H86.6667Z" fill="#0022D3" fill-opacity="0.7"/>
</g>
<path d="M66.6667 169C66.6667 157.954 75.6211 149 86.6667 149V141C71.2028 141 58.6667 153.536 58.6667 169H66.6667ZM66.6667 329V169H58.6667V329H66.6667ZM86.6667 349C75.6211 349 66.6667 340.046 66.6667 329H58.6667C58.6667 344.464 71.2028 357 86.6667 357V349ZM112.667 349H86.6667V357H112.667V349ZM112.667 349C101.621 349 92.6667 340.046 92.6667 329H84.6667C84.6667 344.464 97.2028 357 112.667 357V349ZM92.6667 329V169H84.6667V329H92.6667ZM92.6667 169C92.6667 157.954 101.621 149 112.667 149V141C97.2028 141 84.6667 153.536 84.6667 169H92.6667ZM86.6667 149H112.667V141H86.6667V149Z" fill="#1F2024"/>
<g filter="url(#filter3_ii)">
<path fill-rule="evenodd" clip-rule="evenodd" d="M113.333 145C100.078 145 89.3333 155.745 89.3333 169V329C89.3333 342.255 100.078 353 113.333 353H139.333C126.078 353 115.333 342.255 115.333 329V169C115.333 155.745 126.078 145 139.333 145H113.333Z" fill="#0022D3" fill-opacity="0.5"/>
</g>
<path d="M93.3333 169C93.3333 157.954 102.288 149 113.333 149V141C97.8693 141 85.3333 153.536 85.3333 169H93.3333ZM93.3333 329V169H85.3333V329H93.3333ZM113.333 349C102.288 349 93.3333 340.046 93.3333 329H85.3333C85.3333 344.464 97.8693 357 113.333 357V349ZM139.333 349H113.333V357H139.333V349ZM139.333 349C128.288 349 119.333 340.046 119.333 329H111.333C111.333 344.464 123.869 357 139.333 357V349ZM119.333 329V169H111.333V329H119.333ZM119.333 169C119.333 157.954 128.288 149 139.333 149V141C123.869 141 111.333 153.536 111.333 169H119.333ZM113.333 149H139.333V141H113.333V149Z" fill="#1F2024"/>
<g filter="url(#filter4_ii)">
<path fill-rule="evenodd" clip-rule="evenodd" d="M140 145C126.745 145 116 155.745 116 169V329C116 342.255 126.745 353 140 353H166C152.745 353 142 342.255 142 329V169C142 155.745 152.745 145 166 145H140Z" fill="#0022D3" fill-opacity="0.3"/>
</g>
<path d="M120 169C120 157.954 128.954 149 140 149V141C124.536 141 112 153.536 112 169H120ZM120 329V169H112V329H120ZM140 349C128.954 349 120 340.046 120 329H112C112 344.464 124.536 357 140 357V349ZM166 349H140V357H166V349ZM166 349C154.954 349 146 340.046 146 329H138C138 344.464 150.536 357 166 357V349ZM146 329V169H138V329H146ZM146 169C146 157.954 154.954 149 166 149V141C150.536 141 138 153.536 138 169H146ZM140 149H166V141H140V149Z" fill="#1F2024"/>
<g filter="url(#filter5_ddi)">
<rect x="164" y="195" width="28" height="64" fill="#F42E3A"/>
<rect x="192" y="195" width="28" height="64" fill="#F93B84"/>
<rect x="220" y="195" width="28" height="64" fill="#86BC5A"/>
<rect x="248" y="195" width="28" height="64" fill="#45BBE8"/>
<rect x="276" y="195" width="28" height="64" fill="#FCF155"/>
<rect x="304" y="195" width="28" height="64" fill="white"/>
<path d="M180 199H316V191H180V199ZM328 211V243H336V211H328ZM316 255H180V263H316V255ZM168 243V211H160V243H168ZM180 255C173.373 255 168 249.627 168 243H160C160 254.046 168.954 263 180 263V255ZM328 243C328 249.627 322.627 255 316 255V263C327.046 263 336 254.046 336 243H328ZM316 199C322.627 199 328 204.373 328 211H336C336 199.954 327.046 191 316 191V199ZM180 191C168.954 191 160 199.954 160 211H168C168 204.373 173.373 199 180 199V191Z" fill="#1F2024"/>
</g>
<g filter="url(#filter6_d)">
<g filter="url(#filter7_i)">
<path d="M37 237C37 219.327 51.3269 205 69 205H85C102.673 205 117 219.327 117 237C117 254.673 102.673 269 85 269H69C51.3269 269 37 254.673 37 237Z" fill="#FF5252"/>
</g>
<path d="M37 237C37 219.327 51.3269 205 69 205H85C102.673 205 117 219.327 117 237C117 254.673 102.673 269 85 269H69C51.3269 269 37 254.673 37 237Z" stroke="#1F2024" stroke-width="8"/>
<g filter="url(#filter8_ii)">
<path d="M37 237C37 219.327 51.3269 205 69 205C86.6731 205 101 219.327 101 237C101 254.673 86.6731 269 69 269C51.3269 269 37 254.673 37 237Z" fill="#E22C2C"/>
</g>
<path d="M37 237C37 219.327 51.3269 205 69 205C86.6731 205 101 219.327 101 237C101 254.673 86.6731 269 69 269C51.3269 269 37 254.673 37 237Z" stroke="#1F2024" stroke-width="8"/>
<line x1="78" y1="267" x2="78" y2="307" stroke="#1F2024" stroke-width="8"/>
<g filter="url(#filter9_ii)">
<path d="M74 293L110 341L74 389L38 341L74 293Z" fill="#EB0D18"/>
</g>
<path d="M74 293L110 341L74 389L38 341L74 293Z" stroke="#1F2024" stroke-width="8"/>
</g>
<path d="M219.307 286.706C235.602 292.612 244.02 293.409 258.033 291.314" stroke="#1F2024" stroke-width="8" stroke-linecap="round" stroke-linejoin="round"/>
<path d="M207 294C204.791 294 203 295.791 203 298C203 300.209 204.791 302 207 302V294ZM211.592 297.087L210.061 293.391L210.061 293.391L211.592 297.087ZM215.485 294.485L218.314 297.314H218.314L215.485 294.485ZM218.087 290.592L214.391 289.061L214.391 289.061L218.087 290.592ZM218.087 281.408L214.391 282.939L214.391 282.939L218.087 281.408ZM215.485 277.515L218.314 274.686L218.314 274.686L215.485 277.515ZM211.592 274.913L213.123 271.218L213.123 271.218L211.592 274.913ZM207 302C209.101 302 211.182 301.586 213.123 300.782L210.061 293.391C209.091 293.793 208.051 294 207 294V302ZM213.123 300.782C215.064 299.978 216.828 298.799 218.314 297.314L212.657 291.657C211.914 292.4 211.032 292.989 210.061 293.391L213.123 300.782ZM218.314 297.314C219.799 295.828 220.978 294.064 221.782 292.123L214.391 289.061C213.989 290.032 213.4 290.914 212.657 291.657L218.314 297.314ZM221.782 292.123C222.586 290.182 223 288.101 223 286H215C215 287.051 214.793 288.091 214.391 289.061L221.782 292.123ZM223 286C223 283.899 222.586 281.818 221.782 279.877L214.391 282.939C214.793 283.909 215 284.949 215 286H223ZM221.782 279.877C220.978 277.936 219.799 276.172 218.314 274.686L212.657 280.343C213.4 281.086 213.989 281.968 214.391 282.939L221.782 279.877ZM218.314 274.686C216.828 273.201 215.064 272.022 213.123 271.218L210.061 278.609C211.032 279.011 211.914 279.6 212.657 280.343L218.314 274.686ZM213.123 271.218C211.182 270.414 209.101 270 207 270V278C208.051 278 209.091 278.207 210.061 278.609L213.123 271.218Z" fill="#1F2024"/>
<path d="M240.451 4C188.19 4 180.827 42.8948 142.115 71.1864C130.515 79.6645 117.65 85.4555 102.493 85.9487C79.3824 86.7007 41.9657 77.5217 33.9814 75.4846C32.9442 75.22 31.9191 74.9978 30.8495 74.9568C16.3884 74.4019 4 91.098 4 106.686C4 139.498 59.4034 145 81.2991 145H326.847C377.211 145 383.675 76.9103 340.258 85.1033C323.761 88.2165 306.517 77.535 302.64 60.4064C295.137 27.2649 275.788 4 240.451 4Z" fill="#F9E174" stroke="#1F2024" stroke-width="8"/>
<path d="M367.301 117.571C368.329 107.313 355.64 103.588 341.954 106.167C326.551 109.07 296.677 95.4627 293.057 79.4906C287.506 55.0052 277.957 25.253 249.308 22.2138C230.039 20.1695 210.696 25.9172 195.883 40.9976C191.068 45.8993 186.171 51.3434 181.134 56.9424C160.269 80.1371 137.011 105.991 107.33 106.955C85.9591 107.65 51.488 99.2616 43.5839 97.2547C28.9777 93.546 15.3672 108.798 15.3672 123.861C15.3672 140.053 70.6343 145 81.2988 145H326.847C348.977 145 362.631 131.738 367.301 117.571Z" fill="#4A4A4E" stroke="#1F2024" stroke-width="8"/>
<mask id="path-27-outside-1" maskUnits="userSpaceOnUse" x="203.937" y="46.2441" width="88" height="88" fill="black">
<rect fill="white" x="203.937" y="46.2441" width="88" height="88"/>
<path fill-rule="evenodd" clip-rule="evenodd" d="M215.94 61.9554C215.549 61.5649 214.916 61.5649 214.525 61.9554L212.23 64.2509C211.839 64.6415 211.839 65.2746 212.23 65.6652L219.162 72.597C219.552 72.9876 220.185 72.9876 220.576 72.597L222.407 70.7657C222.798 70.3752 223.431 70.3752 223.822 70.7657L227.971 74.9154C228.362 75.3059 228.995 75.3059 229.385 74.9154L232.758 71.5433C233.148 71.1528 233.148 70.5196 232.758 70.1291L228.608 65.9794C228.217 65.5889 228.217 64.9557 228.608 64.5652L230.29 62.8831C230.68 62.4926 230.68 61.8594 230.29 61.4689L223.358 54.537C222.968 54.1465 222.334 54.1465 221.944 54.537L219.649 56.8318C219.258 57.2224 219.258 57.8555 219.649 58.2461L222.872 61.4689C223.262 61.8594 223.262 62.4926 222.872 62.8831L220.577 65.1783C220.186 65.5688 219.553 65.5688 219.163 65.1783L215.94 61.9554ZM279.029 61.9555C279.419 61.5649 280.053 61.5649 280.443 61.9555L282.739 64.2509C283.129 64.6415 283.129 65.2746 282.739 65.6652L275.807 72.597C275.416 72.9876 274.783 72.9876 274.392 72.597L272.561 70.7657C272.171 70.3752 271.537 70.3752 271.147 70.7657L266.997 74.9154C266.607 75.3059 265.974 75.3059 265.583 74.9154L262.211 71.5433C261.82 71.1528 261.82 70.5196 262.211 70.1291L266.361 65.9795C266.751 65.5889 266.751 64.9558 266.361 64.5652L264.679 62.8831C264.288 62.4926 264.288 61.8594 264.679 61.4689L271.61 54.537C272.001 54.1465 272.634 54.1465 273.025 54.537L275.32 56.8319C275.71 57.2224 275.71 57.8556 275.32 58.2461L272.097 61.4689C271.706 61.8594 271.706 62.4926 272.097 62.8831L274.392 65.1783C274.782 65.5688 275.416 65.5688 275.806 65.1783L279.029 61.9555ZM212.23 113.918C211.839 114.308 211.839 114.941 212.23 115.332L214.525 117.627C214.916 118.018 215.549 118.018 215.94 117.627L219.163 114.405C219.553 114.014 220.186 114.014 220.577 114.405L222.872 116.7C223.262 117.09 223.262 117.723 222.872 118.114L219.649 121.337C219.258 121.727 219.258 122.361 219.649 122.751L221.944 125.046C222.334 125.436 222.967 125.436 223.358 125.046L230.29 118.114C230.68 117.723 230.68 117.09 230.29 116.7L228.608 115.018C228.217 114.627 228.217 113.994 228.608 113.603L232.758 109.454C233.148 109.063 233.148 108.43 232.758 108.04L229.385 104.667C228.995 104.277 228.362 104.277 227.971 104.667L223.822 108.817C223.431 109.208 222.798 109.208 222.407 108.817L220.576 106.986C220.185 106.595 219.552 106.595 219.162 106.986L212.23 113.918ZM279.029 117.627C279.419 118.018 280.053 118.018 280.443 117.627L282.739 115.332C283.129 114.941 283.129 114.308 282.739 113.918L275.807 106.986C275.416 106.595 274.783 106.595 274.392 106.986L272.561 108.817C272.171 109.208 271.537 109.208 271.147 108.817L266.997 104.667C266.607 104.277 265.974 104.277 265.583 104.667L262.211 108.04C261.82 108.43 261.82 109.063 262.211 109.454L266.361 113.603C266.751 113.994 266.751 114.627 266.361 115.018L264.679 116.7C264.288 117.09 264.288 117.723 264.679 118.114L271.61 125.046C272.001 125.436 272.634 125.436 273.025 125.046L275.319 122.751C275.71 122.36 275.71 121.727 275.319 121.337L272.097 118.114C271.706 117.723 271.706 117.09 272.097 116.7L274.392 114.405C274.782 114.014 275.416 114.014 275.806 114.405L279.029 117.627ZM261.852 75.0001C261.852 74.4478 261.404 74.0001 260.852 74.0001H234C233.448 74.0001 233 74.4478 233 75.0001V90.8253C233 91.3776 233.448 91.8253 234 91.8253H234.785C235.337 91.8253 235.785 92.2731 235.785 92.8253V95.4995C235.785 96.0518 236.233 96.4995 236.785 96.4995H238.838C239.391 96.4995 239.838 96.0518 239.838 95.4995V92.8253C239.838 92.2731 240.286 91.8253 240.838 91.8253H241.343C241.896 91.8253 242.343 92.2731 242.343 92.8253V95.4995C242.343 96.0518 242.791 96.4995 243.343 96.4995H245.397C245.949 96.4995 246.397 96.0518 246.397 95.4995V92.8253C246.397 92.2731 246.844 91.8253 247.397 91.8253H247.9C248.452 91.8253 248.9 92.2731 248.9 92.8253V95.4995C248.9 96.0518 249.348 96.4995 249.9 96.4995H251.953C252.506 96.4995 252.953 96.0518 252.953 95.4995V92.8253C252.953 92.2731 253.401 91.8253 253.953 91.8253H254.458C255.01 91.8253 255.458 92.2731 255.458 92.8253V95.4995C255.458 96.0518 255.906 96.4995 256.458 96.4995H258.511C259.064 96.4995 259.511 96.0518 259.511 95.4995V92.8253C259.511 92.2731 259.959 91.8253 260.511 91.8253H260.852C261.404 91.8253 261.852 91.3776 261.852 90.8253V75.0001ZM259.102 101.61C259.102 101.058 258.655 100.61 258.102 100.61H236.496C235.944 100.61 235.496 101.058 235.496 101.61V104.856C235.496 105.408 235.944 105.856 236.496 105.856H258.102C258.655 105.856 259.102 105.408 259.102 104.856V101.61ZM257.143 80.0001C257.143 79.4478 256.696 79.0001 256.143 79.0001H239C238.448 79.0001 238 79.4478 238 80.0001V85.7155C238 86.2678 238.448 86.7155 239 86.7155H256.143C256.696 86.7155 257.143 86.2678 257.143 85.7155V80.0001Z"/>
</mask>
<path fill-rule="evenodd" clip-rule="evenodd" d="M215.94 61.9554C215.549 61.5649 214.916 61.5649 214.525 61.9554L212.23 64.2509C211.839 64.6415 211.839 65.2746 212.23 65.6652L219.162 72.597C219.552 72.9876 220.185 72.9876 220.576 72.597L222.407 70.7657C222.798 70.3752 223.431 70.3752 223.822 70.7657L227.971 74.9154C228.362 75.3059 228.995 75.3059 229.385 74.9154L232.758 71.5433C233.148 71.1528 233.148 70.5196 232.758 70.1291L228.608 65.9794C228.217 65.5889 228.217 64.9557 228.608 64.5652L230.29 62.8831C230.68 62.4926 230.68 61.8594 230.29 61.4689L223.358 54.537C222.968 54.1465 222.334 54.1465 221.944 54.537L219.649 56.8318C219.258 57.2224 219.258 57.8555 219.649 58.2461L222.872 61.4689C223.262 61.8594 223.262 62.4926 222.872 62.8831L220.577 65.1783C220.186 65.5688 219.553 65.5688 219.163 65.1783L215.94 61.9554ZM279.029 61.9555C279.419 61.5649 280.053 61.5649 280.443 61.9555L282.739 64.2509C283.129 64.6415 283.129 65.2746 282.739 65.6652L275.807 72.597C275.416 72.9876 274.783 72.9876 274.392 72.597L272.561 70.7657C272.171 70.3752 271.537 70.3752 271.147 70.7657L266.997 74.9154C266.607 75.3059 265.974 75.3059 265.583 74.9154L262.211 71.5433C261.82 71.1528 261.82 70.5196 262.211 70.1291L266.361 65.9795C266.751 65.5889 266.751 64.9558 266.361 64.5652L264.679 62.8831C264.288 62.4926 264.288 61.8594 264.679 61.4689L271.61 54.537C272.001 54.1465 272.634 54.1465 273.025 54.537L275.32 56.8319C275.71 57.2224 275.71 57.8556 275.32 58.2461L272.097 61.4689C271.706 61.8594 271.706 62.4926 272.097 62.8831L274.392 65.1783C274.782 65.5688 275.416 65.5688 275.806 65.1783L279.029 61.9555ZM212.23 113.918C211.839 114.308 211.839 114.941 212.23 115.332L214.525 117.627C214.916 118.018 215.549 118.018 215.94 117.627L219.163 114.405C219.553 114.014 220.186 114.014 220.577 114.405L222.872 116.7C223.262 117.09 223.262 117.723 222.872 118.114L219.649 121.337C219.258 121.727 219.258 122.361 219.649 122.751L221.944 125.046C222.334 125.436 222.967 125.436 223.358 125.046L230.29 118.114C230.68 117.723 230.68 117.09 230.29 116.7L228.608 115.018C228.217 114.627 228.217 113.994 228.608 113.603L232.758 109.454C233.148 109.063 233.148 108.43 232.758 108.04L229.385 104.667C228.995 104.277 228.362 104.277 227.971 104.667L223.822 108.817C223.431 109.208 222.798 109.208 222.407 108.817L220.576 106.986C220.185 106.595 219.552 106.595 219.162 106.986L212.23 113.918ZM279.029 117.627C279.419 118.018 280.053 118.018 280.443 117.627L282.739 115.332C283.129 114.941 283.129 114.308 282.739 113.918L275.807 106.986C275.416 106.595 274.783 106.595 274.392 106.986L272.561 108.817C272.171 109.208 271.537 109.208 271.147 108.817L266.997 104.667C266.607 104.277 265.974 104.277 265.583 104.667L262.211 108.04C261.82 108.43 261.82 109.063 262.211 109.454L266.361 113.603C266.751 113.994 266.751 114.627 266.361 115.018L264.679 116.7C264.288 117.09 264.288 117.723 264.679 118.114L271.61 125.046C272.001 125.436 272.634 125.436 273.025 125.046L275.319 122.751C275.71 122.36 275.71 121.727 275.319 121.337L272.097 118.114C271.706 117.723 271.706 117.09 272.097 116.7L274.392 114.405C274.782 114.014 275.416 114.014 275.806 114.405L279.029 117.627ZM261.852 75.0001C261.852 74.4478 261.404 74.0001 260.852 74.0001H234C233.448 74.0001 233 74.4478 233 75.0001V90.8253C233 91.3776 233.448 91.8253 234 91.8253H234.785C235.337 91.8253 235.785 92.2731 235.785 92.8253V95.4995C235.785 96.0518 236.233 96.4995 236.785 96.4995H238.838C239.391 96.4995 239.838 96.0518 239.838 95.4995V92.8253C239.838 92.2731 240.286 91.8253 240.838 91.8253H241.343C241.896 91.8253 242.343 92.2731 242.343 92.8253V95.4995C242.343 96.0518 242.791 96.4995 243.343 96.4995H245.397C245.949 96.4995 246.397 96.0518 246.397 95.4995V92.8253C246.397 92.2731 246.844 91.8253 247.397 91.8253H247.9C248.452 91.8253 248.9 92.2731 248.9 92.8253V95.4995C248.9 96.0518 249.348 96.4995 249.9 96.4995H251.953C252.506 96.4995 252.953 96.0518 252.953 95.4995V92.8253C252.953 92.2731 253.401 91.8253 253.953 91.8253H254.458C255.01 91.8253 255.458 92.2731 255.458 92.8253V95.4995C255.458 96.0518 255.906 96.4995 256.458 96.4995H258.511C259.064 96.4995 259.511 96.0518 259.511 95.4995V92.8253C259.511 92.2731 259.959 91.8253 260.511 91.8253H260.852C261.404 91.8253 261.852 91.3776 261.852 90.8253V75.0001ZM259.102 101.61C259.102 101.058 258.655 100.61 258.102 100.61H236.496C235.944 100.61 235.496 101.058 235.496 101.61V104.856C235.496 105.408 235.944 105.856 236.496 105.856H258.102C258.655 105.856 259.102 105.408 259.102 104.856V101.61ZM257.143 80.0001C257.143 79.4478 256.696 79.0001 256.143 79.0001H239C238.448 79.0001 238 79.4478 238 80.0001V85.7155C238 86.2678 238.448 86.7155 239 86.7155H256.143C256.696 86.7155 257.143 86.2678 257.143 85.7155V80.0001Z" fill="white"/>
<path d="M275.806 114.405L270.149 120.061L275.806 114.405ZM272.097 118.114L277.754 112.457L272.097 118.114ZM275.319 122.751L280.976 128.408L275.319 122.751ZM275.319 121.337L280.976 115.68L275.319 121.337ZM273.025 125.046L278.681 130.703L273.025 125.046ZM264.679 118.114L270.335 112.457L264.679 118.114ZM275.807 106.986L270.15 112.643L275.807 106.986ZM280.443 117.627L286.1 123.284L280.443 117.627ZM279.029 117.627L284.686 111.971L279.029 117.627ZM282.739 115.332L277.082 109.675L282.739 115.332ZM282.739 113.918L277.082 119.575L282.739 113.918ZM219.162 106.986L224.819 112.643L219.162 106.986ZM223.822 108.817L218.165 103.16L223.822 108.817ZM222.407 108.817L216.75 114.474L222.407 108.817ZM229.385 104.667L223.729 110.324L229.385 104.667ZM232.758 108.04L238.414 102.383L232.758 108.04ZM228.608 115.018L234.265 109.361L228.608 115.018ZM228.608 113.603L222.951 107.947L228.608 113.603ZM230.29 118.114L224.633 112.457L230.29 118.114ZM223.358 125.046L229.015 130.703L223.358 125.046ZM219.649 121.337L225.306 126.994L219.649 121.337ZM219.649 122.751L225.306 117.094L219.649 122.751ZM222.872 116.7L228.529 111.043L222.872 116.7ZM222.872 118.114L217.215 112.457L222.872 118.114ZM219.163 114.405L224.819 120.061L219.163 114.405ZM220.577 114.405L226.234 108.748L220.577 114.405ZM212.23 115.332L206.573 120.989L212.23 115.332ZM212.23 113.918L217.887 119.575L212.23 113.918ZM214.525 117.627L208.869 123.284L214.525 117.627ZM215.94 117.627L210.283 111.971L215.94 117.627ZM274.392 65.1783L268.735 70.8351L274.392 65.1783ZM275.806 65.1783L281.463 70.8352L275.806 65.1783ZM272.097 61.4689L266.44 55.8121L272.097 61.4689ZM272.097 62.8831L277.754 57.2263L272.097 62.8831ZM275.32 56.8319L280.976 51.175L275.32 56.8319ZM275.32 58.2461L280.976 63.903L275.32 58.2461ZM271.61 54.537L277.267 60.1939L271.61 54.537ZM273.025 54.537L278.682 48.8802L273.025 54.537ZM264.679 62.8831L259.022 68.54L264.679 62.8831ZM264.679 61.4689L259.022 55.8121L264.679 61.4689ZM266.361 65.9795L260.704 60.3226L266.361 65.9795ZM266.361 64.5652L260.704 70.2221L266.361 64.5652ZM262.211 71.5433L267.868 65.8865L262.211 71.5433ZM262.211 70.1291L256.554 64.4723L262.211 70.1291ZM266.997 74.9154L261.34 69.2585L266.997 74.9154ZM265.583 74.9154L271.24 69.2585L265.583 74.9154ZM275.807 72.597L281.464 78.2539L275.807 72.597ZM274.392 72.597L280.049 66.9402L274.392 72.597ZM280.443 61.9555L274.786 67.6123L280.443 61.9555ZM279.029 61.9555L273.372 56.2986L279.029 61.9555ZM282.739 64.2509L277.082 69.9078L282.739 64.2509ZM282.739 65.6652L277.082 60.0083L282.739 65.6652ZM220.577 65.1783L214.92 59.5214L220.577 65.1783ZM219.163 65.1783L213.506 70.8351L219.163 65.1783ZM222.872 61.4689L228.529 55.8121L222.872 61.4689ZM222.872 62.8831L217.215 57.2263L222.872 62.8831ZM230.29 62.8831L224.633 57.2263L230.29 62.8831ZM230.29 61.4689L235.947 55.8121L230.29 61.4689ZM228.608 65.9794L222.951 71.6363L228.608 65.9794ZM228.608 64.5652L222.951 58.9083L228.608 64.5652ZM232.758 70.1291L227.101 75.786L232.758 70.1291ZM227.971 74.9154L233.628 69.2585L227.971 74.9154ZM229.385 74.9154L223.729 69.2585L229.385 74.9154ZM222.407 70.7657L216.75 65.1088L222.407 70.7657ZM223.822 70.7657L218.165 76.4226L223.822 70.7657ZM219.162 72.597L213.505 78.2539L219.162 72.597ZM220.576 72.597L226.233 78.2539L220.576 72.597ZM214.525 61.9554L220.182 67.6123L214.525 61.9554ZM212.23 64.2509L217.887 69.9078L212.23 64.2509ZM212.23 65.6652L217.887 60.0083L212.23 65.6652ZM217.887 69.9078L220.182 67.6123L208.869 56.2986L206.573 58.5941L217.887 69.9078ZM224.819 66.9402L217.887 60.0083L206.573 71.322L213.505 78.2539L224.819 66.9402ZM216.75 65.1088L214.919 66.9402L226.233 78.2539L228.064 76.4226L216.75 65.1088ZM233.628 69.2585L229.478 65.1088L218.165 76.4226L222.314 80.5723L233.628 69.2585ZM227.101 65.8865L223.729 69.2585L235.042 80.5723L238.414 77.2002L227.101 65.8865ZM222.951 71.6363L227.101 75.786L238.414 64.4723L234.265 60.3226L222.951 71.6363ZM224.633 57.2263L222.951 58.9083L234.265 70.222L235.947 68.54L224.633 57.2263ZM217.701 60.1939L224.633 67.1258L235.947 55.8121L229.015 48.8802L217.701 60.1939ZM225.306 62.4887L227.601 60.1939L216.287 48.8802L213.992 51.175L225.306 62.4887ZM228.529 55.8121L225.306 52.5892L213.992 63.9029L217.215 67.1258L228.529 55.8121ZM226.234 70.8351L228.529 68.54L217.215 57.2263L214.92 59.5214L226.234 70.8351ZM210.283 67.6123L213.506 70.8351L224.819 59.5214L221.596 56.2986L210.283 67.6123ZM288.395 58.5941L286.1 56.2986L274.786 67.6123L277.082 69.9078L288.395 58.5941ZM281.464 78.2539L288.395 71.322L277.082 60.0083L270.15 66.9402L281.464 78.2539ZM266.904 76.4226L268.736 78.2539L280.049 66.9402L278.218 65.1089L266.904 76.4226ZM272.654 80.5723L276.804 76.4226L265.49 65.1089L261.34 69.2585L272.654 80.5723ZM256.554 77.2002L259.926 80.5723L271.24 69.2585L267.868 65.8865L256.554 77.2002ZM260.704 60.3226L256.554 64.4723L267.868 75.786L272.018 71.6363L260.704 60.3226ZM259.022 68.54L260.704 70.2221L272.018 58.9084L270.335 57.2263L259.022 68.54ZM265.954 48.8802L259.022 55.8121L270.335 67.1258L277.267 60.1939L265.954 48.8802ZM280.976 51.175L278.682 48.8802L267.368 60.1939L269.663 62.4887L280.976 51.175ZM277.754 67.1258L280.976 63.903L269.663 52.5892L266.44 55.8121L277.754 67.1258ZM280.049 59.5214L277.754 57.2263L266.44 68.54L268.735 70.8351L280.049 59.5214ZM273.372 56.2986L270.149 59.5214L281.463 70.8352L284.686 67.6123L273.372 56.2986ZM220.182 111.971L217.887 109.675L206.573 120.989L208.869 123.284L220.182 111.971ZM213.506 108.748L210.283 111.971L221.596 123.284L224.819 120.061L213.506 108.748ZM228.529 111.043L226.234 108.748L214.92 120.061L217.215 122.357L228.529 111.043ZM225.306 126.994L228.529 123.771L217.215 112.457L213.992 115.68L225.306 126.994ZM227.601 119.389L225.306 117.094L213.992 128.408L216.287 130.703L227.601 119.389ZM224.633 112.457L217.701 119.389L229.015 130.703L235.947 123.771L224.633 112.457ZM222.951 120.675L224.633 122.357L235.947 111.043L234.265 109.361L222.951 120.675ZM227.101 103.797L222.951 107.947L234.265 119.26L238.414 115.111L227.101 103.797ZM223.729 110.324L227.101 113.696L238.414 102.383L235.042 99.0106L223.729 110.324ZM229.478 114.474L233.628 110.324L222.314 99.0106L218.165 103.16L229.478 114.474ZM214.919 112.643L216.75 114.474L228.064 103.16L226.233 101.329L214.919 112.643ZM217.887 119.575L224.819 112.643L213.505 101.329L206.573 108.261L217.887 119.575ZM277.082 109.675L274.786 111.971L286.1 123.284L288.395 120.989L277.082 109.675ZM270.15 112.643L277.082 119.575L288.395 108.261L281.464 101.329L270.15 112.643ZM278.218 114.474L280.049 112.643L268.736 101.329L266.904 103.16L278.218 114.474ZM261.34 110.324L265.49 114.474L276.804 103.16L272.654 99.0106L261.34 110.324ZM267.868 113.696L271.24 110.324L259.926 99.0106L256.554 102.383L267.868 113.696ZM272.018 107.947L267.868 103.797L256.554 115.111L260.704 119.26L272.018 107.947ZM270.335 122.357L272.018 120.674L260.704 109.361L259.022 111.043L270.335 122.357ZM277.267 119.389L270.335 112.457L259.022 123.771L265.954 130.703L277.267 119.389ZM269.663 117.094L267.368 119.389L278.681 130.703L280.976 128.408L269.663 117.094ZM266.44 123.771L269.663 126.994L280.976 115.68L277.754 112.457L266.44 123.771ZM268.735 108.748L266.44 111.043L277.754 122.357L280.049 120.061L268.735 108.748ZM284.686 111.971L281.463 108.748L270.149 120.061L273.372 123.284L284.686 111.971ZM234 82.0001H260.852V66.0001H234V82.0001ZM241 90.8253V75.0001H225V90.8253H241ZM234.785 83.8253H234V99.8253H234.785V83.8253ZM243.785 95.4995V92.8253H227.785V95.4995H243.785ZM238.838 88.4995H236.785V104.5H238.838V88.4995ZM231.838 92.8253V95.4995H247.838V92.8253H231.838ZM241.343 83.8253H240.838V99.8253H241.343V83.8253ZM250.343 95.4995V92.8253H234.343V95.4995H250.343ZM245.397 88.4995H243.343V104.5H245.397V88.4995ZM238.397 92.8253V95.4995H254.397V92.8253H238.397ZM247.9 83.8253H247.397V99.8253H247.9V83.8253ZM256.9 95.4995V92.8253H240.9V95.4995H256.9ZM251.953 88.4995H249.9V104.5H251.953V88.4995ZM244.953 92.8253V95.4995H260.953V92.8253H244.953ZM254.458 83.8253H253.953V99.8253H254.458V83.8253ZM263.458 95.4995V92.8253H247.458V95.4995H263.458ZM258.511 88.4995H256.458V104.5H258.511V88.4995ZM251.511 92.8253V95.4995H267.511V92.8253H251.511ZM260.852 83.8253H260.511V99.8253H260.852V83.8253ZM253.852 75.0001V90.8253H269.852V75.0001H253.852ZM236.496 108.61H258.102V92.61H236.496V108.61ZM243.496 104.856V101.61H227.496V104.856H243.496ZM258.102 97.8558H236.496V113.856H258.102V97.8558ZM251.102 101.61V104.856H267.102V101.61H251.102ZM239 87.0001H256.143V71.0001H239V87.0001ZM246 85.7155V80.0001H230V85.7155H246ZM256.143 78.7155H239V94.7155H256.143V78.7155ZM249.143 80.0001V85.7155H265.143V80.0001H249.143ZM256.143 94.7155C261.114 94.7155 265.143 90.6861 265.143 85.7155H249.143C249.143 81.8495 252.277 78.7155 256.143 78.7155V94.7155ZM230 85.7155C230 90.6861 234.029 94.7155 239 94.7155V78.7155C242.866 78.7155 246 81.8495 246 85.7155H230ZM256.143 87.0001C252.277 87.0001 249.143 83.8661 249.143 80.0001H265.143C265.143 75.0295 261.114 71.0001 256.143 71.0001V87.0001ZM239 71.0001C234.029 71.0001 230 75.0295 230 80.0001H246C246 83.8661 242.866 87.0001 239 87.0001V71.0001ZM258.102 113.856C263.073 113.856 267.102 109.826 267.102 104.856H251.102C251.102 100.99 254.236 97.8558 258.102 97.8558V113.856ZM227.496 104.856C227.496 109.826 231.525 113.856 236.496 113.856V97.8558C240.362 97.8558 243.496 100.99 243.496 104.856H227.496ZM258.102 108.61C254.236 108.61 251.102 105.476 251.102 101.61H267.102C267.102 96.6394 263.073 92.61 258.102 92.61V108.61ZM236.496 92.61C231.525 92.61 227.496 96.6394 227.496 101.61H243.496C243.496 105.476 240.362 108.61 236.496 108.61V92.61ZM260.852 99.8253C265.823 99.8253 269.852 95.7959 269.852 90.8253H253.852C253.852 86.9594 256.986 83.8253 260.852 83.8253V99.8253ZM267.511 92.8253C267.511 96.6913 264.377 99.8253 260.511 99.8253V83.8253C255.541 83.8253 251.511 87.8548 251.511 92.8253H267.511ZM258.511 104.5C263.482 104.5 267.511 100.47 267.511 95.4995H251.511C251.511 91.6336 254.645 88.4995 258.511 88.4995V104.5ZM247.458 95.4995C247.458 100.47 251.487 104.5 256.458 104.5V88.4995C260.324 88.4995 263.458 91.6335 263.458 95.4995H247.458ZM254.458 99.8253C250.592 99.8253 247.458 96.6913 247.458 92.8253H263.458C263.458 87.8548 259.428 83.8253 254.458 83.8253V99.8253ZM260.953 92.8253C260.953 96.6913 257.819 99.8253 253.953 99.8253V83.8253C248.983 83.8253 244.953 87.8548 244.953 92.8253H260.953ZM251.953 104.5C256.924 104.5 260.953 100.47 260.953 95.4995H244.953C244.953 91.6336 248.087 88.4995 251.953 88.4995V104.5ZM240.9 95.4995C240.9 100.47 244.929 104.5 249.9 104.5V88.4995C253.766 88.4995 256.9 91.6336 256.9 95.4995H240.9ZM247.9 99.8253C244.034 99.8253 240.9 96.6913 240.9 92.8253H256.9C256.9 87.8548 252.871 83.8253 247.9 83.8253V99.8253ZM254.397 92.8253C254.397 96.6913 251.263 99.8253 247.397 99.8253V83.8253C242.426 83.8253 238.397 87.8548 238.397 92.8253H254.397ZM245.397 104.5C250.367 104.5 254.397 100.47 254.397 95.4995H238.397C238.397 91.6336 241.531 88.4995 245.397 88.4995V104.5ZM234.343 95.4995C234.343 100.47 238.373 104.5 243.343 104.5V88.4995C247.209 88.4995 250.343 91.6336 250.343 95.4995H234.343ZM241.343 99.8253C237.477 99.8253 234.343 96.6913 234.343 92.8253H250.343C250.343 87.8548 246.314 83.8253 241.343 83.8253V99.8253ZM247.838 92.8253C247.838 96.6913 244.704 99.8253 240.838 99.8253V83.8253C235.868 83.8253 231.838 87.8548 231.838 92.8253H247.838ZM238.838 104.5C243.809 104.5 247.838 100.47 247.838 95.4995H231.838C231.838 91.6336 234.972 88.4995 238.838 88.4995V104.5ZM227.785 95.4995C227.785 100.47 231.814 104.5 236.785 104.5V88.4995C240.651 88.4995 243.785 91.6336 243.785 95.4995H227.785ZM234.785 99.8253C230.919 99.8253 227.785 96.6913 227.785 92.8253H243.785C243.785 87.8548 239.755 83.8253 234.785 83.8253V99.8253ZM225 90.8253C225 95.7959 229.029 99.8253 234 99.8253V83.8253C237.866 83.8253 241 86.9594 241 90.8253H225ZM260.852 82.0001C256.986 82.0001 253.852 78.8661 253.852 75.0001H269.852C269.852 70.0295 265.823 66.0001 260.852 66.0001V82.0001ZM234 66.0001C229.029 66.0001 225 70.0295 225 75.0001H241C241 78.8661 237.866 82.0001 234 82.0001V66.0001ZM280.049 120.061C277.315 122.795 272.883 122.795 270.149 120.061L281.463 108.748C277.948 105.233 272.25 105.233 268.735 108.748L280.049 120.061ZM277.754 112.457C280.487 115.191 280.487 119.623 277.754 122.357L266.44 111.043C262.925 114.558 262.925 120.256 266.44 123.771L277.754 112.457ZM280.976 128.408C284.491 124.893 284.491 119.195 280.976 115.68L269.663 126.994C266.929 124.26 266.929 119.828 269.663 117.094L280.976 128.408ZM265.954 130.703C269.468 134.217 275.167 134.217 278.681 130.703L267.368 119.389C270.101 116.655 274.534 116.655 277.267 119.389L265.954 130.703ZM259.022 111.043C255.507 114.558 255.507 120.256 259.022 123.771L270.335 112.457C273.069 115.191 273.069 119.623 270.335 122.357L259.022 111.043ZM260.704 119.26C257.97 116.527 257.97 112.094 260.704 109.361L272.018 120.674C275.532 117.16 275.532 111.461 272.018 107.947L260.704 119.26ZM256.554 102.383C253.039 105.897 253.039 111.596 256.554 115.111L267.868 103.797C270.602 106.531 270.602 110.963 267.868 113.696L256.554 102.383ZM272.654 99.0106C269.139 95.4959 263.441 95.4959 259.926 99.0106L271.24 110.324C268.506 113.058 264.074 113.058 261.34 110.324L272.654 99.0106ZM266.904 103.16C269.638 100.427 274.07 100.427 276.804 103.16L265.49 114.474C269.005 117.989 274.703 117.989 278.218 114.474L266.904 103.16ZM281.464 101.329C277.949 97.8143 272.25 97.8143 268.736 101.329L280.049 112.643C277.316 115.376 272.884 115.376 270.15 112.643L281.464 101.329ZM274.786 111.971C277.52 109.237 281.952 109.237 284.686 111.971L273.372 123.284C276.887 126.799 282.585 126.799 286.1 123.284L274.786 111.971ZM288.395 120.989C291.91 117.474 291.91 111.776 288.395 108.261L277.082 119.575C274.348 116.841 274.348 112.409 277.082 109.675L288.395 120.989ZM226.233 101.329C222.718 97.8143 217.02 97.8143 213.505 101.329L224.819 112.643C222.085 115.376 217.653 115.376 214.919 112.643L226.233 101.329ZM218.165 103.16C220.898 100.427 225.331 100.427 228.064 103.16L216.75 114.474C220.265 117.989 225.964 117.989 229.478 114.474L218.165 103.16ZM235.042 99.0106C231.528 95.4959 225.829 95.4959 222.314 99.0106L233.628 110.324C230.894 113.058 226.462 113.058 223.729 110.324L235.042 99.0106ZM238.414 115.111C241.929 111.596 241.929 105.897 238.414 102.383L227.101 113.696C224.367 110.963 224.367 106.531 227.101 103.797L238.414 115.111ZM234.265 109.361C236.998 112.095 236.998 116.527 234.265 119.26L222.951 107.947C219.436 111.461 219.436 117.16 222.951 120.675L234.265 109.361ZM235.947 123.771C239.461 120.256 239.461 114.558 235.947 111.043L224.633 122.357C221.899 119.623 221.899 115.191 224.633 112.457L235.947 123.771ZM216.287 130.703C219.802 134.217 225.5 134.217 229.015 130.703L217.701 119.389C220.435 116.655 224.867 116.655 227.601 119.389L216.287 130.703ZM213.992 115.68C210.477 119.195 210.477 124.893 213.992 128.408L225.306 117.094C228.04 119.828 228.04 124.26 225.306 126.994L213.992 115.68ZM217.215 122.357C214.481 119.623 214.481 115.191 217.215 112.457L228.529 123.771C232.043 120.256 232.043 114.558 228.529 111.043L217.215 122.357ZM224.819 120.061C222.086 122.795 217.654 122.795 214.92 120.061L226.234 108.748C222.719 105.233 217.02 105.233 213.506 108.748L224.819 120.061ZM217.887 109.675C220.62 112.409 220.62 116.841 217.887 119.575L206.573 108.261C203.058 111.776 203.058 117.474 206.573 120.989L217.887 109.675ZM208.869 123.284C212.383 126.799 218.082 126.799 221.596 123.284L210.283 111.971C213.016 109.237 217.449 109.237 220.182 111.971L208.869 123.284ZM268.735 70.8351C272.25 74.3499 277.948 74.3499 281.463 70.8352L270.149 59.5214C272.883 56.7878 277.315 56.7878 280.049 59.5214L268.735 70.8351ZM266.44 55.8121C262.925 59.3268 262.925 65.0253 266.44 68.54L277.754 57.2263C280.487 59.96 280.487 64.3921 277.754 67.1258L266.44 55.8121ZM269.663 62.4887C266.929 59.7551 266.929 55.3229 269.663 52.5892L280.976 63.903C284.491 60.3882 284.491 54.6897 280.976 51.175L269.663 62.4887ZM277.267 60.1939C274.534 62.9276 270.101 62.9276 267.368 60.1939L278.682 48.8802C275.167 45.3655 269.468 45.3655 265.954 48.8802L277.267 60.1939ZM270.335 57.2263C273.069 59.9599 273.069 64.3921 270.335 67.1258L259.022 55.8121C255.507 59.3268 255.507 65.0253 259.022 68.54L270.335 57.2263ZM272.018 71.6363C275.532 68.1216 275.532 62.4231 272.018 58.9084L260.704 70.2221C257.97 67.4884 257.97 63.0563 260.704 60.3226L272.018 71.6363ZM267.868 65.8865C270.602 68.6201 270.602 73.0523 267.868 75.786L256.554 64.4723C253.039 67.987 253.039 73.6855 256.554 77.2002L267.868 65.8865ZM261.34 69.2585C264.074 66.5249 268.506 66.5249 271.24 69.2585L259.926 80.5723C263.441 84.087 269.139 84.087 272.654 80.5723L261.34 69.2585ZM278.218 65.1089C274.703 61.5942 269.005 61.5942 265.49 65.1089L276.804 76.4226C274.07 79.1563 269.638 79.1563 266.904 76.4226L278.218 65.1089ZM270.15 66.9402C272.883 64.2065 277.316 64.2065 280.049 66.9402L268.736 78.2539C272.25 81.7686 277.949 81.7686 281.464 78.2539L270.15 66.9402ZM286.1 56.2986C282.585 52.7839 276.887 52.7839 273.372 56.2986L284.686 67.6123C281.952 70.346 277.52 70.346 274.786 67.6123L286.1 56.2986ZM277.082 69.9078C274.348 67.1741 274.348 62.742 277.082 60.0083L288.395 71.322C291.91 67.8073 291.91 62.1088 288.395 58.5941L277.082 69.9078ZM214.92 59.5214C217.654 56.7878 222.086 56.7878 224.819 59.5214L213.506 70.8351C217.02 74.3499 222.719 74.3499 226.234 70.8351L214.92 59.5214ZM217.215 67.1258C214.481 64.3921 214.481 59.96 217.215 57.2263L228.529 68.54C232.043 65.0253 232.043 59.3268 228.529 55.8121L217.215 67.1258ZM213.992 51.175C210.477 54.6897 210.477 60.3882 213.992 63.9029L225.306 52.5892C228.04 55.3229 228.04 59.755 225.306 62.4887L213.992 51.175ZM229.015 48.8802C225.5 45.3655 219.802 45.3655 216.287 48.8802L227.601 60.1939C224.867 62.9276 220.435 62.9276 217.701 60.1939L229.015 48.8802ZM235.947 68.54C239.461 65.0253 239.461 59.3268 235.947 55.8121L224.633 67.1258C221.899 64.3921 221.899 59.9599 224.633 57.2263L235.947 68.54ZM234.265 60.3226C236.998 63.0562 236.998 67.4884 234.265 70.222L222.951 58.9083C219.436 62.4231 219.436 68.1215 222.951 71.6363L234.265 60.3226ZM238.414 77.2002C241.929 73.6855 241.929 67.987 238.414 64.4723L227.101 75.786C224.367 73.0523 224.367 68.6201 227.101 65.8865L238.414 77.2002ZM222.314 80.5723C225.829 84.087 231.528 84.087 235.042 80.5723L223.729 69.2585C226.462 66.5249 230.894 66.5249 233.628 69.2585L222.314 80.5723ZM228.064 76.4226C225.331 79.1562 220.898 79.1562 218.165 76.4226L229.478 65.1088C225.964 61.5941 220.265 61.5941 216.75 65.1088L228.064 76.4226ZM213.505 78.2539C217.02 81.7686 222.718 81.7686 226.233 78.2539L214.919 66.9402C217.653 64.2065 222.085 64.2065 224.819 66.9402L213.505 78.2539ZM220.182 67.6123C217.449 70.346 213.016 70.3459 210.283 67.6123L221.596 56.2986C218.082 52.7839 212.383 52.7838 208.869 56.2986L220.182 67.6123ZM206.573 58.5941C203.058 62.1088 203.058 67.8073 206.573 71.322L217.887 60.0083C220.62 62.742 220.62 67.1741 217.887 69.9078L206.573 58.5941Z" fill="#1F2024" mask="url(#path-27-outside-1)"/>
<defs>
<filter id="filter0_i" x="32" y="141" width="332" height="216" filterUnits="userSpaceOnUse" color-interpolation-filters="sRGB">
<feFlood flood-opacity="0" result="BackgroundImageFix"/>
<feBlend mode="normal" in="SourceGraphic" in2="BackgroundImageFix" result="shape"/>
<feColorMatrix in="SourceAlpha" type="matrix" values="0 0 0 0 0 0 0 0 0 0 0 0 0 0 0 0 0 0 127 0" result="hardAlpha"/>
<feOffset dx="-24" dy="8"/>
<feComposite in2="hardAlpha" operator="arithmetic" k2="-1" k3="1"/>
<feColorMatrix type="matrix" values="0 0 0 0 1 0 0 0 0 1 0 0 0 0 1 0 0 0 0.25 0"/>
<feBlend mode="normal" in2="shape" result="effect1_innerShadow"/>
</filter>
<filter id="filter1_ii" x="32" y="141" width="54" height="216" filterUnits="userSpaceOnUse" color-interpolation-filters="sRGB">
<feFlood flood-opacity="0" result="BackgroundImageFix"/>
<feBlend mode="normal" in="SourceGraphic" in2="BackgroundImageFix" result="shape"/>
<feColorMatrix in="SourceAlpha" type="matrix" values="0 0 0 0 0 0 0 0 0 0 0 0 0 0 0 0 0 0 127 0" result="hardAlpha"/>
<feOffset dy="-16"/>
<feComposite in2="hardAlpha" operator="arithmetic" k2="-1" k3="1"/>
<feColorMatrix type="matrix" values="0 0 0 0 0 0 0 0 0 0 0 0 0 0 0 0 0 0 0.25 0"/>
<feBlend mode="normal" in2="shape" result="effect1_innerShadow"/>
<feColorMatrix in="SourceAlpha" type="matrix" values="0 0 0 0 0 0 0 0 0 0 0 0 0 0 0 0 0 0 127 0" result="hardAlpha"/>
<feOffset dy="16"/>
<feComposite in2="hardAlpha" operator="arithmetic" k2="-1" k3="1"/>
<feColorMatrix type="matrix" values="0 0 0 0 1 0 0 0 0 1 0 0 0 0 1 0 0 0 0.25 0"/>
<feBlend mode="normal" in2="effect1_innerShadow" result="effect2_innerShadow"/>
</filter>
<filter id="filter2_ii" x="58.6667" y="141" width="54" height="216" filterUnits="userSpaceOnUse" color-interpolation-filters="sRGB">
<feFlood flood-opacity="0" result="BackgroundImageFix"/>
<feBlend mode="normal" in="SourceGraphic" in2="BackgroundImageFix" result="shape"/>
<feColorMatrix in="SourceAlpha" type="matrix" values="0 0 0 0 0 0 0 0 0 0 0 0 0 0 0 0 0 0 127 0" result="hardAlpha"/>
<feOffset dy="-16"/>
<feComposite in2="hardAlpha" operator="arithmetic" k2="-1" k3="1"/>
<feColorMatrix type="matrix" values="0 0 0 0 0 0 0 0 0 0 0 0 0 0 0 0 0 0 0.25 0"/>
<feBlend mode="normal" in2="shape" result="effect1_innerShadow"/>
<feColorMatrix in="SourceAlpha" type="matrix" values="0 0 0 0 0 0 0 0 0 0 0 0 0 0 0 0 0 0 127 0" result="hardAlpha"/>
<feOffset dy="16"/>
<feComposite in2="hardAlpha" operator="arithmetic" k2="-1" k3="1"/>
<feColorMatrix type="matrix" values="0 0 0 0 1 0 0 0 0 1 0 0 0 0 1 0 0 0 0.25 0"/>
<feBlend mode="normal" in2="effect1_innerShadow" result="effect2_innerShadow"/>
</filter>
<filter id="filter3_ii" x="85.3333" y="141" width="54" height="216" filterUnits="userSpaceOnUse" color-interpolation-filters="sRGB">
<feFlood flood-opacity="0" result="BackgroundImageFix"/>
<feBlend mode="normal" in="SourceGraphic" in2="BackgroundImageFix" result="shape"/>
<feColorMatrix in="SourceAlpha" type="matrix" values="0 0 0 0 0 0 0 0 0 0 0 0 0 0 0 0 0 0 127 0" result="hardAlpha"/>
<feOffset dy="-16"/>
<feComposite in2="hardAlpha" operator="arithmetic" k2="-1" k3="1"/>
<feColorMatrix type="matrix" values="0 0 0 0 0 0 0 0 0 0 0 0 0 0 0 0 0 0 0.25 0"/>
<feBlend mode="normal" in2="shape" result="effect1_innerShadow"/>
<feColorMatrix in="SourceAlpha" type="matrix" values="0 0 0 0 0 0 0 0 0 0 0 0 0 0 0 0 0 0 127 0" result="hardAlpha"/>
<feOffset dy="16"/>
<feComposite in2="hardAlpha" operator="arithmetic" k2="-1" k3="1"/>
<feColorMatrix type="matrix" values="0 0 0 0 1 0 0 0 0 1 0 0 0 0 1 0 0 0 0.25 0"/>
<feBlend mode="normal" in2="effect1_innerShadow" result="effect2_innerShadow"/>
</filter>
<filter id="filter4_ii" x="112" y="141" width="54" height="216" filterUnits="userSpaceOnUse" color-interpolation-filters="sRGB">
<feFlood flood-opacity="0" result="BackgroundImageFix"/>
<feBlend mode="normal" in="SourceGraphic" in2="BackgroundImageFix" result="shape"/>
<feColorMatrix in="SourceAlpha" type="matrix" values="0 0 0 0 0 0 0 0 0 0 0 0 0 0 0 0 0 0 127 0" result="hardAlpha"/>
<feOffset dy="-16"/>
<feComposite in2="hardAlpha" operator="arithmetic" k2="-1" k3="1"/>
<feColorMatrix type="matrix" values="0 0 0 0 0 0 0 0 0 0 0 0 0 0 0 0 0 0 0.25 0"/>
<feBlend mode="normal" in2="shape" result="effect1_innerShadow"/>
<feColorMatrix in="SourceAlpha" type="matrix" values="0 0 0 0 0 0 0 0 0 0 0 0 0 0 0 0 0 0 127 0" result="hardAlpha"/>
<feOffset dy="16"/>
<feComposite in2="hardAlpha" operator="arithmetic" k2="-1" k3="1"/>
<feColorMatrix type="matrix" values="0 0 0 0 1 0 0 0 0 1 0 0 0 0 1 0 0 0 0.25 0"/>
<feBlend mode="normal" in2="effect1_innerShadow" result="effect2_innerShadow"/>
</filter>
<filter id="filter5_ddi" x="156" y="191" width="184" height="72" filterUnits="userSpaceOnUse" color-interpolation-filters="sRGB">
<feFlood flood-opacity="0" result="BackgroundImageFix"/>
<feColorMatrix in="SourceAlpha" type="matrix" values="0 0 0 0 0 0 0 0 0 0 0 0 0 0 0 0 0 0 127 0" result="hardAlpha"/>
<feOffset dx="-4"/>
<feColorMatrix type="matrix" values="0 0 0 0 1 0 0 0 0 1 0 0 0 0 1 0 0 0 0.25 0"/>
<feBlend mode="normal" in2="BackgroundImageFix" result="effect1_dropShadow"/>
<feColorMatrix in="SourceAlpha" type="matrix" values="0 0 0 0 0 0 0 0 0 0 0 0 0 0 0 0 0 0 127 0" result="hardAlpha"/>
<feOffset dx="4"/>
<feColorMatrix type="matrix" values="0 0 0 0 0 0 0 0 0 0 0 0 0 0 0 0 0 0 0.25 0"/>
<feBlend mode="normal" in2="effect1_dropShadow" result="effect2_dropShadow"/>
<feBlend mode="normal" in="SourceGraphic" in2="effect2_dropShadow" result="shape"/>
<feColorMatrix in="SourceAlpha" type="matrix" values="0 0 0 0 0 0 0 0 0 0 0 0 0 0 0 0 0 0 127 0" result="hardAlpha"/>
<feOffset dx="-4"/>
<feComposite in2="hardAlpha" operator="arithmetic" k2="-1" k3="1"/>
<feColorMatrix type="matrix" values="0 0 0 0 0 0 0 0 0 0 0 0 0 0 0 0 0 0 0.25 0"/>
<feBlend mode="normal" in2="shape" result="effect3_innerShadow"/>
</filter>
<filter id="filter6_d" x="18" y="197" width="114" height="202.667" filterUnits="userSpaceOnUse" color-interpolation-filters="sRGB">
<feFlood flood-opacity="0" result="BackgroundImageFix"/>
<feColorMatrix in="SourceAlpha" type="matrix" values="0 0 0 0 0 0 0 0 0 0 0 0 0 0 0 0 0 0 127 0" result="hardAlpha"/>
<feOffset dx="-4" dy="4"/>
<feColorMatrix type="matrix" values="0 0 0 0 0 0 0 0 0 0 0 0 0 0 0 0 0 0 0.25 0"/>
<feBlend mode="normal" in2="BackgroundImageFix" result="effect1_dropShadow"/>
<feBlend mode="normal" in="SourceGraphic" in2="effect1_dropShadow" result="shape"/>
</filter>
<filter id="filter7_i" x="33" y="201" width="88" height="72" filterUnits="userSpaceOnUse" color-interpolation-filters="sRGB">
<feFlood flood-opacity="0" result="BackgroundImageFix"/>
<feBlend mode="normal" in="SourceGraphic" in2="BackgroundImageFix" result="shape"/>
<feColorMatrix in="SourceAlpha" type="matrix" values="0 0 0 0 0 0 0 0 0 0 0 0 0 0 0 0 0 0 127 0" result="hardAlpha"/>
<feOffset dx="-24" dy="8"/>
<feComposite in2="hardAlpha" operator="arithmetic" k2="-1" k3="1"/>
<feColorMatrix type="matrix" values="0 0 0 0 1 0 0 0 0 1 0 0 0 0 1 0 0 0 0.25 0"/>
<feBlend mode="normal" in2="shape" result="effect1_innerShadow"/>
</filter>
<filter id="filter8_ii" x="33" y="201" width="72" height="72" filterUnits="userSpaceOnUse" color-interpolation-filters="sRGB">
<feFlood flood-opacity="0" result="BackgroundImageFix"/>
<feBlend mode="normal" in="SourceGraphic" in2="BackgroundImageFix" result="shape"/>
<feColorMatrix in="SourceAlpha" type="matrix" values="0 0 0 0 0 0 0 0 0 0 0 0 0 0 0 0 0 0 127 0" result="hardAlpha"/>
<feOffset dy="-16"/>
<feComposite in2="hardAlpha" operator="arithmetic" k2="-1" k3="1"/>
<feColorMatrix type="matrix" values="0 0 0 0 0 0 0 0 0 0 0 0 0 0 0 0 0 0 0.25 0"/>
<feBlend mode="normal" in2="shape" result="effect1_innerShadow"/>
<feColorMatrix in="SourceAlpha" type="matrix" values="0 0 0 0 0 0 0 0 0 0 0 0 0 0 0 0 0 0 127 0" result="hardAlpha"/>
<feOffset dy="16"/>
<feComposite in2="hardAlpha" operator="arithmetic" k2="-1" k3="1"/>
<feColorMatrix type="matrix" values="0 0 0 0 1 0 0 0 0 1 0 0 0 0 1 0 0 0 0.25 0"/>
<feBlend mode="normal" in2="effect1_innerShadow" result="effect2_innerShadow"/>
</filter>
<filter id="filter9_ii" x="33" y="286.333" width="82" height="109.333" filterUnits="userSpaceOnUse" color-interpolation-filters="sRGB">
<feFlood flood-opacity="0" result="BackgroundImageFix"/>
<feBlend mode="normal" in="SourceGraphic" in2="BackgroundImageFix" result="shape"/>
<feColorMatrix in="SourceAlpha" type="matrix" values="0 0 0 0 0 0 0 0 0 0 0 0 0 0 0 0 0 0 127 0" result="hardAlpha"/>
<feOffset dy="-16"/>
<feComposite in2="hardAlpha" operator="arithmetic" k2="-1" k3="1"/>
<feColorMatrix type="matrix" values="0 0 0 0 0 0 0 0 0 0 0 0 0 0 0 0 0 0 0.25 0"/>
<feBlend mode="normal" in2="shape" result="effect1_innerShadow"/>
<feColorMatrix in="SourceAlpha" type="matrix" values="0 0 0 0 0 0 0 0 0 0 0 0 0 0 0 0 0 0 127 0" result="hardAlpha"/>
<feOffset dy="16"/>
<feComposite in2="hardAlpha" operator="arithmetic" k2="-1" k3="1"/>
<feColorMatrix type="matrix" values="0 0 0 0 1 0 0 0 0 1 0 0 0 0 1 0 0 0 0.25 0"/>
<feBlend mode="normal" in2="effect1_innerShadow" result="effect2_innerShadow"/>
</filter>
</defs>
</svg>
