<svg width="112" height="100" viewBox="0 0 112 100" fill="none" xmlns="http://www.w3.org/2000/svg">
<g filter="url(#filter0_ii)">
<path fill-rule="evenodd" clip-rule="evenodd" d="M103.859 34.4847C104.585 34.6023 105.233 34.0124 105.119 33.2862C104.234 27.6109 100.629 22.7026 95.1108 20.7165C85.9261 17.4107 71.4578 13.3818 55.4952 13.3818C28.4284 13.3818 10.8968 21.2598 8.7573 48.5076C6.80717 73.3435 5.99679 93.2763 33.4408 93.2763H98.5571C102.299 93.2763 105.333 90.2428 105.333 86.5008V83.2073C105.333 82.5519 104.775 82.0344 104.121 82.0796C79.0977 83.809 56.4521 83.4898 39.5565 79.3584C36.6749 78.6537 34.7544 76.01 34.7544 73.0434V52.0773C34.7544 50.4277 35.3376 48.8159 36.5165 47.662C51.3241 33.1678 79.7932 30.5826 103.859 34.4847Z" fill="#9BCEF1"/>
</g>
<path d="M95.1108 20.7165L95.4932 19.6539L95.1108 20.7165ZM55.4952 13.3818V14.5111V13.3818ZM8.7573 48.5076L7.63152 48.4192L8.7573 48.5076ZM39.5565 79.3584L39.8248 78.2614L39.5565 79.3584ZM36.5165 47.662L35.7266 46.855H35.7266L36.5165 47.662ZM104.121 82.0796L104.199 83.2061L104.121 82.0796ZM105.119 33.2862L106.235 33.112L105.119 33.2862ZM103.859 34.4847L103.678 35.5994L103.859 34.4847ZM94.7284 21.779C99.8127 23.6089 103.174 28.1427 104.004 33.4603L106.235 33.112C105.294 27.079 101.446 21.7963 95.4932 19.6539L94.7284 21.779ZM55.4952 14.5111C71.2801 14.5111 85.6121 18.4979 94.7284 21.779L95.4932 19.6539C86.2401 16.3236 71.6355 12.2526 55.4952 12.2526V14.5111ZM9.88309 48.596C10.9329 35.2258 15.7283 26.803 23.4065 21.6653C31.1583 16.4785 42.0319 14.5111 55.4952 14.5111V12.2526C41.8918 12.2526 30.4661 14.2242 22.1505 19.7883C13.7614 25.4016 8.7212 34.5417 7.63152 48.4192L9.88309 48.596ZM33.4408 92.1471C26.7065 92.1471 21.8341 90.923 18.3138 88.806C14.8158 86.7025 12.554 83.6584 11.1357 79.8145C9.70747 75.9438 9.13899 71.2699 9.0612 65.9638C8.98347 60.6622 9.39522 54.8092 9.88309 48.596L7.63152 48.4192C7.14432 54.6239 6.72347 60.576 6.80294 65.9969C6.88235 71.4134 7.46088 76.3794 9.01681 80.5963C10.5827 84.8402 13.1421 88.3315 17.1499 90.7415C21.1353 93.1381 26.4531 94.4056 33.4408 94.4056V92.1471ZM98.5571 92.1471H33.4408V94.4056H98.5571V92.1471ZM104.203 86.5008C104.203 89.6192 101.675 92.1471 98.5571 92.1471V94.4056C102.923 94.4056 106.462 90.8665 106.462 86.5008H104.203ZM104.203 83.2073V86.5008H106.462V83.2073H104.203ZM104.043 80.953C79.0467 82.6805 56.5445 82.3499 39.8248 78.2614L39.2883 80.4553C56.3596 84.6297 79.1486 84.9374 104.199 83.2061L104.043 80.953ZM39.8248 78.2614C37.4884 77.6901 35.8837 75.5318 35.8837 73.0434H33.6252C33.6252 76.4882 35.8613 79.6173 39.2883 80.4553L39.8248 78.2614ZM35.8837 73.0434V52.0773H33.6252V73.0434H35.8837ZM35.8837 52.0773C35.8837 50.6859 36.375 49.3807 37.3064 48.469L35.7266 46.855C34.3003 48.2511 33.6252 50.1694 33.6252 52.0773H35.8837ZM37.3064 48.469C44.4828 41.4445 55.0488 37.2386 66.8992 35.289C78.7352 33.3418 91.7442 33.6644 103.678 35.5994L104.04 33.37C91.9081 31.4029 78.6496 31.0671 66.5326 33.0605C54.4301 35.0515 43.3577 39.3854 35.7266 46.855L37.3064 48.469ZM106.462 83.2073C106.462 81.8932 105.345 80.863 104.043 80.953L104.199 83.2061C104.201 83.206 104.201 83.2062 104.201 83.2061C104.201 83.2061 104.201 83.206 104.2 83.2059C104.2 83.2059 104.201 83.2064 104.203 83.2078C104.205 83.2092 104.205 83.2099 104.204 83.2088C104.204 83.2081 104.204 83.2073 104.203 83.2065C104.203 83.2056 104.203 83.2057 104.203 83.2073H106.462ZM104.004 33.4603C104.003 33.4529 104.002 33.4343 104.01 33.4129C104.017 33.3939 104.026 33.3829 104.032 33.3778C104.042 33.3685 104.048 33.3713 104.04 33.37L103.678 35.5994C105.086 35.8276 106.479 34.671 106.235 33.112L104.004 33.4603Z" fill="#1F2024"/>
<g filter="url(#filter1_ii)">
<path fill-rule="evenodd" clip-rule="evenodd" d="M106.462 30.7967C106.462 25.6494 104.351 20.6265 100.167 17.6284C89.3214 9.85663 77.5404 6.60547 58.098 6.60547C34.86 6.60547 3.41772 16.2041 3.41772 46.1292V68.0085C3.41772 90.17 9.91092 97.7925 34.8541 97.7925H99.6863C103.428 97.7925 106.462 94.759 106.462 91.017V82.8845C106.462 81.9661 105.381 81.3884 104.5 81.6509C104.046 81.7865 103.571 81.8752 103.079 81.9114C77.127 83.8246 53.5909 83.618 36.1689 79.3578C33.2872 78.6532 31.3668 76.0094 31.3668 73.0429V52.0767C31.3668 50.4271 31.95 48.8153 33.1289 47.6614C48.6809 32.4386 79.3026 30.3523 104.065 35.1211C104.219 35.1506 104.369 35.1855 104.518 35.2254C105.397 35.4621 106.462 34.8834 106.462 33.973V30.7967Z" fill="white"/>
</g>
<path d="M100.167 17.6284L100.825 16.7104L100.167 17.6284ZM103.079 81.9114L103.162 83.0376L103.079 81.9114ZM36.1689 79.3578L36.4371 78.2609L36.1689 79.3578ZM33.1289 47.6614L33.9188 48.4684L33.1289 47.6614ZM104.065 35.1211L103.852 36.23L104.065 35.1211ZM104.5 81.6509L104.823 82.7331L104.5 81.6509ZM99.5091 18.5463C103.342 21.293 105.333 25.9401 105.333 30.7967H107.591C107.591 25.3586 105.359 19.9601 100.825 16.7104L99.5091 18.5463ZM58.098 7.73472C77.3929 7.73472 88.9166 10.9558 99.5091 18.5463L100.825 16.7104C89.7263 8.75746 77.6879 5.47622 58.098 5.47622V7.73472ZM4.54698 46.1292C4.54698 31.6537 12.1131 22.1096 22.6031 16.1263C33.1449 10.1135 46.6035 7.73472 58.098 7.73472V5.47622C46.3545 5.47622 32.4729 7.89676 21.4841 14.1645C10.4435 20.4619 2.28847 30.6797 2.28847 46.1292H4.54698ZM4.54698 68.0085V46.1292H2.28847V68.0085H4.54698ZM34.8541 96.6632C22.4199 96.6632 14.9733 94.7445 10.5752 90.407C6.18504 86.0775 4.54698 79.0556 4.54698 68.0085H2.28847C2.28847 79.1229 3.89701 86.993 8.98928 92.0151C14.0735 97.0293 22.3451 98.9217 34.8541 98.9217V96.6632ZM99.6863 96.6632H34.8541V98.9217H99.6863V96.6632ZM105.333 91.017C105.333 94.1353 102.805 96.6632 99.6863 96.6632V98.9217C104.052 98.9217 107.591 95.3827 107.591 91.017H105.333ZM105.333 82.8845V91.017H107.591V82.8845H105.333ZM104.178 80.5688C103.801 80.6812 103.406 80.7551 102.996 80.7852L103.162 83.0376C103.736 82.9954 104.291 82.8917 104.823 82.7331L104.178 80.5688ZM102.996 80.7852C77.0687 82.6966 53.6794 82.4771 36.4371 78.2609L35.9007 80.4547C53.5024 84.7589 77.1854 84.9526 103.162 83.0376L102.996 80.7852ZM36.4371 78.2609C34.1008 77.6896 32.4961 75.5313 32.4961 73.0429H30.2376C30.2376 76.4876 32.4737 79.6168 35.9007 80.4547L36.4371 78.2609ZM32.4961 73.0429V52.0767H30.2376V73.0429H32.4961ZM32.4961 52.0767C32.4961 50.6854 32.9874 49.3801 33.9188 48.4684L32.339 46.8545C30.9126 48.2506 30.2376 50.1689 30.2376 52.0767H32.4961ZM33.9188 48.4684C41.4571 41.0897 52.7343 36.8225 65.3041 35.0121C77.8564 33.2043 91.5747 33.8657 103.852 36.23L104.279 34.0123C91.7932 31.6077 77.8193 30.9278 64.9821 32.7767C52.1623 34.623 40.3527 39.0104 32.339 46.8545L33.9188 48.4684ZM103.852 36.23C103.978 36.2543 104.102 36.283 104.224 36.3159L104.811 34.135C104.637 34.0879 104.459 34.0469 104.279 34.0123L103.852 36.23ZM105.333 30.7967V33.973H107.591V30.7967H105.333ZM104.224 36.3159C104.985 36.5205 105.787 36.3711 106.407 35.994C107.035 35.6114 107.591 34.9117 107.591 33.973H105.333C105.333 33.9755 105.332 33.9746 105.333 33.9726C105.333 33.971 105.333 33.9734 105.329 33.9801C105.319 33.9948 105.292 34.0286 105.232 34.0647C105.1 34.1454 104.93 34.167 104.811 34.135L104.224 36.3159ZM107.591 82.8845C107.591 81.9381 107.027 81.2344 106.389 80.8546C105.76 80.4802 104.945 80.34 104.178 80.5688L104.823 82.7331C104.936 82.6994 105.102 82.7167 105.234 82.7952C105.293 82.8304 105.32 82.8635 105.329 82.8778C105.333 82.8842 105.334 82.8865 105.333 82.8848C105.332 82.8826 105.333 82.8817 105.333 82.8845H107.591Z" fill="#1F2024"/>
<g filter="url(#filter2_i)">
<path fill-rule="evenodd" clip-rule="evenodd" d="M28.1583 43.2462C27.2788 44.351 26.8496 45.7402 26.8496 47.1522V76.5326C26.8496 79.3374 28.5669 81.8774 31.2461 82.7075C49.2952 88.2997 73.8536 88.5731 100.953 86.0882C104.102 85.7995 106.557 83.3515 106.966 80.2932C105.914 81.2089 104.57 81.8021 103.079 81.912C77.127 83.8252 53.5909 83.6185 36.1689 79.3584C33.2872 78.6537 31.3668 76.01 31.3668 73.0434V52.0773C31.3668 50.4277 31.95 48.8159 33.1289 47.662C48.6809 32.4392 79.3026 30.3528 104.065 35.1217C105.199 35.3401 106.207 35.8507 107.026 36.5654V33.1912C107.026 30.1905 105.059 27.5257 102.143 26.8178C76.3083 20.5464 44.0959 23.2259 28.1583 43.2462Z" fill="#E2E2E2"/>
</g>
<path d="M28.1583 43.2462L29.0418 43.9496H29.0418L28.1583 43.2462ZM31.2461 82.7075L31.5803 81.6289H31.5803L31.2461 82.7075ZM100.953 86.0882L100.85 84.9637L100.953 86.0882ZM106.966 80.2932L108.086 80.4429L108.482 77.4781L106.225 79.4412L106.966 80.2932ZM103.079 81.912L103.162 83.0382L103.079 81.912ZM36.1689 79.3584L35.9007 80.4553H35.9007L36.1689 79.3584ZM33.1289 47.662L32.339 46.855H32.339L33.1289 47.662ZM104.065 35.1217L104.279 34.0128L104.065 35.1217ZM107.026 36.5654L106.284 37.4167L108.156 39.048V36.5654H107.026ZM102.143 26.8178L101.877 27.9152L102.143 26.8178ZM27.9789 47.1522C27.9789 45.9645 28.3398 44.8313 29.0418 43.9496L27.2748 42.5429C26.2178 43.8707 25.7204 45.5159 25.7204 47.1522H27.9789ZM27.9789 76.5326V47.1522H25.7204V76.5326H27.9789ZM31.5803 81.6289C29.4151 80.958 27.9789 78.887 27.9789 76.5326H25.7204C25.7204 79.7879 27.7188 82.7968 30.9119 83.7862L31.5803 81.6289ZM100.85 84.9637C73.7807 87.4458 49.4077 87.1524 31.5803 81.6289L30.9119 83.7862C49.1828 89.4471 73.9264 89.7004 101.056 87.2128L100.85 84.9637ZM105.847 80.1435C105.506 82.6936 103.46 84.7244 100.85 84.9637L101.056 87.2128C104.744 86.8747 107.609 84.0095 108.086 80.4429L105.847 80.1435ZM106.225 79.4412C105.35 80.2024 104.235 80.6945 102.996 80.7858L103.162 83.0382C104.904 82.9097 106.477 82.2154 107.707 81.1453L106.225 79.4412ZM102.996 80.7858C77.0687 82.6971 53.6794 82.4777 36.4371 78.2614L35.9007 80.4553C53.5024 84.7594 77.1854 84.9532 103.162 83.0382L102.996 80.7858ZM36.4371 78.2614C34.1008 77.6901 32.4961 75.5318 32.4961 73.0434H30.2376C30.2376 76.4882 32.4737 79.6173 35.9007 80.4553L36.4371 78.2614ZM32.4961 73.0434V52.0773H30.2376V73.0434H32.4961ZM32.4961 52.0773C32.4961 50.6859 32.9874 49.3807 33.9188 48.469L32.339 46.855C30.9126 48.2511 30.2376 50.1694 30.2376 52.0773H32.4961ZM33.9188 48.469C41.4571 41.0902 52.7343 36.823 65.3041 35.0127C77.8564 33.2048 91.5747 33.8662 103.852 36.2305L104.279 34.0128C91.7932 31.6083 77.8193 30.9284 64.9821 32.7772C52.1623 34.6236 40.3527 39.0109 32.339 46.855L33.9188 48.469ZM103.852 36.2305C104.784 36.41 105.61 36.8288 106.284 37.4167L107.768 35.7142C106.803 34.8726 105.615 34.2701 104.279 34.0128L103.852 36.2305ZM105.897 33.1912V36.5654H108.156V33.1912H105.897ZM101.877 27.9152C104.254 28.4923 105.897 30.6772 105.897 33.1912H108.156C108.156 29.7037 105.864 26.5592 102.409 25.7205L101.877 27.9152ZM29.0418 43.9496C36.7883 34.2186 48.54 28.6409 61.6392 26.284C74.7358 23.9276 89.0872 24.8106 101.877 27.9152L102.409 25.7205C89.364 22.5537 74.6919 21.6407 61.2393 24.0612C47.7892 26.4813 35.4659 32.2535 27.2748 42.5429L29.0418 43.9496Z" fill="#1F2024"/>
<g filter="url(#filter3_d)">
<circle cx="69.6201" cy="92.4291" r="2.82313" fill="#CAE9FA"/>
<circle cx="69.6201" cy="92.4291" r="2.82313" stroke="#1F2024" stroke-width="2.2585"/>
</g>
<g filter="url(#filter4_d)">
<circle cx="79.7833" cy="92.4291" r="2.82313" fill="#9BCEF1"/>
<circle cx="79.7833" cy="92.4291" r="2.82313" stroke="#1F2024" stroke-width="2.2585"/>
</g>
<g filter="url(#filter5_d)">
<circle cx="89.9467" cy="92.4291" r="2.82313" fill="#FFFA8F"/>
<circle cx="89.9467" cy="92.4291" r="2.82313" stroke="#1F2024" stroke-width="2.2585"/>
</g>
<g filter="url(#filter6_i)">
<path d="M1.72388 61.9393C1.72388 56.9499 5.76854 52.9053 10.7579 52.9053H15.2749C20.2642 52.9053 24.3089 56.9499 24.3089 61.9393C24.3089 66.9286 20.2642 70.9733 15.2749 70.9733H10.7579C5.76854 70.9733 1.72388 66.9286 1.72388 61.9393Z" fill="#E2E2E2"/>
</g>
<path d="M1.72388 61.9393C1.72388 56.9499 5.76854 52.9053 10.7579 52.9053H15.2749C20.2642 52.9053 24.3089 56.9499 24.3089 61.9393C24.3089 66.9286 20.2642 70.9733 15.2749 70.9733H10.7579C5.76854 70.9733 1.72388 66.9286 1.72388 61.9393Z" stroke="#1F2024" stroke-width="2.2585"/>
<g filter="url(#filter7_ii)">
<path d="M1.72388 61.9393C1.72388 56.9499 5.76854 52.9053 10.7579 52.9053C15.7472 52.9053 19.7919 56.9499 19.7919 61.9393C19.7919 66.9286 15.7472 70.9733 10.7579 70.9733C5.76854 70.9733 1.72388 66.9286 1.72388 61.9393Z" fill="#ACACAE"/>
</g>
<path d="M1.72388 61.9393C1.72388 56.9499 5.76854 52.9053 10.7579 52.9053C15.7472 52.9053 19.7919 56.9499 19.7919 61.9393C19.7919 66.9286 15.7472 70.9733 10.7579 70.9733C5.76854 70.9733 1.72388 66.9286 1.72388 61.9393Z" stroke="#1F2024" stroke-width="2.2585"/>
<g filter="url(#filter8_i)">
<path d="M7.93481 79.7247C7.93481 75.9827 10.9683 72.9492 14.7103 72.9492H18.0981C21.8401 72.9492 24.8736 75.9827 24.8736 79.7247C24.8736 83.4667 21.8401 86.5002 18.0981 86.5002H14.7103C10.9683 86.5002 7.93481 83.4667 7.93481 79.7247Z" fill="#ACACAE"/>
</g>
<path d="M7.93481 79.7247C7.93481 75.9827 10.9683 72.9492 14.7103 72.9492H18.0981C21.8401 72.9492 24.8736 75.9827 24.8736 79.7247C24.8736 83.4667 21.8401 86.5002 18.0981 86.5002H14.7103C10.9683 86.5002 7.93481 83.4667 7.93481 79.7247Z" stroke="#1F2024" stroke-width="2.2585"/>
<g filter="url(#filter9_ii)">
<path d="M7.93481 79.7247C7.93481 75.9827 10.9683 72.9492 14.7103 72.9492C18.4523 72.9492 21.4858 75.9827 21.4858 79.7247C21.4858 83.4667 18.4523 86.5002 14.7103 86.5002C10.9683 86.5002 7.93481 83.4667 7.93481 79.7247Z" fill="#797A7C"/>
</g>
<path d="M7.93481 79.7247C7.93481 75.9827 10.9683 72.9492 14.7103 72.9492C18.4523 72.9492 21.4858 75.9827 21.4858 79.7247C21.4858 83.4667 18.4523 86.5002 14.7103 86.5002C10.9683 86.5002 7.93481 83.4667 7.93481 79.7247Z" stroke="#1F2024" stroke-width="2.2585"/>
<g filter="url(#filter10_i)">
<path d="M31.3668 52.0774C31.3668 50.4278 31.95 48.816 33.1289 47.6621C48.6809 32.4393 79.3026 30.3529 104.065 35.1218C107.142 35.7142 109.285 38.4575 109.285 41.5902V75.195C109.285 78.7145 106.589 81.6533 103.079 81.9121C77.1271 83.8253 53.591 83.6186 36.1689 79.3585C33.2872 78.6538 31.3668 76.0101 31.3668 73.0435L31.3668 52.0774Z" fill="#1F2024" fill-opacity="0.2"/>
</g>
<path d="M31.3668 52.0774C31.3668 50.4278 31.95 48.816 33.1289 47.6621C48.6809 32.4393 79.3026 30.3529 104.065 35.1218C107.142 35.7142 109.285 38.4575 109.285 41.5902V75.195C109.285 78.7145 106.589 81.6533 103.079 81.9121C77.1271 83.8253 53.591 83.6186 36.1689 79.3585C33.2872 78.6538 31.3668 76.0101 31.3668 73.0435L31.3668 52.0774Z" stroke="#1F2024" stroke-width="2.2585"/>
<path fill-rule="evenodd" clip-rule="evenodd" d="M97.8877 78.037C98.1043 78.0224 98.3211 78.0077 98.5381 77.9928C102.058 77.7508 104.768 74.8068 104.768 71.2784V45.8418C104.768 42.6859 102.595 39.9271 99.4878 39.3773C98.9297 39.2785 98.3682 39.1836 97.8038 39.0928C98.9846 40.2964 99.6863 41.9651 99.6863 43.7582V73.4438C99.6863 75.2091 99.0078 76.8293 97.8877 78.037Z" fill="white" fill-opacity="0.8"/>
<g filter="url(#filter11_ii)">
<rect x="13.0165" y="7.16992" width="0.282313" height="45.7347" rx="0.141156" fill="#ACACAE"/>
</g>
<rect x="13.0165" y="7.16992" width="0.282313" height="45.7347" rx="0.141156" stroke="#1F2024" stroke-width="2.2585"/>
<path d="M13.0162 37.3778C14.8872 37.3778 16.404 36.3667 16.404 35.1193C16.404 33.872 14.8872 32.8608 13.0162 32.8608" stroke="#1F2024" stroke-width="2.2585"/>
<path d="M13.0162 46.412C14.8872 46.412 16.404 45.4009 16.404 44.1535C16.404 42.9062 14.8872 41.895 13.0162 41.895" stroke="#1F2024" stroke-width="2.2585"/>
<path d="M13.0162 41.8949C11.1452 41.8949 9.62848 40.8838 9.62848 39.6364C9.62848 38.3891 11.1452 37.3779 13.0162 37.3779" stroke="#1F2024" stroke-width="2.2585"/>
<path d="M13.0162 50.9291C11.1452 50.9291 9.62848 49.9179 9.62848 48.6706C9.62848 47.4233 11.1452 46.4121 13.0162 46.4121" stroke="#1F2024" stroke-width="2.2585"/>
<path d="M13.0162 32.8612C11.1452 32.8612 9.62848 31.8501 9.62848 30.6027C9.62848 29.3554 11.1452 28.3442 13.0162 28.3442" stroke="#1F2024" stroke-width="2.2585"/>
<g filter="url(#filter12_ii)">
<path d="M8.78174 6.04093C8.78174 3.54626 10.8041 1.52393 13.2987 1.52393C15.7934 1.52393 17.8157 3.54626 17.8157 6.04093C17.8157 8.5356 15.7934 10.5579 13.2987 10.5579C10.8041 10.5579 8.78174 8.5356 8.78174 6.04093Z" fill="#ACACAE"/>
</g>
<path d="M8.78174 6.04093C8.78174 3.54626 10.8041 1.52393 13.2987 1.52393C15.7934 1.52393 17.8157 3.54626 17.8157 6.04093C17.8157 8.5356 15.7934 10.5579 13.2987 10.5579C10.8041 10.5579 8.78174 8.5356 8.78174 6.04093Z" stroke="#1F2024" stroke-width="2.2585"/>
<defs>
<filter id="filter0_ii" x="6.79321" y="12.2524" width="99.6686" height="82.153" filterUnits="userSpaceOnUse" color-interpolation-filters="sRGB">
<feFlood flood-opacity="0" result="BackgroundImageFix"/>
<feBlend mode="normal" in="SourceGraphic" in2="BackgroundImageFix" result="shape"/>
<feColorMatrix in="SourceAlpha" type="matrix" values="0 0 0 0 0 0 0 0 0 0 0 0 0 0 0 0 0 0 127 0" result="hardAlpha"/>
<feOffset dx="4.517"/>
<feComposite in2="hardAlpha" operator="arithmetic" k2="-1" k3="1"/>
<feColorMatrix type="matrix" values="0 0 0 0 0 0 0 0 0 0 0 0 0 0 0 0 0 0 0.25 0"/>
<feBlend mode="normal" in2="shape" result="effect1_innerShadow"/>
<feColorMatrix in="SourceAlpha" type="matrix" values="0 0 0 0 0 0 0 0 0 0 0 0 0 0 0 0 0 0 127 0" result="hardAlpha"/>
<feOffset dx="-4.517" dy="2.2585"/>
<feComposite in2="hardAlpha" operator="arithmetic" k2="-1" k3="1"/>
<feColorMatrix type="matrix" values="0 0 0 0 1 0 0 0 0 1 0 0 0 0 1 0 0 0 0.25 0"/>
<feBlend mode="normal" in2="effect1_innerShadow" result="effect2_innerShadow"/>
</filter>
<filter id="filter1_ii" x="2.28845" y="5.47607" width="105.303" height="93.4455" filterUnits="userSpaceOnUse" color-interpolation-filters="sRGB">
<feFlood flood-opacity="0" result="BackgroundImageFix"/>
<feBlend mode="normal" in="SourceGraphic" in2="BackgroundImageFix" result="shape"/>
<feColorMatrix in="SourceAlpha" type="matrix" values="0 0 0 0 0 0 0 0 0 0 0 0 0 0 0 0 0 0 127 0" result="hardAlpha"/>
<feOffset dx="18.068" dy="-4.517"/>
<feComposite in2="hardAlpha" operator="arithmetic" k2="-1" k3="1"/>
<feColorMatrix type="matrix" values="0 0 0 0 0 0 0 0 0 0 0 0 0 0 0 0 0 0 0.25 0"/>
<feBlend mode="normal" in2="shape" result="effect1_innerShadow"/>
<feColorMatrix in="SourceAlpha" type="matrix" values="0 0 0 0 0 0 0 0 0 0 0 0 0 0 0 0 0 0 127 0" result="hardAlpha"/>
<feOffset dx="-4.517" dy="4.517"/>
<feComposite in2="hardAlpha" operator="arithmetic" k2="-1" k3="1"/>
<feColorMatrix type="matrix" values="0 0 0 0 1 0 0 0 0 1 0 0 0 0 1 0 0 0 0.25 0"/>
<feBlend mode="normal" in2="effect1_innerShadow" result="effect2_innerShadow"/>
</filter>
<filter id="filter2_i" x="25.7203" y="22.686" width="82.7619" height="66.0289" filterUnits="userSpaceOnUse" color-interpolation-filters="sRGB">
<feFlood flood-opacity="0" result="BackgroundImageFix"/>
<feBlend mode="normal" in="SourceGraphic" in2="BackgroundImageFix" result="shape"/>
<feColorMatrix in="SourceAlpha" type="matrix" values="0 0 0 0 0 0 0 0 0 0 0 0 0 0 0 0 0 0 127 0" result="hardAlpha"/>
<feOffset dx="-6.7755" dy="2.2585"/>
<feComposite in2="hardAlpha" operator="arithmetic" k2="-1" k3="1"/>
<feColorMatrix type="matrix" values="0 0 0 0 1 0 0 0 0 1 0 0 0 0 1 0 0 0 0.25 0"/>
<feBlend mode="normal" in2="shape" result="effect1_innerShadow"/>
</filter>
<filter id="filter3_d" x="64.5385" y="88.4766" width="9.03401" height="7.90476" filterUnits="userSpaceOnUse" color-interpolation-filters="sRGB">
<feFlood flood-opacity="0" result="BackgroundImageFix"/>
<feColorMatrix in="SourceAlpha" type="matrix" values="0 0 0 0 0 0 0 0 0 0 0 0 0 0 0 0 0 0 127 0"/>
<feOffset dx="-1.12925"/>
<feColorMatrix type="matrix" values="0 0 0 0 0.133333 0 0 0 0 0.133333 0 0 0 0 0.133333 0 0 0 1 0"/>
<feBlend mode="normal" in2="BackgroundImageFix" result="effect1_dropShadow"/>
<feBlend mode="normal" in="SourceGraphic" in2="effect1_dropShadow" result="shape"/>
</filter>
<filter id="filter4_d" x="74.7017" y="88.4766" width="9.03401" height="7.90476" filterUnits="userSpaceOnUse" color-interpolation-filters="sRGB">
<feFlood flood-opacity="0" result="BackgroundImageFix"/>
<feColorMatrix in="SourceAlpha" type="matrix" values="0 0 0 0 0 0 0 0 0 0 0 0 0 0 0 0 0 0 127 0"/>
<feOffset dx="-1.12925"/>
<feColorMatrix type="matrix" values="0 0 0 0 0.133333 0 0 0 0 0.133333 0 0 0 0 0.133333 0 0 0 1 0"/>
<feBlend mode="normal" in2="BackgroundImageFix" result="effect1_dropShadow"/>
<feBlend mode="normal" in="SourceGraphic" in2="effect1_dropShadow" result="shape"/>
</filter>
<filter id="filter5_d" x="84.865" y="88.4766" width="9.03401" height="7.90476" filterUnits="userSpaceOnUse" color-interpolation-filters="sRGB">
<feFlood flood-opacity="0" result="BackgroundImageFix"/>
<feColorMatrix in="SourceAlpha" type="matrix" values="0 0 0 0 0 0 0 0 0 0 0 0 0 0 0 0 0 0 127 0"/>
<feOffset dx="-1.12925"/>
<feColorMatrix type="matrix" values="0 0 0 0 0.133333 0 0 0 0 0.133333 0 0 0 0 0.133333 0 0 0 1 0"/>
<feBlend mode="normal" in2="BackgroundImageFix" result="effect1_dropShadow"/>
<feBlend mode="normal" in="SourceGraphic" in2="effect1_dropShadow" result="shape"/>
</filter>
<filter id="filter6_i" x="0.594604" y="51.7759" width="24.8435" height="20.3265" filterUnits="userSpaceOnUse" color-interpolation-filters="sRGB">
<feFlood flood-opacity="0" result="BackgroundImageFix"/>
<feBlend mode="normal" in="SourceGraphic" in2="BackgroundImageFix" result="shape"/>
<feColorMatrix in="SourceAlpha" type="matrix" values="0 0 0 0 0 0 0 0 0 0 0 0 0 0 0 0 0 0 127 0" result="hardAlpha"/>
<feOffset dx="-6.7755" dy="2.2585"/>
<feComposite in2="hardAlpha" operator="arithmetic" k2="-1" k3="1"/>
<feColorMatrix type="matrix" values="0 0 0 0 1 0 0 0 0 1 0 0 0 0 1 0 0 0 0.25 0"/>
<feBlend mode="normal" in2="shape" result="effect1_innerShadow"/>
</filter>
<filter id="filter7_ii" x="0.594604" y="51.7759" width="20.3265" height="20.3265" filterUnits="userSpaceOnUse" color-interpolation-filters="sRGB">
<feFlood flood-opacity="0" result="BackgroundImageFix"/>
<feBlend mode="normal" in="SourceGraphic" in2="BackgroundImageFix" result="shape"/>
<feColorMatrix in="SourceAlpha" type="matrix" values="0 0 0 0 0 0 0 0 0 0 0 0 0 0 0 0 0 0 127 0" result="hardAlpha"/>
<feOffset dy="-4.517"/>
<feComposite in2="hardAlpha" operator="arithmetic" k2="-1" k3="1"/>
<feColorMatrix type="matrix" values="0 0 0 0 0 0 0 0 0 0 0 0 0 0 0 0 0 0 0.25 0"/>
<feBlend mode="normal" in2="shape" result="effect1_innerShadow"/>
<feColorMatrix in="SourceAlpha" type="matrix" values="0 0 0 0 0 0 0 0 0 0 0 0 0 0 0 0 0 0 127 0" result="hardAlpha"/>
<feOffset dy="4.517"/>
<feComposite in2="hardAlpha" operator="arithmetic" k2="-1" k3="1"/>
<feColorMatrix type="matrix" values="0 0 0 0 1 0 0 0 0 1 0 0 0 0 1 0 0 0 0.25 0"/>
<feBlend mode="normal" in2="effect1_innerShadow" result="effect2_innerShadow"/>
</filter>
<filter id="filter8_i" x="6.80554" y="71.8198" width="19.1973" height="15.8095" filterUnits="userSpaceOnUse" color-interpolation-filters="sRGB">
<feFlood flood-opacity="0" result="BackgroundImageFix"/>
<feBlend mode="normal" in="SourceGraphic" in2="BackgroundImageFix" result="shape"/>
<feColorMatrix in="SourceAlpha" type="matrix" values="0 0 0 0 0 0 0 0 0 0 0 0 0 0 0 0 0 0 127 0" result="hardAlpha"/>
<feOffset dx="-6.7755" dy="2.2585"/>
<feComposite in2="hardAlpha" operator="arithmetic" k2="-1" k3="1"/>
<feColorMatrix type="matrix" values="0 0 0 0 1 0 0 0 0 1 0 0 0 0 1 0 0 0 0.25 0"/>
<feBlend mode="normal" in2="shape" result="effect1_innerShadow"/>
</filter>
<filter id="filter9_ii" x="6.80554" y="71.8198" width="15.8095" height="15.8095" filterUnits="userSpaceOnUse" color-interpolation-filters="sRGB">
<feFlood flood-opacity="0" result="BackgroundImageFix"/>
<feBlend mode="normal" in="SourceGraphic" in2="BackgroundImageFix" result="shape"/>
<feColorMatrix in="SourceAlpha" type="matrix" values="0 0 0 0 0 0 0 0 0 0 0 0 0 0 0 0 0 0 127 0" result="hardAlpha"/>
<feOffset dy="-4.517"/>
<feComposite in2="hardAlpha" operator="arithmetic" k2="-1" k3="1"/>
<feColorMatrix type="matrix" values="0 0 0 0 0 0 0 0 0 0 0 0 0 0 0 0 0 0 0.25 0"/>
<feBlend mode="normal" in2="shape" result="effect1_innerShadow"/>
<feColorMatrix in="SourceAlpha" type="matrix" values="0 0 0 0 0 0 0 0 0 0 0 0 0 0 0 0 0 0 127 0" result="hardAlpha"/>
<feOffset dy="4.517"/>
<feComposite in2="hardAlpha" operator="arithmetic" k2="-1" k3="1"/>
<feColorMatrix type="matrix" values="0 0 0 0 1 0 0 0 0 1 0 0 0 0 1 0 0 0 0.25 0"/>
<feBlend mode="normal" in2="effect1_innerShadow" result="effect2_innerShadow"/>
</filter>
<filter id="filter10_i" x="30.2375" y="31.7202" width="80.1768" height="52.4778" filterUnits="userSpaceOnUse" color-interpolation-filters="sRGB">
<feFlood flood-opacity="0" result="BackgroundImageFix"/>
<feBlend mode="normal" in="SourceGraphic" in2="BackgroundImageFix" result="shape"/>
<feColorMatrix in="SourceAlpha" type="matrix" values="0 0 0 0 0 0 0 0 0 0 0 0 0 0 0 0 0 0 127 0" result="hardAlpha"/>
<feOffset dx="-6.7755" dy="2.2585"/>
<feComposite in2="hardAlpha" operator="arithmetic" k2="-1" k3="1"/>
<feColorMatrix type="matrix" values="0 0 0 0 1 0 0 0 0 1 0 0 0 0 1 0 0 0 0.25 0"/>
<feBlend mode="normal" in2="shape" result="effect1_innerShadow"/>
</filter>
<filter id="filter11_ii" x="11.8872" y="6.04053" width="2.54081" height="47.9932" filterUnits="userSpaceOnUse" color-interpolation-filters="sRGB">
<feFlood flood-opacity="0" result="BackgroundImageFix"/>
<feBlend mode="normal" in="SourceGraphic" in2="BackgroundImageFix" result="shape"/>
<feColorMatrix in="SourceAlpha" type="matrix" values="0 0 0 0 0 0 0 0 0 0 0 0 0 0 0 0 0 0 127 0" result="hardAlpha"/>
<feOffset dy="-4.517"/>
<feComposite in2="hardAlpha" operator="arithmetic" k2="-1" k3="1"/>
<feColorMatrix type="matrix" values="0 0 0 0 0 0 0 0 0 0 0 0 0 0 0 0 0 0 0.25 0"/>
<feBlend mode="normal" in2="shape" result="effect1_innerShadow"/>
<feColorMatrix in="SourceAlpha" type="matrix" values="0 0 0 0 0 0 0 0 0 0 0 0 0 0 0 0 0 0 127 0" result="hardAlpha"/>
<feOffset dy="4.517"/>
<feComposite in2="hardAlpha" operator="arithmetic" k2="-1" k3="1"/>
<feColorMatrix type="matrix" values="0 0 0 0 1 0 0 0 0 1 0 0 0 0 1 0 0 0 0.25 0"/>
<feBlend mode="normal" in2="effect1_innerShadow" result="effect2_innerShadow"/>
</filter>
<filter id="filter12_ii" x="7.65247" y="0.394531" width="11.2925" height="11.2925" filterUnits="userSpaceOnUse" color-interpolation-filters="sRGB">
<feFlood flood-opacity="0" result="BackgroundImageFix"/>
<feBlend mode="normal" in="SourceGraphic" in2="BackgroundImageFix" result="shape"/>
<feColorMatrix in="SourceAlpha" type="matrix" values="0 0 0 0 0 0 0 0 0 0 0 0 0 0 0 0 0 0 127 0" result="hardAlpha"/>
<feOffset dx="4.517"/>
<feComposite in2="hardAlpha" operator="arithmetic" k2="-1" k3="1"/>
<feColorMatrix type="matrix" values="0 0 0 0 0 0 0 0 0 0 0 0 0 0 0 0 0 0 0.25 0"/>
<feBlend mode="normal" in2="shape" result="effect1_innerShadow"/>
<feColorMatrix in="SourceAlpha" type="matrix" values="0 0 0 0 0 0 0 0 0 0 0 0 0 0 0 0 0 0 127 0" result="hardAlpha"/>
<feOffset dx="-4.517" dy="2.2585"/>
<feComposite in2="hardAlpha" operator="arithmetic" k2="-1" k3="1"/>
<feColorMatrix type="matrix" values="0 0 0 0 1 0 0 0 0 1 0 0 0 0 1 0 0 0 0.25 0"/>
<feBlend mode="normal" in2="effect1_innerShadow" result="effect2_innerShadow"/>
</filter>
</defs>
</svg>
