<svg width="389" height="349" viewBox="0 0 389 349" fill="none" xmlns="http://www.w3.org/2000/svg">
<g filter="url(#filter0_ii)">
<path d="M29 135C29 121.745 39.7452 111 53 111H245C258.255 111 269 121.745 269 135V295C269 308.255 258.255 319 245 319H93C57.6538 319 29 290.346 29 255V135Z" fill="#E4B45D"/>
</g>
<path d="M29 135C29 121.745 39.7452 111 53 111H245C258.255 111 269 121.745 269 135V295C269 308.255 258.255 319 245 319H93C57.6538 319 29 290.346 29 255V135Z" stroke="#1F2024" stroke-width="8"/>
<g filter="url(#filter1_i)">
<path d="M129 135C129 121.745 139.745 111 153 111H329C342.255 111 353 121.745 353 135V255C353 290.346 324.346 319 289 319H193C157.654 319 129 290.346 129 255V135Z" fill="#F0D07A"/>
</g>
<path d="M129 135C129 121.745 139.745 111 153 111H329C342.255 111 353 121.745 353 135V255C353 290.346 324.346 319 289 319H193C157.654 319 129 290.346 129 255V135Z" stroke="#1F2024" stroke-width="8"/>
<g filter="url(#filter2_ddi)">
<path d="M157 177C157 168.163 164.163 161 173 161H309C317.837 161 325 168.163 325 177V209C325 217.837 317.837 225 309 225H173C164.163 225 157 217.837 157 209V177Z" fill="#1F2024"/>
<circle cx="193" cy="193" r="16" fill="#FFFA8F"/>
<circle cx="241" cy="193" r="16" fill="#F9E174"/>
<circle cx="289" cy="193" r="16" fill="#F2C95C"/>
</g>
<g filter="url(#filter3_i)">
<path d="M202 258.5C202 266.324 206.794 273.827 215.327 279.36C223.86 284.892 235.433 288 247.5 288C259.567 288 271.14 284.892 279.673 279.36C288.206 273.827 293 266.324 293 258.5L247.5 258.5L202 258.5Z" fill="#FE204F"/>
</g>
<path d="M202 258.5C202 266.324 206.794 273.827 215.327 279.36C223.86 284.892 235.433 288 247.5 288C259.567 288 271.14 284.892 279.673 279.36C288.206 273.827 293 266.324 293 258.5L247.5 258.5L202 258.5Z" stroke="#1F2024" stroke-width="8" stroke-linejoin="round"/>
<g filter="url(#filter4_i)">
<path fill-rule="evenodd" clip-rule="evenodd" d="M255 258.5H228.5L202 258.5C202 251.472 204.792 244.731 209.762 239.762C214.731 234.792 221.472 232 228.5 232C235.528 232 242.269 234.792 247.238 239.762C247.326 239.85 247.413 239.938 247.5 240.027C247.587 239.938 247.674 239.85 247.762 239.762C252.731 234.792 259.472 232 266.5 232C273.528 232 280.269 234.792 285.238 239.762C290.208 244.731 293 251.472 293 258.5H266.5H255Z" fill="#FE204F"/>
</g>
<path d="M228.5 258.5V262.5V258.5ZM202 258.5H198C198 260.709 199.791 262.5 202 262.5L202 258.5ZM209.762 239.762L206.933 236.933L209.762 239.762ZM247.238 239.762L250.067 236.933L247.238 239.762ZM247.5 240.027L244.632 242.815C245.385 243.59 246.42 244.027 247.5 244.027C248.58 244.027 249.615 243.59 250.368 242.815L247.5 240.027ZM247.762 239.762L244.933 236.933L244.933 236.933L247.762 239.762ZM285.238 239.762L282.41 242.59L282.41 242.59L285.238 239.762ZM293 258.5V262.5C295.209 262.5 297 260.709 297 258.5H293ZM228.5 262.5H255V254.5H228.5V262.5ZM202 262.5L228.5 262.5V254.5L202 254.5L202 262.5ZM206.933 236.933C201.213 242.653 198 250.411 198 258.5H206C206 252.533 208.371 246.81 212.59 242.59L206.933 236.933ZM228.5 228C220.411 228 212.653 231.213 206.933 236.933L212.59 242.59C216.81 238.371 222.533 236 228.5 236V228ZM250.067 236.933C244.347 231.213 236.589 228 228.5 228V236C234.467 236 240.19 238.371 244.41 242.59L250.067 236.933ZM250.368 237.239C250.268 237.136 250.168 237.034 250.067 236.933L244.41 242.59C244.485 242.665 244.559 242.74 244.632 242.815L250.368 237.239ZM244.933 236.933C244.832 237.034 244.732 237.136 244.632 237.239L250.368 242.815C250.441 242.74 250.515 242.665 250.59 242.59L244.933 236.933ZM266.5 228C258.411 228 250.653 231.213 244.933 236.933L250.59 242.59C254.81 238.371 260.533 236 266.5 236V228ZM288.067 236.933C282.347 231.213 274.589 228 266.5 228V236C272.467 236 278.19 238.371 282.41 242.59L288.067 236.933ZM297 258.5C297 250.411 293.787 242.653 288.067 236.933L282.41 242.59C286.629 246.81 289 252.533 289 258.5H297ZM266.5 262.5H293V254.5H266.5V262.5ZM255 262.5H266.5V254.5H255V262.5Z" fill="#1F2024"/>
<path d="M277.046 246.954C274.514 244.422 271.08 243 267.5 243" stroke="white" stroke-width="8" stroke-linecap="round"/>
<path d="M239.546 246.954C237.014 244.422 233.58 243 230 243" stroke="white" stroke-width="8" stroke-linecap="round"/>
<circle cx="313.5" cy="240.5" r="8.5" fill="#1F2024"/>
<circle r="2.5" transform="matrix(-1 0 0 1 316.5 237.5)" fill="white"/>
<line x1="267" y1="268" x2="273" y2="268" stroke="white" stroke-width="8" stroke-linecap="round"/>
<g filter="url(#filter5_ii)">
<path fill-rule="evenodd" clip-rule="evenodd" d="M365.781 120.751C368.351 121.168 370.647 119.078 370.245 116.506C367.108 96.4025 354.34 79.016 334.793 71.9805C302.259 60.271 251.01 46 194.468 46C98.5923 46 36.4924 73.9053 28.9139 170.421C22.0061 258.394 19.1357 329 116.347 329H347C360.255 329 371 318.255 371 305V293.335C371 291.013 369.023 289.18 366.708 289.34C278.071 295.466 197.857 294.336 138.01 279.701C127.802 277.205 121 267.841 121 257.333V183.067C121 177.224 123.066 171.515 127.241 167.428C179.693 116.087 280.535 106.929 365.781 120.751Z" fill="#9BCEF1"/>
</g>
<path d="M334.793 71.9805L333.438 75.7442L334.793 71.9805ZM194.468 46V42V46ZM28.9139 170.421L24.9261 170.108L28.9139 170.421ZM138.01 279.701L138.96 275.816L138.01 279.701ZM127.241 167.428L130.039 170.286L127.241 167.428ZM370.245 116.506L374.197 115.889L370.245 116.506ZM365.781 120.751L365.141 124.7L365.781 120.751ZM333.438 75.7442C351.448 82.2263 363.354 98.2864 366.293 117.123L374.197 115.889C370.862 94.5186 357.232 75.8057 336.147 68.2169L333.438 75.7442ZM194.468 50C250.38 50 301.147 64.1219 333.438 75.7442L336.147 68.2169C303.371 56.4202 251.639 42 194.468 42V50ZM32.9016 170.735C36.6203 123.375 53.6063 93.54 80.8039 75.3416C108.262 56.9689 146.778 50 194.468 50V42C146.282 42 105.81 48.9838 76.355 68.6927C46.6392 88.576 28.786 120.952 24.9261 170.108L32.9016 170.735ZM116.347 325C92.4929 325 75.2341 320.664 62.7645 313.165C50.374 305.714 42.3623 294.932 37.3385 281.316C32.2795 267.605 30.2659 251.049 29.9903 232.254C29.715 213.475 31.1735 192.743 32.9016 170.735L24.9261 170.108C23.2004 192.087 21.7097 213.17 21.9912 232.372C22.2725 251.558 24.3217 269.148 29.8331 284.085C35.3796 299.118 44.4457 311.485 58.6418 320.021C72.7588 328.51 91.5954 333 116.347 333V325ZM347 325H116.347V333H347V325ZM367 305C367 316.046 358.046 325 347 325V333C362.464 333 375 320.464 375 305H367ZM367 293.335V305H375V293.335H367ZM366.432 285.35C277.891 291.469 198.184 290.298 138.96 275.816L137.06 283.587C197.529 298.374 278.252 299.463 366.983 293.331L366.432 285.35ZM138.96 275.816C130.684 273.792 125 266.147 125 257.333H117C117 269.535 124.921 280.619 137.06 283.587L138.96 275.816ZM125 257.333V183.067H117V257.333H125ZM125 183.067C125 178.139 126.74 173.515 130.039 170.286L124.443 164.569C119.391 169.514 117 176.309 117 183.067H125ZM130.039 170.286C155.46 145.404 192.886 130.506 234.863 123.6C276.788 116.703 322.868 117.846 365.141 124.7L366.421 116.803C323.448 109.835 276.484 108.645 233.564 115.706C190.695 122.759 151.474 138.11 124.443 164.569L130.039 170.286ZM375 293.335C375 288.68 371.045 285.031 366.432 285.35L366.983 293.331C366.991 293.33 366.993 293.331 366.992 293.331C366.991 293.331 366.99 293.33 366.99 293.33C366.989 293.33 366.99 293.33 366.992 293.332C366.994 293.333 366.996 293.335 366.999 293.337C367.004 293.342 367.005 293.344 367.003 293.34C367.002 293.338 367.001 293.335 367 293.332C366.999 293.329 367 293.329 367 293.335H375ZM366.293 117.123C366.289 117.097 366.289 117.031 366.316 116.955C366.34 116.888 366.373 116.849 366.392 116.831C366.428 116.798 366.449 116.807 366.421 116.803L365.141 124.7C370.128 125.508 375.059 121.411 374.197 115.889L366.293 117.123Z" fill="#1F2024"/>
<g filter="url(#filter6_ii)">
<path fill-rule="evenodd" clip-rule="evenodd" d="M375 107.689C375 89.4568 367.522 71.665 352.702 61.0449C314.286 33.5162 272.555 22 203.687 22C121.374 22 10 56 10 162V239.5C10 318 33 345 121.353 345H351C364.255 345 375 334.255 375 321V292.194C375 288.94 371.17 286.894 368.052 287.824C366.443 288.304 364.759 288.619 363.018 288.747C271.091 295.524 187.722 294.792 126.01 279.701C115.802 277.205 109 267.841 109 257.333V183.067C109 177.224 111.066 171.515 115.241 167.428C170.329 113.506 278.797 106.115 366.511 123.008C367.053 123.112 367.588 123.236 368.114 123.377C371.228 124.215 375 122.166 375 118.941V107.689Z" fill="white"/>
</g>
<path d="M352.702 61.0449L355.032 57.7935V57.7935L352.702 61.0449ZM363.018 288.747L363.312 292.736L363.018 288.747ZM126.01 279.701L125.06 283.587H125.06L126.01 279.701ZM115.241 167.428L112.443 164.569L115.241 167.428ZM366.511 123.008L365.754 126.935H365.754L366.511 123.008ZM368.114 123.377L369.154 119.515L368.114 123.377ZM368.052 287.824L369.196 291.657L368.052 287.824ZM350.372 64.2963C363.949 74.0257 371 90.4867 371 107.689H379C379 88.4269 371.095 69.3043 355.032 57.7935L350.372 64.2963ZM203.687 26C272.033 26 312.852 37.4096 350.372 64.2963L355.032 57.7935C315.72 29.6227 273.078 18 203.687 18V26ZM14 162C14 110.725 40.8005 76.9183 77.9578 55.7245C115.299 34.426 162.971 26 203.687 26V18C162.089 18 112.918 26.574 73.9942 48.7754C34.8864 71.0817 6 107.275 6 162H14ZM14 239.5V162H6V239.5H14ZM121.353 341C77.3088 341 50.9317 334.204 35.3528 318.84C19.8023 303.503 14 278.631 14 239.5H6C6 278.869 11.6977 306.747 29.7354 324.536C47.7448 342.297 77.0441 349 121.353 349V341ZM351 341H121.353V349H351V341ZM371 321C371 332.046 362.046 341 351 341V349C366.464 349 379 336.464 379 321H371ZM371 292.194V321H379V292.194H371ZM366.909 283.991C365.574 284.389 364.175 284.651 362.724 284.758L363.312 292.736C365.343 292.586 367.311 292.219 369.196 291.657L366.909 283.991ZM362.724 284.758C270.884 291.528 188.035 290.751 126.96 275.816L125.06 283.587C187.408 298.833 271.297 299.519 363.312 292.736L362.724 284.758ZM126.96 275.816C118.684 273.792 113 266.147 113 257.333H105C105 269.535 112.921 280.619 125.06 283.587L126.96 275.816ZM113 257.333V183.067H105V257.333H113ZM113 183.067C113 178.139 114.74 173.515 118.039 170.286L112.443 164.569C107.391 169.514 105 176.309 105 183.067H113ZM118.039 170.286C144.742 144.149 184.687 129.034 229.211 122.621C273.674 116.218 322.267 118.56 365.754 126.935L367.267 119.08C323.041 110.562 273.543 108.154 228.071 114.703C182.661 121.243 140.829 136.784 112.443 164.569L118.039 170.286ZM365.754 126.935C366.202 127.022 366.642 127.123 367.074 127.24L369.154 119.515C368.534 119.348 367.905 119.203 367.267 119.08L365.754 126.935ZM371 107.689V118.941H379V107.689H371ZM367.074 127.24C369.767 127.965 372.609 127.436 374.804 126.1C377.031 124.744 379 122.266 379 118.941H371C371 118.95 370.999 118.946 371.001 118.939C371.003 118.934 371.002 118.942 370.987 118.966C370.953 119.018 370.856 119.138 370.645 119.266C370.176 119.551 369.575 119.628 369.154 119.515L367.074 127.24ZM379 292.194C379 288.841 377.001 286.349 374.741 285.003C372.514 283.677 369.626 283.18 366.909 283.991L369.196 291.657C369.595 291.538 370.182 291.599 370.649 291.877C370.858 292.002 370.955 292.119 370.987 292.17C371.002 292.192 371.003 292.2 371.001 292.194C370.999 292.187 371 292.184 371 292.194H379Z" fill="#1F2024"/>
<g filter="url(#filter7_i)">
<path fill-rule="evenodd" clip-rule="evenodd" d="M97.6356 151.786C94.5204 155.699 93 160.62 93 165.622V269.692C93 279.627 99.083 288.624 108.573 291.565C172.506 311.373 259.496 312.342 355.488 303.54C366.642 302.517 375.339 293.846 376.787 283.012C373.058 286.256 368.298 288.357 363.018 288.747C271.091 295.523 187.722 294.792 126.01 279.701C115.802 277.205 109 267.841 109 257.333V183.067C109 177.224 111.066 171.515 115.242 167.427C170.329 113.506 278.797 106.115 366.511 123.007C370.528 123.781 374.096 125.59 377 128.122V116.169C377 105.541 370.031 96.1014 359.702 93.594C268.191 71.3795 154.089 80.8707 97.6356 151.786Z" fill="#E2E2E2"/>
</g>
<path d="M97.6356 151.786L94.5061 149.295H94.5061L97.6356 151.786ZM108.573 291.565L107.389 295.386H107.389L108.573 291.565ZM355.488 303.54L355.123 299.557L355.488 303.54ZM376.787 283.012L380.752 283.542L382.156 273.04L374.162 279.994L376.787 283.012ZM363.018 288.747L363.312 292.736H363.312L363.018 288.747ZM126.01 279.701L125.06 283.587L125.06 283.587L126.01 279.701ZM115.242 167.427L118.04 170.286L115.242 167.427ZM366.511 123.007L367.267 119.08L366.511 123.007ZM377 128.122L374.371 131.137L381 136.916V128.122H377ZM359.702 93.594L358.758 97.4811V97.4811L359.702 93.594ZM97 165.622C97 161.415 98.2787 157.401 100.765 154.278L94.5061 149.295C90.7621 153.998 89 159.826 89 165.622H97ZM97 269.692V165.622H89V269.692H97ZM109.757 287.744C102.087 285.368 97 278.032 97 269.692H89C89 281.223 96.0788 291.881 107.389 295.386L109.757 287.744ZM355.123 299.557C259.238 308.349 172.905 307.309 109.757 287.744L107.389 295.386C172.108 315.438 259.754 316.335 355.853 307.523L355.123 299.557ZM372.823 282.482C371.615 291.515 364.369 298.709 355.123 299.557L355.853 307.523C368.915 306.326 379.063 296.176 380.752 283.542L372.823 282.482ZM374.162 279.994C371.062 282.691 367.113 284.434 362.724 284.758L363.312 292.736C369.483 292.281 375.054 289.821 379.413 286.03L374.162 279.994ZM362.724 284.758C270.884 291.528 188.035 290.75 126.96 275.816L125.06 283.587C187.408 298.833 271.297 299.519 363.312 292.736L362.724 284.758ZM126.96 275.816C118.684 273.792 113 266.147 113 257.333H105C105 269.535 112.921 280.619 125.06 283.587L126.96 275.816ZM113 257.333V183.067H105V257.333H113ZM113 183.067C113 178.139 114.74 173.515 118.04 170.286L112.443 164.569C107.391 169.514 105 176.309 105 183.067H113ZM118.04 170.286C144.742 144.149 184.687 129.034 229.211 122.621C273.674 116.218 322.267 118.56 365.754 126.935L367.267 119.08C323.041 110.562 273.543 108.154 228.071 114.703C182.661 121.243 140.829 136.784 112.443 164.569L118.04 170.286ZM365.754 126.935C369.056 127.571 371.983 129.055 374.371 131.137L379.629 125.107C376.209 122.126 371.999 119.991 367.267 119.08L365.754 126.935ZM373 116.169V128.122H381V116.169H373ZM358.758 97.4811C367.178 99.5251 373 107.265 373 116.169H381C381 103.816 372.883 92.6777 360.645 89.7069L358.758 97.4811ZM100.765 154.278C128.205 119.809 169.831 100.052 216.231 91.7031C262.621 83.3562 313.456 86.4839 358.758 97.4811L360.645 89.7069C314.437 78.4896 262.466 75.2557 214.814 83.8296C167.172 92.4018 123.52 112.848 94.5061 149.295L100.765 154.278Z" fill="#1F2024"/>
<g filter="url(#filter8_d)">
<circle cx="244.5" cy="326" r="10" fill="#CAE9FA"/>
<circle cx="244.5" cy="326" r="10" stroke="#1F2024" stroke-width="8"/>
</g>
<g filter="url(#filter9_d)">
<circle cx="280.5" cy="326" r="10" fill="#9BCEF1"/>
<circle cx="280.5" cy="326" r="10" stroke="#1F2024" stroke-width="8"/>
</g>
<g filter="url(#filter10_d)">
<circle cx="316.5" cy="326" r="10" fill="#FFFA8F"/>
<circle cx="316.5" cy="326" r="10" stroke="#1F2024" stroke-width="8"/>
</g>
<g filter="url(#filter11_i)">
<path d="M4 218C4 200.327 18.3269 186 36 186H52C69.6731 186 84 200.327 84 218C84 235.673 69.6731 250 52 250H36C18.3269 250 4 235.673 4 218Z" fill="#E2E2E2"/>
</g>
<path d="M4 218C4 200.327 18.3269 186 36 186H52C69.6731 186 84 200.327 84 218C84 235.673 69.6731 250 52 250H36C18.3269 250 4 235.673 4 218Z" stroke="#1F2024" stroke-width="8"/>
<g filter="url(#filter12_ii)">
<path d="M4 218C4 200.327 18.3269 186 36 186C53.6731 186 68 200.327 68 218C68 235.673 53.6731 250 36 250C18.3269 250 4 235.673 4 218Z" fill="#ACACAE"/>
</g>
<path d="M4 218C4 200.327 18.3269 186 36 186C53.6731 186 68 200.327 68 218C68 235.673 53.6731 250 36 250C18.3269 250 4 235.673 4 218Z" stroke="#1F2024" stroke-width="8"/>
<g filter="url(#filter13_i)">
<path d="M26 281C26 267.745 36.7452 257 50 257H62C75.2548 257 86 267.745 86 281C86 294.255 75.2548 305 62 305H50C36.7452 305 26 294.255 26 281Z" fill="#ACACAE"/>
</g>
<path d="M26 281C26 267.745 36.7452 257 50 257H62C75.2548 257 86 267.745 86 281C86 294.255 75.2548 305 62 305H50C36.7452 305 26 294.255 26 281Z" stroke="#1F2024" stroke-width="8"/>
<g filter="url(#filter14_ii)">
<path d="M26 281C26 267.745 36.7452 257 50 257C63.2548 257 74 267.745 74 281C74 294.255 63.2548 305 50 305C36.7452 305 26 294.255 26 281Z" fill="#797A7C"/>
</g>
<path d="M26 281C26 267.745 36.7452 257 50 257C63.2548 257 74 267.745 74 281C74 294.255 63.2548 305 50 305C36.7452 305 26 294.255 26 281Z" stroke="#1F2024" stroke-width="8"/>
<g filter="url(#filter15_i)">
<path d="M109 183.067C109 177.224 111.066 171.515 115.242 167.427C170.329 113.506 278.797 106.115 366.511 123.007C377.407 125.106 385 134.823 385 145.92V264.953C385 277.42 375.451 287.83 363.018 288.747C271.091 295.523 187.722 294.792 126.01 279.701C115.802 277.205 109 267.841 109 257.333L109 183.067Z" fill="#1F2024" fill-opacity="0.2"/>
</g>
<path d="M109 183.067C109 177.224 111.066 171.515 115.242 167.427C170.329 113.506 278.797 106.115 366.511 123.007C377.407 125.106 385 134.823 385 145.92V264.953C385 277.42 375.451 287.83 363.018 288.747C271.091 295.523 187.722 294.792 126.01 279.701C115.802 277.205 109 267.841 109 257.333L109 183.067Z" stroke="#1F2024" stroke-width="8"/>
<path fill-rule="evenodd" clip-rule="evenodd" d="M344.63 275.022C345.397 274.97 346.165 274.918 346.933 274.865C359.402 274.008 369 263.58 369 251.082V160.981C369 149.802 361.305 140.03 350.297 138.082C348.32 137.733 346.331 137.397 344.332 137.075C348.514 141.338 351 147.249 351 153.601V258.752C351 265.005 348.597 270.744 344.63 275.022Z" fill="white" fill-opacity="0.8"/>
<g filter="url(#filter16_ii)">
<rect x="44" y="24" width="1" height="162" rx="0.5" fill="#ACACAE"/>
</g>
<rect x="44" y="24" width="1" height="162" rx="0.5" stroke="#1F2024" stroke-width="8"/>
<path d="M44 131C50.6274 131 56 127.418 56 123C56 118.582 50.6274 115 44 115" stroke="#1F2024" stroke-width="8"/>
<path d="M44 163C50.6274 163 56 159.418 56 155C56 150.582 50.6274 147 44 147" stroke="#1F2024" stroke-width="8"/>
<path d="M44 147C37.3726 147 32 143.418 32 139C32 134.582 37.3726 131 44 131" stroke="#1F2024" stroke-width="8"/>
<path d="M44 179C37.3726 179 32 175.418 32 171C32 166.582 37.3726 163 44 163" stroke="#1F2024" stroke-width="8"/>
<path d="M44 115C37.3726 115 32 111.418 32 107C32 102.582 37.3726 99 44 99" stroke="#1F2024" stroke-width="8"/>
<g filter="url(#filter17_ii)">
<path d="M29 20C29 11.1634 36.1634 4 45 4C53.8366 4 61 11.1634 61 20C61 28.8366 53.8366 36 45 36C36.1634 36 29 28.8366 29 20Z" fill="#ACACAE"/>
</g>
<path d="M29 20C29 11.1634 36.1634 4 45 4C53.8366 4 61 11.1634 61 20C61 28.8366 53.8366 36 45 36C36.1634 36 29 28.8366 29 20Z" stroke="#1F2024" stroke-width="8"/>
<defs>
<filter id="filter0_ii" x="25" y="107" width="248" height="216" filterUnits="userSpaceOnUse" color-interpolation-filters="sRGB">
<feFlood flood-opacity="0" result="BackgroundImageFix"/>
<feBlend mode="normal" in="SourceGraphic" in2="BackgroundImageFix" result="shape"/>
<feColorMatrix in="SourceAlpha" type="matrix" values="0 0 0 0 0 0 0 0 0 0 0 0 0 0 0 0 0 0 127 0" result="hardAlpha"/>
<feOffset dy="-16"/>
<feComposite in2="hardAlpha" operator="arithmetic" k2="-1" k3="1"/>
<feColorMatrix type="matrix" values="0 0 0 0 0 0 0 0 0 0 0 0 0 0 0 0 0 0 0.25 0"/>
<feBlend mode="normal" in2="shape" result="effect1_innerShadow"/>
<feColorMatrix in="SourceAlpha" type="matrix" values="0 0 0 0 0 0 0 0 0 0 0 0 0 0 0 0 0 0 127 0" result="hardAlpha"/>
<feOffset dy="16"/>
<feComposite in2="hardAlpha" operator="arithmetic" k2="-1" k3="1"/>
<feColorMatrix type="matrix" values="0 0 0 0 1 0 0 0 0 1 0 0 0 0 1 0 0 0 0.25 0"/>
<feBlend mode="normal" in2="effect1_innerShadow" result="effect2_innerShadow"/>
</filter>
<filter id="filter1_i" x="125" y="107" width="232" height="216" filterUnits="userSpaceOnUse" color-interpolation-filters="sRGB">
<feFlood flood-opacity="0" result="BackgroundImageFix"/>
<feBlend mode="normal" in="SourceGraphic" in2="BackgroundImageFix" result="shape"/>
<feColorMatrix in="SourceAlpha" type="matrix" values="0 0 0 0 0 0 0 0 0 0 0 0 0 0 0 0 0 0 127 0" result="hardAlpha"/>
<feOffset dx="-24" dy="8"/>
<feComposite in2="hardAlpha" operator="arithmetic" k2="-1" k3="1"/>
<feColorMatrix type="matrix" values="0 0 0 0 1 0 0 0 0 1 0 0 0 0 1 0 0 0 0.25 0"/>
<feBlend mode="normal" in2="shape" result="effect1_innerShadow"/>
</filter>
<filter id="filter2_ddi" x="153" y="161" width="176" height="64" filterUnits="userSpaceOnUse" color-interpolation-filters="sRGB">
<feFlood flood-opacity="0" result="BackgroundImageFix"/>
<feColorMatrix in="SourceAlpha" type="matrix" values="0 0 0 0 0 0 0 0 0 0 0 0 0 0 0 0 0 0 127 0" result="hardAlpha"/>
<feOffset dx="-4"/>
<feColorMatrix type="matrix" values="0 0 0 0 1 0 0 0 0 1 0 0 0 0 1 0 0 0 0.25 0"/>
<feBlend mode="normal" in2="BackgroundImageFix" result="effect1_dropShadow"/>
<feColorMatrix in="SourceAlpha" type="matrix" values="0 0 0 0 0 0 0 0 0 0 0 0 0 0 0 0 0 0 127 0" result="hardAlpha"/>
<feOffset dx="4"/>
<feColorMatrix type="matrix" values="0 0 0 0 0 0 0 0 0 0 0 0 0 0 0 0 0 0 0.25 0"/>
<feBlend mode="normal" in2="effect1_dropShadow" result="effect2_dropShadow"/>
<feBlend mode="normal" in="SourceGraphic" in2="effect2_dropShadow" result="shape"/>
<feColorMatrix in="SourceAlpha" type="matrix" values="0 0 0 0 0 0 0 0 0 0 0 0 0 0 0 0 0 0 127 0" result="hardAlpha"/>
<feOffset dx="-4"/>
<feComposite in2="hardAlpha" operator="arithmetic" k2="-1" k3="1"/>
<feColorMatrix type="matrix" values="0 0 0 0 0 0 0 0 0 0 0 0 0 0 0 0 0 0 0.25 0"/>
<feBlend mode="normal" in2="shape" result="effect3_innerShadow"/>
</filter>
<filter id="filter3_i" x="198" y="254.5" width="99" height="37.5" filterUnits="userSpaceOnUse" color-interpolation-filters="sRGB">
<feFlood flood-opacity="0" result="BackgroundImageFix"/>
<feBlend mode="normal" in="SourceGraphic" in2="BackgroundImageFix" result="shape"/>
<feColorMatrix in="SourceAlpha" type="matrix" values="0 0 0 0 0 0 0 0 0 0 0 0 0 0 0 0 0 0 127 0" result="hardAlpha"/>
<feOffset dx="-24" dy="8"/>
<feComposite in2="hardAlpha" operator="arithmetic" k2="-1" k3="1"/>
<feColorMatrix type="matrix" values="0 0 0 0 1 0 0 0 0 1 0 0 0 0 1 0 0 0 0.25 0"/>
<feBlend mode="normal" in2="shape" result="effect1_innerShadow"/>
</filter>
<filter id="filter4_i" x="198" y="228" width="99" height="34.5" filterUnits="userSpaceOnUse" color-interpolation-filters="sRGB">
<feFlood flood-opacity="0" result="BackgroundImageFix"/>
<feBlend mode="normal" in="SourceGraphic" in2="BackgroundImageFix" result="shape"/>
<feColorMatrix in="SourceAlpha" type="matrix" values="0 0 0 0 0 0 0 0 0 0 0 0 0 0 0 0 0 0 127 0" result="hardAlpha"/>
<feOffset dx="-24" dy="8"/>
<feComposite in2="hardAlpha" operator="arithmetic" k2="-1" k3="1"/>
<feColorMatrix type="matrix" values="0 0 0 0 1 0 0 0 0 1 0 0 0 0 1 0 0 0 0.25 0"/>
<feBlend mode="normal" in2="shape" result="effect1_innerShadow"/>
</filter>
<filter id="filter5_ii" x="21.9568" y="42" width="353.043" height="291" filterUnits="userSpaceOnUse" color-interpolation-filters="sRGB">
<feFlood flood-opacity="0" result="BackgroundImageFix"/>
<feBlend mode="normal" in="SourceGraphic" in2="BackgroundImageFix" result="shape"/>
<feColorMatrix in="SourceAlpha" type="matrix" values="0 0 0 0 0 0 0 0 0 0 0 0 0 0 0 0 0 0 127 0" result="hardAlpha"/>
<feOffset dx="16"/>
<feComposite in2="hardAlpha" operator="arithmetic" k2="-1" k3="1"/>
<feColorMatrix type="matrix" values="0 0 0 0 0 0 0 0 0 0 0 0 0 0 0 0 0 0 0.25 0"/>
<feBlend mode="normal" in2="shape" result="effect1_innerShadow"/>
<feColorMatrix in="SourceAlpha" type="matrix" values="0 0 0 0 0 0 0 0 0 0 0 0 0 0 0 0 0 0 127 0" result="hardAlpha"/>
<feOffset dx="-24" dy="8"/>
<feComposite in2="hardAlpha" operator="arithmetic" k2="-1" k3="1"/>
<feColorMatrix type="matrix" values="0 0 0 0 1 0 0 0 0 1 0 0 0 0 1 0 0 0 0.25 0"/>
<feBlend mode="normal" in2="effect1_innerShadow" result="effect2_innerShadow"/>
</filter>
<filter id="filter6_ii" x="6" y="18" width="373" height="331" filterUnits="userSpaceOnUse" color-interpolation-filters="sRGB">
<feFlood flood-opacity="0" result="BackgroundImageFix"/>
<feBlend mode="normal" in="SourceGraphic" in2="BackgroundImageFix" result="shape"/>
<feColorMatrix in="SourceAlpha" type="matrix" values="0 0 0 0 0 0 0 0 0 0 0 0 0 0 0 0 0 0 127 0" result="hardAlpha"/>
<feOffset dx="64" dy="-16"/>
<feComposite in2="hardAlpha" operator="arithmetic" k2="-1" k3="1"/>
<feColorMatrix type="matrix" values="0 0 0 0 0 0 0 0 0 0 0 0 0 0 0 0 0 0 0.25 0"/>
<feBlend mode="normal" in2="shape" result="effect1_innerShadow"/>
<feColorMatrix in="SourceAlpha" type="matrix" values="0 0 0 0 0 0 0 0 0 0 0 0 0 0 0 0 0 0 127 0" result="hardAlpha"/>
<feOffset dx="-16" dy="16"/>
<feComposite in2="hardAlpha" operator="arithmetic" k2="-1" k3="1"/>
<feColorMatrix type="matrix" values="0 0 0 0 1 0 0 0 0 1 0 0 0 0 1 0 0 0 0.25 0"/>
<feBlend mode="normal" in2="effect1_innerShadow" result="effect2_innerShadow"/>
</filter>
<filter id="filter7_i" x="89" y="78.959" width="293.156" height="233.886" filterUnits="userSpaceOnUse" color-interpolation-filters="sRGB">
<feFlood flood-opacity="0" result="BackgroundImageFix"/>
<feBlend mode="normal" in="SourceGraphic" in2="BackgroundImageFix" result="shape"/>
<feColorMatrix in="SourceAlpha" type="matrix" values="0 0 0 0 0 0 0 0 0 0 0 0 0 0 0 0 0 0 127 0" result="hardAlpha"/>
<feOffset dx="-24" dy="8"/>
<feComposite in2="hardAlpha" operator="arithmetic" k2="-1" k3="1"/>
<feColorMatrix type="matrix" values="0 0 0 0 1 0 0 0 0 1 0 0 0 0 1 0 0 0 0.25 0"/>
<feBlend mode="normal" in2="shape" result="effect1_innerShadow"/>
</filter>
<filter id="filter8_d" x="226.5" y="312" width="32" height="28" filterUnits="userSpaceOnUse" color-interpolation-filters="sRGB">
<feFlood flood-opacity="0" result="BackgroundImageFix"/>
<feColorMatrix in="SourceAlpha" type="matrix" values="0 0 0 0 0 0 0 0 0 0 0 0 0 0 0 0 0 0 127 0" result="hardAlpha"/>
<feOffset dx="-4"/>
<feColorMatrix type="matrix" values="0 0 0 0 0.133333 0 0 0 0 0.133333 0 0 0 0 0.133333 0 0 0 1 0"/>
<feBlend mode="normal" in2="BackgroundImageFix" result="effect1_dropShadow"/>
<feBlend mode="normal" in="SourceGraphic" in2="effect1_dropShadow" result="shape"/>
</filter>
<filter id="filter9_d" x="262.5" y="312" width="32" height="28" filterUnits="userSpaceOnUse" color-interpolation-filters="sRGB">
<feFlood flood-opacity="0" result="BackgroundImageFix"/>
<feColorMatrix in="SourceAlpha" type="matrix" values="0 0 0 0 0 0 0 0 0 0 0 0 0 0 0 0 0 0 127 0" result="hardAlpha"/>
<feOffset dx="-4"/>
<feColorMatrix type="matrix" values="0 0 0 0 0.133333 0 0 0 0 0.133333 0 0 0 0 0.133333 0 0 0 1 0"/>
<feBlend mode="normal" in2="BackgroundImageFix" result="effect1_dropShadow"/>
<feBlend mode="normal" in="SourceGraphic" in2="effect1_dropShadow" result="shape"/>
</filter>
<filter id="filter10_d" x="298.5" y="312" width="32" height="28" filterUnits="userSpaceOnUse" color-interpolation-filters="sRGB">
<feFlood flood-opacity="0" result="BackgroundImageFix"/>
<feColorMatrix in="SourceAlpha" type="matrix" values="0 0 0 0 0 0 0 0 0 0 0 0 0 0 0 0 0 0 127 0" result="hardAlpha"/>
<feOffset dx="-4"/>
<feColorMatrix type="matrix" values="0 0 0 0 0.133333 0 0 0 0 0.133333 0 0 0 0 0.133333 0 0 0 1 0"/>
<feBlend mode="normal" in2="BackgroundImageFix" result="effect1_dropShadow"/>
<feBlend mode="normal" in="SourceGraphic" in2="effect1_dropShadow" result="shape"/>
</filter>
<filter id="filter11_i" x="0" y="182" width="88" height="72" filterUnits="userSpaceOnUse" color-interpolation-filters="sRGB">
<feFlood flood-opacity="0" result="BackgroundImageFix"/>
<feBlend mode="normal" in="SourceGraphic" in2="BackgroundImageFix" result="shape"/>
<feColorMatrix in="SourceAlpha" type="matrix" values="0 0 0 0 0 0 0 0 0 0 0 0 0 0 0 0 0 0 127 0" result="hardAlpha"/>
<feOffset dx="-24" dy="8"/>
<feComposite in2="hardAlpha" operator="arithmetic" k2="-1" k3="1"/>
<feColorMatrix type="matrix" values="0 0 0 0 1 0 0 0 0 1 0 0 0 0 1 0 0 0 0.25 0"/>
<feBlend mode="normal" in2="shape" result="effect1_innerShadow"/>
</filter>
<filter id="filter12_ii" x="0" y="182" width="72" height="72" filterUnits="userSpaceOnUse" color-interpolation-filters="sRGB">
<feFlood flood-opacity="0" result="BackgroundImageFix"/>
<feBlend mode="normal" in="SourceGraphic" in2="BackgroundImageFix" result="shape"/>
<feColorMatrix in="SourceAlpha" type="matrix" values="0 0 0 0 0 0 0 0 0 0 0 0 0 0 0 0 0 0 127 0" result="hardAlpha"/>
<feOffset dy="-16"/>
<feComposite in2="hardAlpha" operator="arithmetic" k2="-1" k3="1"/>
<feColorMatrix type="matrix" values="0 0 0 0 0 0 0 0 0 0 0 0 0 0 0 0 0 0 0.25 0"/>
<feBlend mode="normal" in2="shape" result="effect1_innerShadow"/>
<feColorMatrix in="SourceAlpha" type="matrix" values="0 0 0 0 0 0 0 0 0 0 0 0 0 0 0 0 0 0 127 0" result="hardAlpha"/>
<feOffset dy="16"/>
<feComposite in2="hardAlpha" operator="arithmetic" k2="-1" k3="1"/>
<feColorMatrix type="matrix" values="0 0 0 0 1 0 0 0 0 1 0 0 0 0 1 0 0 0 0.25 0"/>
<feBlend mode="normal" in2="effect1_innerShadow" result="effect2_innerShadow"/>
</filter>
<filter id="filter13_i" x="22" y="253" width="68" height="56" filterUnits="userSpaceOnUse" color-interpolation-filters="sRGB">
<feFlood flood-opacity="0" result="BackgroundImageFix"/>
<feBlend mode="normal" in="SourceGraphic" in2="BackgroundImageFix" result="shape"/>
<feColorMatrix in="SourceAlpha" type="matrix" values="0 0 0 0 0 0 0 0 0 0 0 0 0 0 0 0 0 0 127 0" result="hardAlpha"/>
<feOffset dx="-24" dy="8"/>
<feComposite in2="hardAlpha" operator="arithmetic" k2="-1" k3="1"/>
<feColorMatrix type="matrix" values="0 0 0 0 1 0 0 0 0 1 0 0 0 0 1 0 0 0 0.25 0"/>
<feBlend mode="normal" in2="shape" result="effect1_innerShadow"/>
</filter>
<filter id="filter14_ii" x="22" y="253" width="56" height="56" filterUnits="userSpaceOnUse" color-interpolation-filters="sRGB">
<feFlood flood-opacity="0" result="BackgroundImageFix"/>
<feBlend mode="normal" in="SourceGraphic" in2="BackgroundImageFix" result="shape"/>
<feColorMatrix in="SourceAlpha" type="matrix" values="0 0 0 0 0 0 0 0 0 0 0 0 0 0 0 0 0 0 127 0" result="hardAlpha"/>
<feOffset dy="-16"/>
<feComposite in2="hardAlpha" operator="arithmetic" k2="-1" k3="1"/>
<feColorMatrix type="matrix" values="0 0 0 0 0 0 0 0 0 0 0 0 0 0 0 0 0 0 0.25 0"/>
<feBlend mode="normal" in2="shape" result="effect1_innerShadow"/>
<feColorMatrix in="SourceAlpha" type="matrix" values="0 0 0 0 0 0 0 0 0 0 0 0 0 0 0 0 0 0 127 0" result="hardAlpha"/>
<feOffset dy="16"/>
<feComposite in2="hardAlpha" operator="arithmetic" k2="-1" k3="1"/>
<feColorMatrix type="matrix" values="0 0 0 0 1 0 0 0 0 1 0 0 0 0 1 0 0 0 0.25 0"/>
<feBlend mode="normal" in2="effect1_innerShadow" result="effect2_innerShadow"/>
</filter>
<filter id="filter15_i" x="105" y="110.959" width="284" height="185.885" filterUnits="userSpaceOnUse" color-interpolation-filters="sRGB">
<feFlood flood-opacity="0" result="BackgroundImageFix"/>
<feBlend mode="normal" in="SourceGraphic" in2="BackgroundImageFix" result="shape"/>
<feColorMatrix in="SourceAlpha" type="matrix" values="0 0 0 0 0 0 0 0 0 0 0 0 0 0 0 0 0 0 127 0" result="hardAlpha"/>
<feOffset dx="-24" dy="8"/>
<feComposite in2="hardAlpha" operator="arithmetic" k2="-1" k3="1"/>
<feColorMatrix type="matrix" values="0 0 0 0 1 0 0 0 0 1 0 0 0 0 1 0 0 0 0.25 0"/>
<feBlend mode="normal" in2="shape" result="effect1_innerShadow"/>
</filter>
<filter id="filter16_ii" x="40" y="20" width="9" height="170" filterUnits="userSpaceOnUse" color-interpolation-filters="sRGB">
<feFlood flood-opacity="0" result="BackgroundImageFix"/>
<feBlend mode="normal" in="SourceGraphic" in2="BackgroundImageFix" result="shape"/>
<feColorMatrix in="SourceAlpha" type="matrix" values="0 0 0 0 0 0 0 0 0 0 0 0 0 0 0 0 0 0 127 0" result="hardAlpha"/>
<feOffset dy="-16"/>
<feComposite in2="hardAlpha" operator="arithmetic" k2="-1" k3="1"/>
<feColorMatrix type="matrix" values="0 0 0 0 0 0 0 0 0 0 0 0 0 0 0 0 0 0 0.25 0"/>
<feBlend mode="normal" in2="shape" result="effect1_innerShadow"/>
<feColorMatrix in="SourceAlpha" type="matrix" values="0 0 0 0 0 0 0 0 0 0 0 0 0 0 0 0 0 0 127 0" result="hardAlpha"/>
<feOffset dy="16"/>
<feComposite in2="hardAlpha" operator="arithmetic" k2="-1" k3="1"/>
<feColorMatrix type="matrix" values="0 0 0 0 1 0 0 0 0 1 0 0 0 0 1 0 0 0 0.25 0"/>
<feBlend mode="normal" in2="effect1_innerShadow" result="effect2_innerShadow"/>
</filter>
<filter id="filter17_ii" x="25" y="0" width="40" height="40" filterUnits="userSpaceOnUse" color-interpolation-filters="sRGB">
<feFlood flood-opacity="0" result="BackgroundImageFix"/>
<feBlend mode="normal" in="SourceGraphic" in2="BackgroundImageFix" result="shape"/>
<feColorMatrix in="SourceAlpha" type="matrix" values="0 0 0 0 0 0 0 0 0 0 0 0 0 0 0 0 0 0 127 0" result="hardAlpha"/>
<feOffset dx="16"/>
<feComposite in2="hardAlpha" operator="arithmetic" k2="-1" k3="1"/>
<feColorMatrix type="matrix" values="0 0 0 0 0 0 0 0 0 0 0 0 0 0 0 0 0 0 0.25 0"/>
<feBlend mode="normal" in2="shape" result="effect1_innerShadow"/>
<feColorMatrix in="SourceAlpha" type="matrix" values="0 0 0 0 0 0 0 0 0 0 0 0 0 0 0 0 0 0 127 0" result="hardAlpha"/>
<feOffset dx="-24" dy="8"/>
<feComposite in2="hardAlpha" operator="arithmetic" k2="-1" k3="1"/>
<feColorMatrix type="matrix" values="0 0 0 0 1 0 0 0 0 1 0 0 0 0 1 0 0 0 0.25 0"/>
<feBlend mode="normal" in2="effect1_innerShadow" result="effect2_innerShadow"/>
</filter>
</defs>
</svg>
